<?xml version="1.0" standalone="no"?>
<!DOCTYPE svg PUBLIC "-//W3C//DTD SVG 20010904//EN"
 "http://www.w3.org/TR/2001/REC-SVG-20010904/DTD/svg10.dtd">
<svg version="1.0" xmlns="http://www.w3.org/2000/svg"
 width="320.000000pt" height="256.000000pt" viewBox="0 0 320.000000 256.000000"
 preserveAspectRatio="xMidYMid meet">

<g transform="translate(0.000000,256.000000) scale(0.100000,-0.100000)"
fill="#000000" stroke="none">
<path d="M2349 2308 c-19 -15 -32 -48 -20 -48 13 0 8 -34 -7 -43 -19 -13 -44
-66 -36 -79 17 -27 13 -112 -7 -150 -16 -31 -18 -43 -8 -54 18 -22 42 -18 36
7 -4 14 3 35 19 58 13 19 24 41 24 48 0 7 5 13 11 13 7 0 9 -11 6 -29 -6 -29
7 -51 29 -51 8 0 12 13 12 33 0 17 3 44 7 59 6 24 4 29 -19 37 -16 7 -24 16
-20 25 3 8 11 13 18 10 6 -2 25 9 41 26 23 24 26 33 16 43 -10 9 -16 7 -31
-13 -11 -14 -18 -31 -15 -37 2 -7 0 -13 -6 -13 -10 0 -8 45 4 56 9 10 9 59 0
68 -4 4 -8 15 -8 24 0 21 -26 26 -46 10z m49 -68 c0 -23 -4 -30 -18 -30 -13 0
-17 5 -13 20 3 11 0 20 -6 20 -6 0 -11 5 -11 10 0 6 11 10 23 10 20 0 24 -5
25 -30z m-18 -62 c0 -24 -25 -23 -50 2 -18 18 -18 20 -3 29 21 11 53 -7 53
-31z m70 22 c0 -5 -4 -10 -10 -10 -5 0 -10 5 -10 10 0 6 5 10 10 10 6 0 10 -4
10 -10z m-129 -34 c-9 -11 -9 -14 1 -13 30 1 48 -4 48 -12 0 -8 -40 -8 -60 -1
-3 2 -8 2 -12 1 -10 -1 -10 3 -2 23 3 9 13 16 21 16 12 0 13 -3 4 -14z m49
-56 c12 -11 27 -17 33 -13 6 4 7 -4 2 -23 -5 -16 -9 -42 -8 -57 0 -16 -4 -26
-11 -24 -6 2 -10 18 -8 35 2 23 -2 34 -17 42 -17 9 -21 8 -21 -5 0 -8 -6 -15
-12 -15 -10 0 -10 -2 -1 -8 9 -6 6 -17 -12 -44 -14 -20 -22 -44 -19 -52 3 -9
1 -16 -4 -16 -23 0 -22 22 0 63 20 35 22 48 14 75 -7 24 -6 36 4 45 7 7 10 7
7 1 -8 -14 40 -37 48 -24 4 6 2 10 -3 10 -6 0 -12 7 -16 15 -7 20 -4 19 24 -5z"/>
<path d="M2376 2081 c-4 -5 -2 -12 3 -15 5 -4 12 -2 15 3 4 5 2 12 -3 15 -5 4
-12 2 -15 -3z"/>
<path d="M2679 2298 c-19 -15 -32 -48 -20 -48 17 0 6 -35 -18 -56 -36 -31 -39
-113 -6 -144 22 -21 23 -24 8 -57 -12 -31 -13 -38 0 -50 9 -9 23 -12 41 -7 22
5 27 11 22 28 -3 11 0 36 6 53 10 29 9 35 -9 55 l-22 23 23 20 c13 12 27 20
32 18 6 -2 19 3 29 11 16 11 17 17 8 27 -9 9 -17 8 -37 -5 -15 -9 -26 -14 -26
-11 0 3 -10 0 -22 -6 -13 -6 -20 -8 -15 -4 4 5 0 18 -8 31 -11 17 -11 23 -2
27 16 6 47 -16 47 -32 0 -7 5 -9 10 -6 6 4 8 10 5 15 -3 5 -1 11 5 15 12 7 14
58 3 69 -4 4 -8 15 -8 24 0 21 -26 26 -46 10z m49 -68 c0 -23 -4 -30 -18 -30
-13 0 -17 5 -13 20 3 11 0 20 -6 20 -6 0 -11 5 -11 10 0 6 11 10 23 10 20 0
24 -5 25 -30z m-81 -67 c-9 -9 -19 -14 -23 -11 -10 10 6 28 24 28 15 0 15 -1
-1 -17z m123 -3 c0 -5 -4 -10 -10 -10 -5 0 -10 5 -10 10 0 6 5 10 10 10 6 0
10 -4 10 -10z m-92 -50 c3 -9 -3 -11 -24 -6 -26 6 -27 5 -9 -6 11 -6 23 -16
27 -22 4 -6 8 -7 8 -2 0 5 7 3 15 -4 8 -7 15 -20 14 -29 0 -10 -4 -7 -10 8 -9
23 -10 23 -24 5 -14 -19 -14 -19 -35 2 -17 17 -21 28 -15 52 5 26 9 30 28 23
11 -4 23 -14 25 -21z m32 20 c0 -5 -4 -10 -10 -10 -5 0 -10 5 -10 10 0 6 5 10
10 10 6 0 10 -4 10 -10z m-16 -133 c2 -26 0 -47 -4 -47 -16 0 -21 19 -10 39 5
11 6 22 2 25 -9 5 -12 -9 -13 -51 -1 -24 -13 -30 -24 -13 -6 10 32 106 40 99
2 -3 6 -26 9 -52z"/>
<path d="M2999 2298 c-19 -15 -32 -48 -20 -48 17 0 6 -35 -18 -56 -19 -16 -25
-32 -27 -70 -1 -27 3 -54 8 -61 5 -7 8 -36 7 -65 -4 -57 3 -78 27 -78 12 0 14
7 10 28 -8 36 7 87 25 87 8 0 14 5 14 12 0 6 4 15 9 20 5 5 5 -4 1 -22 -5 -16
-9 -43 -8 -58 0 -16 -4 -26 -11 -24 -6 2 -10 19 -9 38 l2 34 -9 -29 c-6 -20
-6 -34 2 -43 19 -24 37 -15 36 20 0 17 3 44 7 59 6 23 3 29 -19 39 l-26 12 23
22 c12 11 27 20 32 18 6 -2 19 3 30 11 16 11 17 17 8 27 -9 9 -17 8 -37 -5
-15 -9 -26 -14 -26 -11 0 3 -10 0 -22 -6 -13 -6 -20 -8 -15 -4 4 5 0 18 -8 31
-11 17 -11 23 -2 27 16 6 47 -16 47 -32 0 -7 5 -9 10 -6 6 4 8 10 5 15 -3 5
-1 11 5 15 12 7 14 58 3 69 -4 4 -8 15 -8 24 0 21 -26 26 -46 10z m49 -68 c0
-23 -4 -30 -18 -30 -13 0 -17 5 -13 20 3 11 0 20 -6 20 -6 0 -11 5 -11 10 0 6
11 10 23 10 20 0 24 -5 25 -30z m-81 -67 c-9 -9 -19 -14 -23 -11 -10 10 6 28
24 28 15 0 15 -1 -1 -17z m123 -3 c0 -5 -4 -10 -10 -10 -5 0 -10 5 -10 10 0 6
5 10 10 10 6 0 10 -4 10 -10z m-92 -50 c3 -9 -3 -11 -24 -7 -23 5 -21 3 9 -10
43 -18 44 -40 1 -35 -39 4 -47 15 -39 50 5 26 9 30 28 23 11 -4 23 -14 25 -21z
m32 20 c0 -5 -4 -10 -10 -10 -5 0 -10 5 -10 10 0 6 5 10 10 10 6 0 10 -4 10
-10z m-45 -88 c-6 -4 -11 -31 -10 -59 0 -31 -4 -52 -10 -49 -5 2 -9 12 -7 22
1 10 3 36 4 57 1 26 6 37 17 37 10 0 12 -3 6 -8z"/>
<path d="M759 2288 c-19 -15 -32 -48 -20 -48 14 0 7 -33 -10 -51 -9 -9 -22
-40 -29 -68 -12 -49 -11 -54 11 -77 l23 -24 -23 -31 c-27 -36 -17 -55 35 -65
40 -7 52 -1 36 19 -15 18 -4 87 13 81 22 -9 27 14 10 45 -19 38 -19 68 0 105
16 30 20 68 8 80 -4 4 -8 15 -8 24 0 21 -26 26 -46 10z m49 -68 c0 -19 -4 -30
-13 -30 -7 0 -13 -6 -12 -12 1 -43 -4 -78 -13 -78 -15 0 -12 58 3 63 6 2 0 4
-15 3 -16 -1 -23 -5 -18 -11 4 -5 10 -23 12 -38 5 -26 4 -28 -21 -23 -25 5
-25 5 -4 -6 28 -13 36 -33 19 -47 -10 -8 -18 -6 -31 9 -15 17 -16 25 -6 67 15
60 23 74 47 77 20 3 33 36 15 36 -6 0 -11 5 -11 10 0 6 11 10 23 10 20 0 24
-5 25 -30z m-34 -183 c-12 -38 -13 -81 -3 -94 9 -10 7 -13 -10 -13 -11 0 -21
1 -21 3 0 1 4 17 10 36 9 32 9 33 -10 16 -10 -9 -16 -23 -13 -31 6 -16 -12
-19 -22 -4 -7 12 35 71 46 64 5 -3 6 2 3 10 -3 9 -1 16 6 16 7 0 9 8 5 23 -5
17 -4 19 4 7 6 -8 8 -23 5 -33z m36 3 c0 -5 -4 -10 -10 -10 -5 0 -10 5 -10 10
0 6 5 10 10 10 6 0 10 -4 10 -10z"/>
<path d="M1079 2288 c-19 -15 -32 -48 -20 -48 13 0 8 -34 -6 -43 -7 -4 -20
-33 -29 -64 -13 -45 -14 -60 -4 -79 10 -19 10 -32 -3 -70 -18 -55 -15 -64 19
-64 25 0 31 9 15 25 -6 6 -4 20 5 35 l15 25 -5 -24 c-6 -28 9 -51 31 -51 11 0
13 7 8 30 -5 24 -2 34 20 54 25 24 26 26 11 55 -18 34 -21 106 -6 116 12 7 14
58 3 69 -4 4 -8 15 -8 24 0 21 -26 26 -46 10z m49 -68 c0 -23 -4 -30 -18 -30
-13 0 -17 5 -13 20 3 11 0 20 -6 20 -6 0 -11 5 -11 10 0 6 11 10 23 10 20 0
24 -5 25 -30z m-18 -57 c0 -21 -21 -25 -35 -7 -7 11 -17 16 -21 11 -4 -4 -2
-7 4 -7 7 0 12 -13 12 -30 0 -42 -17 -37 -22 6 -5 46 14 69 42 51 11 -6 20
-17 20 -24z m-72 -46 c-2 -13 1 -29 9 -35 7 -7 13 -17 13 -22 0 -13 -27 -13
-35 0 -7 11 4 80 12 80 3 0 3 -10 1 -23z m70 -6 c3 -8 -1 -12 -9 -9 -7 2 -15
10 -17 17 -3 8 1 12 9 9 7 -2 15 -10 17 -17z m-12 -33 c3 -4 -1 -5 -10 -4 -8
1 -18 5 -22 8 -3 4 1 5 10 4 8 -1 18 -5 22 -8z m5 -71 c-6 -18 -8 -42 -5 -52
5 -13 3 -16 -7 -13 -8 3 -13 15 -11 29 1 13 0 30 -4 39 -4 11 -10 6 -24 -20
-13 -25 -15 -39 -8 -47 8 -10 5 -13 -11 -13 -24 0 -24 1 -12 32 19 48 24 63
22 71 -1 5 3 6 9 2 6 -3 17 1 26 10 25 25 39 4 25 -38z m39 33 c0 -5 -4 -10
-10 -10 -5 0 -10 5 -10 10 0 6 5 10 10 10 6 0 10 -4 10 -10z"/>
<path d="M1083 2035 c-8 -9 -9 -16 -3 -20 6 -3 13 1 16 10 9 21 2 26 -13 10z"/>
<path d="M1719 2288 c-19 -15 -32 -48 -20 -48 14 0 7 -33 -10 -51 -9 -9 -22
-40 -29 -68 -12 -49 -11 -54 11 -77 l23 -24 -23 -31 c-27 -36 -17 -55 35 -65
40 -7 52 -1 35 20 -7 8 -9 25 -5 40 8 32 -4 99 -16 91 -5 -3 -11 -2 -14 3 -3
5 2 9 11 9 8 0 22 -15 29 -34 8 -18 18 -33 24 -33 18 0 20 20 5 49 -17 34 -20
107 -5 116 12 7 14 58 3 69 -4 4 -8 15 -8 24 0 21 -26 26 -46 10z m49 -68 c0
-23 -4 -30 -18 -30 -13 0 -17 5 -13 20 3 11 0 20 -6 20 -6 0 -11 5 -11 10 0 6
11 10 23 10 20 0 24 -5 25 -30z m-18 -57 c0 -21 -21 -25 -35 -7 -7 11 -17 16
-21 11 -4 -4 -2 -7 4 -7 7 0 12 -13 12 -30 0 -42 -17 -37 -22 6 -5 46 14 69
42 51 11 -6 20 -17 20 -24z m-72 -46 c-2 -13 1 -29 9 -35 7 -7 13 -22 13 -33
0 -11 7 -22 15 -25 10 -4 13 -15 10 -36 -3 -17 0 -36 6 -44 9 -11 7 -14 -10
-14 -18 0 -20 4 -14 33 3 17 8 34 10 36 2 3 -11 19 -28 37 -26 27 -30 36 -24
68 4 20 9 36 12 36 3 0 3 -10 1 -23z m70 -6 c3 -8 -1 -12 -9 -9 -7 2 -15 10
-17 17 -3 8 1 12 9 9 7 -2 15 -10 17 -17z m-18 -71 c0 -5 -4 -10 -10 -10 -5 0
-10 5 -10 10 0 6 5 10 10 10 6 0 10 -4 10 -10z m50 0 c0 -5 -4 -10 -10 -10 -5
0 -10 5 -10 10 0 6 5 10 10 10 6 0 10 -4 10 -10z m-84 -61 c-6 -38 -13 -46
-27 -32 -8 8 -6 18 7 37 24 33 26 32 20 -5z"/>
<path d="M2039 2288 c-19 -15 -32 -48 -20 -48 13 0 8 -34 -6 -43 -7 -4 -20
-33 -29 -64 -13 -45 -14 -60 -4 -79 10 -19 10 -32 -3 -70 -18 -55 -15 -64 19
-64 25 0 31 9 15 25 -6 6 -4 20 5 35 l15 25 -5 -24 c-6 -28 9 -51 31 -51 11 0
13 7 8 28 -4 20 0 36 15 55 20 25 20 28 5 56 -19 38 -19 68 0 105 16 30 20 68
8 80 -4 4 -8 15 -8 24 0 21 -26 26 -46 10z m49 -68 c0 -19 -4 -30 -13 -30 -7
0 -13 -6 -12 -12 1 -43 -4 -78 -13 -78 -15 0 -12 58 3 63 6 2 0 4 -15 3 -16
-1 -23 -5 -18 -11 4 -5 10 -23 12 -38 5 -26 4 -28 -21 -23 -25 5 -25 5 -3 -6
23 -12 31 -48 10 -48 -6 0 -3 -7 8 -15 17 -13 21 -12 37 7 10 11 20 18 24 14
4 -3 -2 -12 -12 -20 -13 -9 -19 -26 -19 -50 0 -21 -4 -35 -10 -33 -6 3 -10 15
-8 28 1 13 0 30 -4 39 -4 11 -10 6 -24 -20 -13 -25 -15 -39 -8 -47 8 -10 5
-13 -12 -13 -17 0 -21 4 -15 18 4 9 10 27 12 40 3 12 9 25 14 28 5 3 2 18 -7
33 -15 26 -15 32 0 84 9 32 21 58 26 58 6 1 16 2 22 3 16 1 24 36 9 36 -6 0
-11 5 -11 10 0 6 11 10 23 10 20 0 24 -5 25 -30z m-36 -182 c-9 -9 -12 -7 -12
12 0 19 3 21 12 12 9 -9 9 -15 0 -24z"/>
<path d="M109 2278 c-22 -17 -32 -48 -16 -48 8 0 8 -3 -2 -9 -7 -5 -11 -13 -7
-19 3 -5 -1 -15 -8 -21 -8 -7 -20 -34 -26 -61 -9 -39 -9 -54 2 -77 11 -23 11
-34 1 -66 -16 -45 -11 -57 23 -57 26 0 31 9 12 28 -9 10 -8 16 5 29 18 18 18
18 21 -32 1 -14 9 -21 29 -23 27 -3 37 11 16 23 -6 4 -8 22 -4 45 5 27 1 48
-11 72 -10 18 -17 37 -15 42 1 5 -5 4 -13 -3 -13 -11 -17 -10 -22 3 -9 23 1
30 25 17 15 -9 22 -8 28 4 7 11 11 7 21 -18 10 -29 10 -30 -3 -13 -8 11 -17
17 -20 14 -7 -7 34 -78 45 -78 19 0 18 19 -6 66 -19 38 -23 57 -18 91 3 23 2
48 -2 55 -5 7 -9 20 -9 28 0 19 -26 24 -46 8z m51 -48 c0 -5 -7 -10 -15 -10
-9 0 -12 -6 -8 -16 5 -13 7 -13 14 -2 7 10 9 9 9 -4 0 -11 -8 -18 -20 -18 -11
0 -20 6 -20 14 0 8 -3 21 -6 30 -5 12 0 16 20 16 14 0 26 -4 26 -10z m-27 -56
c22 -8 18 -37 -4 -42 -10 -2 -19 6 -22 18 -3 11 -11 20 -19 20 -10 0 -10 -2 1
-9 12 -8 12 -12 2 -25 -19 -23 -33 -19 -25 7 9 31 25 49 38 42 6 -3 19 -8 29
-11z m-45 -89 c-3 -3 -9 2 -12 12 -6 14 -5 15 5 6 7 -7 10 -15 7 -18z m-11
-52 c-10 -10 -16 0 -22 38 l-6 34 17 -32 c10 -18 14 -36 11 -40z m58 27 c11
-20 14 -42 9 -65 -4 -22 -2 -41 6 -50 10 -13 9 -15 -10 -15 -15 0 -20 5 -17
14 3 8 2 29 -3 46 -7 25 -6 29 3 21 9 -7 13 -5 13 8 0 11 -6 17 -13 14 -9 -3
-11 0 -7 10 3 8 0 18 -5 22 -6 3 -9 11 -6 16 9 14 13 11 30 -21z m-25 -10 c0
-5 -4 -10 -10 -10 -5 0 -10 5 -10 10 0 6 5 10 10 10 6 0 10 -4 10 -10z m90 0
c0 -5 -4 -10 -10 -10 -5 0 -10 5 -10 10 0 6 5 10 10 10 6 0 10 -4 10 -10z
m-100 -33 c0 -7 -7 -23 -16 -35 -12 -18 -13 -26 -4 -37 10 -12 9 -15 -9 -15
-24 0 -24 9 1 73 11 28 28 37 28 14z"/>
<path d="M449 2278 c-19 -15 -32 -48 -20 -48 15 0 7 -34 -10 -47 -26 -20 -50
-91 -43 -128 4 -23 0 -45 -16 -74 -23 -47 -20 -61 16 -61 24 0 32 14 14 25 -6
3 0 20 13 40 33 52 39 47 41 -35 1 -20 7 -26 29 -28 26 -3 37 11 17 23 -5 3
-10 23 -10 43 0 20 -9 51 -20 69 -22 36 -6 62 16 27 36 -54 42 -59 55 -47 10
10 9 15 -1 27 -7 9 -17 13 -23 9 -5 -3 -7 -1 -4 4 4 6 2 25 -5 43 -8 25 -8 38
1 51 12 21 15 62 4 73 -4 4 -8 15 -8 24 0 21 -26 26 -46 10z m49 -68 c0 -20
-4 -30 -14 -30 -8 0 -13 -4 -10 -9 3 -5 -1 -11 -9 -15 -18 -6 -45 2 -45 15 0
9 3 10 32 13 16 1 24 36 9 36 -6 0 -11 5 -11 10 0 6 11 10 23 10 20 0 24 -5
25 -30z m-48 -80 c13 -24 -11 -44 -42 -35 -22 6 -22 5 -3 -7 22 -13 23 -48 2
-48 -9 0 -9 -2 0 -8 9 -6 6 -17 -12 -44 -18 -26 -21 -38 -12 -47 8 -8 5 -11
-11 -11 -12 0 -22 2 -22 5 0 14 31 65 39 65 10 0 9 5 -3 56 -10 42 16 106 39
98 8 -4 20 -14 25 -24z m39 -10 c5 -16 8 -30 6 -30 -10 0 -35 33 -35 46 0 25
18 15 29 -16z m-36 -64 c6 -15 -1 -26 -15 -26 -4 0 -8 9 -8 20 0 23 15 27 23
6z m77 -6 c0 -5 -4 -10 -10 -10 -5 0 -10 5 -10 10 0 6 5 10 10 10 6 0 10 -4
10 -10z m-62 -55 c0 -20 6 -42 12 -50 10 -12 9 -15 -6 -15 -16 0 -19 8 -20 50
0 28 3 50 7 50 4 0 7 -16 7 -35z"/>
<path d="M1409 2278 c-19 -15 -32 -48 -20 -48 15 0 7 -34 -10 -47 -26 -20 -50
-91 -43 -128 4 -23 0 -45 -16 -74 -23 -47 -20 -61 16 -61 24 0 32 14 14 25 -6
3 0 20 13 40 33 52 39 47 41 -35 1 -20 7 -26 29 -28 26 -3 37 11 17 23 -5 3
-10 23 -10 43 0 20 -9 51 -19 68 -15 25 -17 35 -8 45 9 10 8 10 -6 0 -20 -16
-32 -9 -24 13 10 24 34 8 62 -40 14 -24 30 -44 35 -44 19 0 20 21 1 47 -24 34
-36 89 -22 98 12 7 15 58 4 69 -4 4 -8 15 -8 24 0 21 -26 26 -46 10z m49 -68
c0 -23 -4 -30 -18 -30 -13 0 -17 5 -13 20 3 11 0 20 -6 20 -6 0 -11 5 -11 10
0 6 11 10 23 10 20 0 24 -5 25 -30z m-14 -65 c9 -31 7 -47 -4 -40 -5 3 -7 12
-3 20 3 11 1 13 -10 9 -9 -3 -24 3 -36 15 -18 18 -19 21 -4 30 21 11 50 -5 57
-34z m-64 -15 c-9 -17 -30 -28 -30 -16 0 16 15 36 26 36 12 0 12 -4 4 -20z
m-33 -62 c-3 -8 -6 -5 -6 6 -1 11 2 17 5 13 3 -3 4 -12 1 -19z m63 -7 c7 -14
7 -22 -1 -26 -13 -8 -15 -6 -23 23 -9 27 9 30 24 3z m-30 -11 c0 -5 -6 -10
-12 -10 -10 0 -10 -2 -1 -8 9 -6 6 -17 -12 -44 -18 -26 -21 -38 -12 -47 8 -8
5 -11 -11 -11 -12 0 -22 2 -22 5 0 13 31 65 39 65 5 0 8 8 8 18 0 33 3 42 13
42 6 0 10 -4 10 -10z m110 0 c0 -5 -4 -10 -10 -10 -5 0 -10 5 -10 10 0 6 5 10
10 10 6 0 10 -4 10 -10z m-62 -55 c0 -20 6 -42 12 -50 10 -12 9 -15 -6 -15
-16 0 -19 8 -20 50 0 28 3 50 7 50 4 0 7 -16 7 -35z"/>
<path d="M119 1648 c-19 -15 -32 -48 -20 -48 15 0 7 -34 -11 -47 -20 -16 -40
-102 -32 -141 4 -19 -1 -43 -15 -71 -24 -47 -21 -61 15 -61 24 0 32 14 14 25
-6 3 0 20 13 40 33 52 39 47 41 -35 1 -20 7 -26 29 -28 27 -3 35 6 18 23 -8 9
-16 50 -22 115 -1 8 -6 20 -11 27 -15 19 0 35 23 23 13 -8 25 -7 40 0 25 14
19 36 -10 33 -25 -3 -39 23 -22 40 12 12 15 60 4 71 -4 4 -8 15 -8 24 0 21
-26 26 -46 10z m49 -68 c0 -23 -4 -30 -18 -30 -13 0 -17 5 -13 20 3 11 0 20
-6 20 -6 0 -11 5 -11 10 0 6 11 10 23 10 20 0 24 -5 25 -30z m-13 -68 c3 -14
4 -27 0 -30 -3 -3 -5 2 -5 11 0 10 -5 14 -14 11 -8 -3 -24 4 -35 15 -18 18
-19 21 -4 30 22 12 50 -6 58 -37z m-55 0 c0 -5 -7 -17 -15 -28 -14 -19 -14
-19 -15 2 0 11 3 24 7 27 9 10 23 9 23 -1z m24 -43 c-20 -22 -34 -17 -27 10 3
13 11 17 24 14 19 -5 19 -7 3 -24z m86 21 c0 -5 -4 -10 -10 -10 -5 0 -10 5
-10 10 0 6 5 10 10 10 6 0 10 -4 10 -10z m-110 -70 c0 -11 -6 -20 -12 -20 -10
0 -10 -2 -1 -8 9 -6 6 -17 -12 -44 -18 -26 -21 -38 -12 -47 8 -8 5 -11 -11
-11 -12 0 -22 2 -22 5 0 14 31 65 40 65 5 0 7 8 5 18 -19 90 -20 85 4 73 11
-7 21 -21 21 -31z m40 10 c0 -5 -6 -10 -12 -10 -10 0 -9 -3 1 -9 10 -6 10 -10
1 -16 -16 -10 -23 0 -15 24 6 21 25 29 25 11z m8 -75 c0 -20 6 -42 12 -50 10
-12 9 -15 -6 -15 -16 0 -19 8 -20 50 0 28 3 50 7 50 4 0 7 -16 7 -35z"/>
<path d="M440 1645 c-11 -13 -10 -14 6 -8 17 6 17 5 5 -10 -7 -9 -20 -17 -28
-17 -10 0 -12 -6 -8 -20 4 -11 2 -20 -4 -20 -33 0 -63 -121 -39 -160 8 -13 7
-30 -5 -66 -18 -55 -15 -64 19 -64 24 0 32 14 14 25 -5 3 -3 20 7 40 26 55 35
47 37 -35 1 -20 7 -26 29 -28 26 -3 37 11 17 23 -5 3 -10 22 -10 41 0 19 -7
48 -15 65 -19 36 -12 50 23 47 33 -4 38 25 5 30 -32 5 -39 39 -14 66 12 12 21
29 21 37 0 8 5 20 12 27 8 8 8 15 -2 27 -16 19 -54 19 -70 0z m48 -51 c4 -25
-22 -49 -44 -40 -13 5 -14 9 -5 20 7 8 11 18 10 22 -3 19 2 25 19 22 9 -2 18
-13 20 -24z m-51 -46 c6 -7 13 -26 17 -43 5 -22 4 -26 -3 -15 -8 12 -14 13
-29 3 -15 -9 -19 -8 -19 3 0 7 4 11 9 8 4 -3 8 2 8 11 0 8 -7 18 -15 21 -17 7
-10 24 9 24 8 0 18 -6 23 -12z m-39 -38 c-11 -18 -28 -27 -28 -16 0 16 14 36
26 36 12 0 12 -4 2 -20z m38 -29 c-4 -5 0 -11 6 -14 7 -2 9 -8 5 -13 -9 -10
-28 16 -21 28 3 4 7 8 10 8 3 0 3 -4 0 -9z m74 -11 c0 -5 -4 -10 -10 -10 -5 0
-10 5 -10 10 0 6 5 10 10 10 6 0 10 -4 10 -10z m-100 -11 c12 -8 9 -9 -10 -5
-25 6 -25 6 -2 -5 23 -13 31 -48 10 -50 -10 0 -10 -2 -1 -6 9 -3 8 -14 -7 -42
-14 -29 -16 -41 -7 -50 8 -8 5 -11 -12 -11 -18 0 -22 4 -16 18 4 9 10 27 12
40 3 12 9 25 14 28 5 3 2 18 -7 34 -9 15 -14 35 -11 44 7 19 16 20 37 5z m44
-60 c-11 -18 -24 -8 -24 19 1 26 1 26 15 8 8 -10 12 -23 9 -27z m14 -44 c0
-20 6 -42 12 -50 10 -12 9 -15 -6 -15 -16 0 -19 8 -20 50 0 28 3 50 7 50 4 0
7 -16 7 -35z"/>
<path d="M1100 1645 c-11 -13 -10 -14 6 -8 17 6 17 5 5 -10 -7 -9 -20 -17 -28
-17 -10 0 -12 -6 -8 -20 4 -14 2 -20 -8 -20 -27 0 -50 -39 -53 -91 -2 -48 -1
-52 31 -70 30 -18 34 -25 32 -59 -1 -38 15 -70 37 -70 7 0 11 26 11 76 0 69
-2 77 -23 88 l-24 13 25 16 c18 12 27 13 36 4 8 -8 14 -8 24 2 10 10 8 15 -7
26 -10 8 -24 16 -30 18 -7 3 -2 14 12 29 12 13 22 31 22 39 0 8 5 20 12 27 8
8 8 15 -2 27 -16 19 -54 19 -70 0z m48 -51 c4 -25 -22 -49 -44 -40 -13 5 -14
9 -5 20 7 8 11 18 10 22 -3 19 2 25 19 22 9 -2 18 -13 20 -24z m-50 -46 c17
-17 15 -26 -10 -39 -13 -6 -20 -8 -15 -4 4 5 0 19 -8 32 -14 21 -14 23 3 23
10 0 23 -5 30 -12z m-54 -22 c-21 -15 -30 -14 -19 3 3 6 14 11 23 11 13 0 13
-2 -4 -14z m34 -56 c3 -9 -3 -11 -24 -7 -23 5 -21 3 9 -10 43 -18 44 -40 1
-35 -39 4 -47 15 -39 50 5 26 9 30 28 23 11 -4 23 -14 25 -21z m32 20 c0 -5
-4 -10 -10 -10 -5 0 -10 5 -10 10 0 6 5 10 10 10 6 0 10 -4 10 -10z m50 0 c0
-5 -4 -10 -10 -10 -5 0 -10 5 -10 10 0 6 5 10 10 10 6 0 10 -4 10 -10z m-50
-110 c-6 -11 -8 -30 -5 -42 5 -14 3 -19 -6 -16 -8 3 -14 19 -14 40 0 26 4 34
14 30 9 -3 12 -1 7 6 -4 7 -4 18 1 25 13 20 16 -19 3 -43z m10 -80 c0 -5 -4
-10 -9 -10 -6 0 -13 5 -16 10 -3 6 1 10 9 10 9 0 16 -4 16 -10z"/>
<path d="M730 1635 c-11 -13 -10 -14 6 -8 17 6 17 5 5 -10 -7 -9 -20 -17 -28
-17 -10 0 -13 -6 -9 -15 3 -10 -7 -27 -27 -45 -30 -29 -31 -31 -14 -44 15 -11
17 -22 12 -46 -5 -23 -2 -36 10 -50 15 -17 15 -21 -5 -59 -23 -47 -20 -61 16
-61 25 0 30 9 15 25 -6 6 0 23 15 44 l23 34 10 -27 c6 -14 10 -36 8 -49 -2
-17 4 -23 26 -25 26 -3 37 11 18 22 -4 3 -11 26 -14 51 -3 29 -13 55 -27 70
-14 15 -20 30 -16 41 6 15 8 15 32 -1 20 -13 29 -14 38 -5 8 9 6 15 -8 24 -10
6 -28 18 -40 28 -20 15 -20 17 -3 35 9 11 17 26 17 34 0 8 5 20 12 27 8 8 8
15 -2 27 -16 19 -54 19 -70 0z m48 -51 c4 -25 -22 -49 -44 -40 -13 5 -14 9 -5
20 7 8 11 18 10 22 -3 19 2 25 19 22 9 -2 18 -13 20 -24z m-45 -48 c23 -18 22
-32 -4 -39 -12 -3 -18 -3 -15 0 3 4 -1 17 -9 30 -18 26 -2 32 28 9z m-49 -20
c-21 -15 -30 -14 -19 3 3 6 14 11 23 11 13 0 13 -2 -4 -14z m66 -36 c0 -5 -4
-10 -10 -10 -5 0 -10 5 -10 10 0 6 5 10 10 10 6 0 10 -4 10 -10z m-5 -37 c31
-34 37 -53 15 -53 -5 0 -12 11 -16 25 -3 14 -10 25 -14 25 -5 0 -17 3 -27 6
-15 5 -15 3 2 -7 30 -18 36 -33 18 -42 -25 -15 -46 15 -38 52 4 17 11 31 16
31 6 0 25 -17 44 -37z m75 27 c0 -5 -4 -10 -10 -10 -5 0 -10 5 -10 10 0 6 5
10 10 10 6 0 10 -4 10 -10z m-86 -92 c-4 -7 -15 -25 -25 -39 -14 -20 -15 -29
-7 -37 9 -9 7 -12 -10 -12 -26 0 -27 2 -6 43 21 41 34 57 46 57 5 0 6 -6 2
-12z m54 -28 c0 -17 6 -38 13 -46 9 -11 8 -14 -8 -14 -17 0 -20 6 -18 40 1 22
-2 40 -7 40 -5 0 -6 5 -3 10 11 17 22 2 23 -30z"/>
<path d="M1412 1478 c-17 -17 -15 -53 3 -68 13 -11 14 -10 8 6 -6 17 -5 17 10
5 9 -7 17 -20 17 -28 0 -10 6 -12 20 -8 14 4 20 2 20 -8 0 -44 114 -74 153
-39 21 18 31 10 32 -26 0 -22 5 -28 28 -30 26 -3 35 7 20 22 -4 4 -13 25 -19
47 -11 35 -10 40 3 35 18 -7 43 10 43 30 0 8 -12 12 -32 12 -18 0 -45 3 -60 7
-23 6 -29 3 -40 -20 l-12 -26 -17 23 c-13 17 -15 26 -7 36 8 9 8 16 -1 25 -10
9 -15 8 -26 -7 -8 -10 -16 -24 -18 -30 -3 -7 -14 -2 -29 12 -13 12 -32 22 -41
22 -9 0 -19 5 -22 10 -8 13 -18 13 -33 -2z m168 -18 c0 -5 -4 -10 -10 -10 -5
0 -10 5 -10 10 0 6 5 10 10 10 6 0 10 -4 10 -10z m-80 -15 c17 -21 5 -51 -15
-35 -8 6 -19 9 -24 6 -13 -8 -24 11 -17 29 7 19 40 19 56 0z m213 -27 c16 -1
26 -6 24 -12 -2 -6 -17 -10 -32 -8 -22 3 -26 0 -21 -13 3 -9 9 -29 12 -43 4
-15 11 -33 17 -39 7 -10 4 -13 -11 -13 -14 0 -20 7 -21 23 -2 46 -5 65 -12 61
-4 -2 -9 3 -13 11 -3 9 0 15 10 15 8 0 13 4 9 10 -3 5 -12 7 -19 4 -8 -3 -17
0 -21 7 -6 9 -1 10 21 4 16 -4 42 -7 57 -7z m-162 -20 c6 -13 8 -20 4 -15 -5
4 -19 0 -32 -8 -21 -14 -23 -14 -23 3 0 18 18 42 32 42 4 0 13 -10 19 -22z
m29 12 c0 -5 -4 -10 -10 -10 -5 0 -10 5 -10 10 0 6 5 10 10 10 6 0 10 -4 10
-10z m60 -4 c0 -3 -4 -8 -10 -11 -5 -3 -10 -1 -10 4 0 6 5 11 10 11 6 0 10 -2
10 -4z m-44 -43 c-5 -26 -5 -26 6 -6 13 27 39 38 49 21 5 -8 1 -20 -11 -32
-15 -15 -25 -17 -48 -10 -26 8 -29 12 -21 32 12 32 32 28 25 -5z m-51 -31 c-8
-8 -25 10 -25 26 0 13 2 13 14 -4 8 -10 13 -21 11 -22z"/>
<path d="M2035 1370 c-3 -5 -12 -7 -20 -4 -20 8 -29 -19 -16 -44 10 -19 51
-37 51 -23 0 11 36 6 52 -7 17 -14 128 -13 145 1 8 6 33 5 70 -1 67 -11 73
-10 73 24 0 26 -9 31 -28 12 -9 -9 -20 -8 -49 4 -43 18 -180 41 -193 33 -5 -3
-11 -1 -15 5 -8 13 -62 13 -70 0z m65 -20 c0 -13 -5 -17 -20 -13 -11 3 -20 0
-20 -6 0 -6 -4 -11 -10 -11 -5 0 -10 11 -10 23 0 20 5 24 30 25 23 0 30 -4 30
-18z m50 -4 c0 -8 -7 -17 -16 -20 -9 -4 -14 -13 -10 -21 6 -18 -5 -20 -21 -4
-9 9 -8 18 4 35 17 26 43 32 43 10z m60 -11 c0 -10 -10 -15 -30 -15 -22 0 -28
4 -24 15 4 8 17 15 30 15 15 0 24 -6 24 -15z m61 -7 c0 -10 2 -10 6 -1 3 10
12 9 36 -3 24 -13 35 -14 49 -5 15 9 18 8 18 -9 0 -17 -5 -19 -32 -14 -18 3
-40 8 -48 11 -8 4 -20 5 -27 4 -6 -1 -14 3 -18 9 -3 5 -12 10 -18 10 -7 0 -6
-4 3 -10 8 -5 11 -12 7 -17 -8 -7 -27 14 -27 30 0 13 50 8 51 -5z m-100 -18
c5 0 9 -5 9 -11 0 -15 -43 -7 -48 10 -3 10 0 12 12 8 10 -4 22 -7 27 -7z"/>
<path d="M25 1041 c-3 -5 3 -24 14 -43 26 -46 24 -255 -2 -306 -21 -38 -16
-52 19 -52 24 0 32 14 14 25 -6 3 0 20 13 40 33 52 39 47 41 -35 1 -20 7 -26
29 -28 26 -3 37 11 17 23 -5 3 -10 23 -10 43 0 20 -8 51 -18 67 -22 37 -18 78
7 70 21 -7 56 18 47 33 -10 17 -22 15 -42 -5 -15 -16 -17 -16 -12 -2 4 9 2 21
-4 27 -6 6 -6 12 1 16 14 9 15 63 1 71 -5 3 -7 12 -4 20 8 20 -20 29 -45 16
-17 -9 -22 -8 -31 9 -11 21 -25 26 -35 11z m25 -11 c0 -5 -4 -10 -10 -10 -5 0
-10 5 -10 10 0 6 5 10 10 10 6 0 10 -4 10 -10z m88 -80 c0 -23 -4 -30 -18 -30
-13 0 -17 5 -13 20 3 11 0 20 -6 20 -6 0 -11 -15 -11 -34 0 -19 -5 -37 -10
-39 -6 -3 -5 -4 2 -3 14 3 38 -37 38 -61 0 -11 -7 -14 -27 -9 -26 6 -26 5 -8
-6 22 -13 23 -48 2 -48 -9 0 -9 -2 0 -8 9 -6 6 -17 -12 -44 -18 -26 -21 -38
-12 -47 8 -8 5 -11 -11 -11 -12 0 -22 2 -22 5 0 14 31 65 40 65 5 0 6 12 2 28
-3 15 -5 66 -4 114 1 93 11 117 48 118 17 0 21 -6 22 -30z m-8 -71 c0 -10 -4
-19 -10 -19 -5 0 -10 4 -10 9 0 5 -3 17 -6 25 -5 12 -2 15 10 10 9 -3 16 -15
16 -25z m3 -103 c6 -15 -1 -26 -15 -26 -4 0 -8 9 -8 20 0 23 15 27 23 6z m15
-61 c0 -20 6 -42 12 -50 10 -12 9 -15 -6 -15 -16 0 -19 8 -20 50 0 28 3 50 7
50 4 0 7 -16 7 -35z"/>
<path d="M1369 1018 c-18 -15 -32 -48 -20 -48 11 0 7 -36 -7 -52 -7 -9 -9 -44
-7 -97 3 -69 0 -91 -16 -123 -22 -44 -18 -58 17 -58 24 0 32 14 14 25 -6 3 0
20 13 40 33 52 39 47 41 -35 1 -20 7 -26 29 -28 26 -3 37 11 17 23 -5 3 -10
23 -10 43 0 20 -8 51 -18 67 -25 43 -17 82 19 101 35 17 33 40 -2 37 -13 -1
-19 0 -13 3 11 5 10 29 -3 64 -4 8 -7 22 -7 30 -1 19 -27 24 -47 8z m49 -68
c0 -22 -4 -30 -16 -31 -10 0 -6 -5 11 -11 32 -12 34 -19 7 -36 -17 -10 -20
-10 -20 3 0 8 5 15 12 15 6 0 8 3 5 6 -4 4 -13 1 -21 -5 -22 -18 -62 4 -46 25
7 7 16 11 21 8 5 -3 12 3 16 12 4 10 2 19 -5 22 -21 7 -13 22 11 22 20 0 24
-5 25 -30z m-18 -116 c0 -23 -3 -25 -27 -20 -26 6 -26 5 -8 -6 22 -13 23 -48
2 -48 -9 0 -9 -2 0 -8 9 -6 6 -17 -12 -44 -18 -26 -21 -38 -12 -47 8 -8 5 -11
-11 -11 -12 0 -22 2 -22 5 0 14 31 65 40 65 5 0 6 10 4 23 -3 12 -7 50 -9 84
l-2 62 28 -15 c21 -10 29 -22 29 -40z m13 -58 c6 -15 -1 -26 -15 -26 -4 0 -8
9 -8 20 0 23 15 27 23 6z m15 -61 c0 -20 6 -42 12 -50 10 -12 9 -15 -6 -15
-16 0 -19 8 -20 50 0 28 3 50 7 50 4 0 7 -16 7 -35z"/>
<path d="M2079 1018 c-18 -15 -32 -48 -21 -48 4 0 8 -9 8 -20 0 -15 -15 -26
-61 -44 -57 -23 -84 -55 -40 -48 11 2 33 5 50 5 l30 2 1 -65 c1 -46 -4 -76
-18 -103 -21 -43 -17 -57 18 -57 24 0 32 14 14 25 -6 3 0 20 13 40 33 52 39
47 41 -35 1 -20 7 -26 29 -28 26 -3 37 11 17 23 -5 3 -10 23 -10 43 0 20 -8
51 -18 67 -22 37 -18 78 7 70 21 -7 56 18 47 33 -10 17 -22 15 -42 -5 -15 -16
-17 -16 -12 -2 4 9 2 21 -4 27 -6 6 -6 12 1 16 12 8 15 59 4 70 -4 4 -8 15 -8
24 0 21 -26 26 -46 10z m49 -68 c0 -23 -4 -30 -18 -30 -13 0 -17 5 -13 20 3
11 0 20 -6 20 -6 0 -11 5 -11 10 0 6 11 10 23 10 20 0 24 -5 25 -30z m-27 -40
c25 -14 25 -40 -1 -40 -11 0 -20 6 -20 14 0 8 -5 18 -12 22 -6 4 -8 3 -5 -3 9
-15 -24 -26 -36 -14 -7 7 -2 14 14 20 32 13 37 13 60 1z m-131 -40 c0 -5 -4
-10 -10 -10 -5 0 -10 5 -10 10 0 6 5 10 10 10 6 0 10 -4 10 -10z m123 -6 c10
-4 17 -17 17 -31 0 -22 -3 -24 -27 -19 -26 6 -26 5 -8 -6 22 -13 23 -48 2 -48
-9 0 -9 -2 0 -8 9 -6 6 -17 -12 -44 -18 -26 -21 -38 -12 -47 8 -8 5 -11 -11
-11 -12 0 -22 2 -22 5 0 14 31 65 40 65 5 0 6 10 4 23 -11 45 -11 138 0 132 6
-3 19 -8 29 -11z m87 6 c0 -5 -4 -10 -10 -10 -5 0 -10 5 -10 10 0 6 5 10 10
10 6 0 10 -4 10 -10z m-57 -94 c6 -15 -1 -26 -15 -26 -4 0 -8 9 -8 20 0 23 15
27 23 6z m15 -61 c0 -20 6 -42 12 -50 10 -12 9 -15 -6 -15 -16 0 -19 8 -20 50
0 28 3 50 7 50 4 0 7 -16 7 -35z"/>
<path d="M2329 1018 c-18 -15 -32 -48 -21 -48 4 0 8 -9 8 -20 0 -11 -5 -20
-11 -20 -6 0 -20 -7 -31 -15 -19 -15 -19 -15 1 -30 28 -22 30 -135 4 -188 -22
-43 -18 -57 17 -57 24 0 32 14 14 25 -6 3 0 20 13 40 33 52 39 47 41 -35 1
-20 7 -26 29 -28 26 -3 37 11 17 23 -5 3 -10 23 -10 43 0 20 -8 51 -18 67 -22
37 -18 78 7 70 21 -7 56 18 47 33 -10 17 -22 15 -42 -5 -17 -17 -17 -17 -11
-1 3 10 2 20 -3 23 -6 4 -10 -1 -10 -9 0 -18 -8 -20 -30 -6 -15 10 -10 20 12
24 26 4 38 18 38 45 0 15 -3 31 -7 35 -4 4 -8 15 -8 24 0 21 -26 26 -46 10z
m49 -68 c0 -19 -4 -30 -13 -30 -7 0 -22 -3 -32 -6 -17 -5 -17 -5 0 6 18 12 24
40 7 40 -5 0 -10 5 -10 10 0 6 11 10 23 10 20 0 24 -5 25 -30z m-81 -47 c-9
-9 -20 -13 -24 -9 -4 4 -1 11 7 16 25 16 35 11 17 -7z m46 -39 c10 -4 17 -17
17 -31 0 -22 -3 -24 -27 -19 -26 6 -26 5 -8 -6 22 -13 23 -48 2 -48 -9 0 -9
-2 0 -8 9 -6 6 -17 -12 -44 -18 -26 -21 -38 -12 -47 8 -8 5 -11 -11 -11 -12 0
-22 2 -22 5 0 14 31 65 40 65 5 0 6 10 4 23 -11 45 -11 138 0 132 6 -3 19 -8
29 -11z m87 6 c0 -5 -4 -10 -10 -10 -5 0 -10 5 -10 10 0 6 5 10 10 10 6 0 10
-4 10 -10z m-57 -94 c6 -15 -1 -26 -15 -26 -4 0 -8 9 -8 20 0 23 15 27 23 6z
m15 -61 c0 -20 6 -42 12 -50 10 -12 9 -15 -6 -15 -16 0 -19 8 -20 50 0 28 3
50 7 50 4 0 7 -16 7 -35z"/>
<path d="M2949 1008 c-19 -15 -32 -48 -20 -48 18 0 5 -35 -22 -59 -23 -21 -36
-25 -73 -23 -41 4 -44 6 -44 32 0 16 -4 31 -10 35 -5 3 -7 12 -4 20 8 20 -19
29 -44 16 -20 -10 -37 -51 -22 -51 13 0 6 -34 -8 -44 -18 -10 -51 -85 -52
-112 0 -12 -14 -40 -31 -63 -24 -34 -28 -45 -18 -57 17 -21 42 -18 36 5 -3 13
6 30 28 51 40 39 62 33 39 -11 -12 -24 -13 -34 -3 -45 19 -23 42 -18 36 8 -4
14 0 29 10 40 15 17 15 21 -1 54 -15 32 -15 39 -2 59 16 24 73 40 106 30 10
-3 21 -1 25 5 4 7 12 7 26 -1 16 -8 19 -17 14 -40 -5 -21 -2 -36 10 -49 15
-17 15 -21 -5 -59 -23 -47 -20 -61 16 -61 25 0 30 9 15 25 -6 6 0 23 15 44
l23 34 10 -27 c6 -14 10 -36 8 -49 -2 -17 4 -23 26 -25 26 -3 37 11 18 22 -4
3 -11 26 -14 51 -3 28 -13 55 -26 69 -11 12 -21 32 -21 44 0 20 3 21 21 11 30
-15 41 0 37 52 -2 35 -7 44 -20 43 -11 -1 -18 5 -18 15 0 10 -3 21 -7 25 -4 4
-8 15 -8 24 0 21 -26 26 -46 10z m49 -68 c0 -23 -4 -30 -18 -30 -13 0 -17 5
-13 20 3 11 0 20 -6 20 -6 0 -11 5 -11 10 0 6 11 10 23 10 20 0 24 -5 25 -30z
m-220 -29 c0 -21 -6 -31 -24 -40 -13 -6 -24 -15 -24 -21 0 -7 -7 -7 -21 1 -23
12 -15 28 17 33 20 3 33 36 15 36 -6 0 -11 5 -11 10 0 6 11 10 23 10 19 0 24
-5 25 -29z m262 10 c0 -5 -4 -11 -10 -13 -5 -1 -11 -13 -13 -25 -2 -12 -7 -26
-12 -30 -4 -5 -5 2 -2 15 3 12 1 22 -6 22 -6 0 -2 9 9 19 21 22 34 26 34 12z
m-69 -21 c26 -15 24 -37 -5 -42 -18 -4 -22 -1 -19 13 3 9 -1 20 -8 24 -7 5
-10 4 -6 -1 3 -5 -6 -14 -19 -21 -30 -14 -31 1 -2 21 26 19 33 19 59 6z m-171
-39 c0 -9 -52 -22 -60 -15 -7 7 23 24 43 24 9 0 17 -4 17 -9z m70 -1 c0 -5 -4
-10 -10 -10 -5 0 -10 5 -10 10 0 6 5 10 10 10 6 0 10 -4 10 -10z m-156 -21
c21 -10 23 -15 15 -31 -8 -15 -17 -18 -37 -14 -27 6 -27 6 -4 -7 l23 -13 -44
-50 c-24 -27 -42 -55 -40 -61 5 -15 -13 -17 -22 -3 -6 10 28 63 36 56 2 -2 10
2 17 10 7 8 9 14 3 14 -9 0 -7 20 11 78 11 37 9 36 42 21z m266 1 c0 -5 -4
-10 -10 -10 -5 0 -10 5 -10 10 0 6 5 10 10 10 6 0 10 -4 10 -10z m16 -49 c21
-25 23 -41 4 -41 -5 0 -12 11 -16 25 -3 14 -10 25 -14 25 -5 0 -17 3 -27 6
-15 5 -15 3 2 -7 30 -18 36 -33 18 -42 -25 -15 -46 15 -38 52 6 28 9 30 27 20
12 -6 31 -23 44 -38z m-260 -89 c-9 -11 -14 -26 -10 -36 3 -9 1 -16 -4 -16
-22 0 -23 22 -2 58 12 20 19 34 14 30 -4 -4 -13 -3 -21 3 -10 9 -11 15 -1 26
10 13 14 10 27 -16 13 -28 13 -33 -3 -49z m238 36 c-4 -7 -15 -25 -25 -39 -14
-20 -15 -29 -7 -37 9 -9 7 -12 -10 -12 -26 0 -27 2 -6 43 21 41 34 57 46 57 5
0 6 -6 2 -12z m54 -28 c0 -17 6 -38 13 -46 9 -11 8 -14 -8 -14 -17 0 -20 6
-18 40 1 22 -2 40 -7 40 -5 0 -6 5 -3 10 11 17 22 2 23 -30z"/>
<path d="M458 997 c-18 -14 -31 -47 -19 -47 13 0 8 -34 -6 -43 -19 -12 -45
-111 -37 -141 5 -20 -1 -35 -21 -62 -21 -28 -24 -38 -15 -49 18 -22 43 -19 37
4 -3 12 4 28 19 42 13 12 24 29 24 38 0 11 3 12 11 4 7 -7 8 -22 0 -48 -12
-45 -8 -55 25 -55 25 0 31 9 14 26 -7 7 -7 20 1 41 8 25 7 38 -6 63 -19 37
-13 60 26 105 26 29 30 41 27 82 -3 45 -5 48 -34 50 -17 1 -38 -3 -46 -10z
m72 -6 c0 -5 -7 -11 -14 -14 -10 -4 -13 -1 -9 9 6 15 23 19 23 5z m-23 -51
c-4 -27 -48 -72 -64 -66 -7 3 -13 3 -13 0 0 -2 11 -9 25 -14 22 -9 24 -12 13
-35 -9 -21 -17 -25 -37 -21 -25 6 -25 5 -6 -6 20 -13 23 -48 5 -48 -5 0 -7 -6
-4 -13 2 -7 -6 -23 -20 -36 -14 -14 -22 -29 -19 -38 4 -10 1 -14 -7 -11 -23 7
-21 22 8 54 23 26 27 35 19 57 -9 29 16 136 33 138 6 1 16 2 22 3 16 1 24 36
9 36 -6 0 -11 5 -11 10 0 6 11 10 25 10 19 0 24 -5 22 -20z m13 -38 c0 -14
-39 -46 -47 -39 -3 4 2 16 12 27 19 21 35 26 35 12z m-39 -194 c-8 -22 -8 -35
0 -44 9 -11 7 -14 -10 -14 -18 0 -20 4 -15 28 4 15 10 31 15 36 5 6 2 17 -7
27 -10 11 -14 25 -9 36 6 16 8 14 21 -10 12 -22 13 -35 5 -59z"/>
<path d="M799 988 c-19 -15 -32 -48 -20 -48 14 0 7 -33 -10 -51 -9 -9 -24 -47
-32 -83 -9 -38 -27 -82 -42 -102 -22 -28 -24 -38 -15 -49 18 -22 43 -19 37 4
-3 13 6 30 28 51 40 39 62 33 39 -11 -12 -24 -13 -34 -3 -45 19 -23 42 -18 36
8 -4 14 0 29 10 40 15 17 15 21 -1 57 -22 47 -11 74 37 95 18 7 43 25 56 40
20 21 22 29 12 39 -10 9 -16 6 -33 -15 -25 -36 -38 -35 -38 0 0 16 -3 32 -7
36 -4 4 -8 15 -8 24 0 21 -26 26 -46 10z m49 -66 c0 -21 -7 -32 -30 -45 -16
-9 -34 -15 -39 -11 -5 3 -9 3 -9 -1 0 -3 11 -10 25 -15 22 -9 24 -12 13 -35
-9 -21 -17 -25 -37 -21 l-26 6 23 -13 23 -13 -44 -50 c-24 -27 -42 -55 -40
-61 5 -15 -13 -17 -22 -3 -3 6 3 22 14 36 12 15 21 24 21 20 0 -4 6 -1 14 6 8
7 10 15 6 18 -8 5 21 134 32 146 3 3 14 7 25 8 19 3 32 36 14 36 -6 0 -11 5
-11 10 0 6 11 10 23 10 19 0 24 -6 25 -28z m82 -2 c0 -5 -4 -10 -10 -10 -5 0
-10 5 -10 10 0 6 5 10 10 10 6 0 10 -4 10 -10z m-55 -49 c-15 -15 -65 -25 -65
-13 0 13 17 20 50 21 15 1 20 -3 15 -8z m-59 -169 c-9 -11 -14 -26 -10 -36 3
-9 1 -16 -4 -16 -22 0 -23 22 -2 58 12 20 19 34 14 30 -4 -4 -13 -3 -21 3 -10
9 -11 15 -1 26 10 13 14 10 27 -16 13 -28 13 -33 -3 -49z"/>
<path d="M1129 978 c-19 -15 -32 -48 -20 -48 14 0 8 -34 -7 -44 -18 -10 -51
-85 -52 -112 0 -12 -14 -40 -31 -63 -24 -34 -28 -45 -18 -57 17 -21 42 -18 36
5 -3 13 6 30 28 51 40 39 62 33 39 -11 -12 -24 -13 -34 -3 -45 19 -23 42 -18
36 8 -4 14 0 29 10 40 15 17 15 21 0 53 -16 33 -14 65 3 65 5 0 22 -17 39 -37
24 -29 33 -35 43 -25 9 9 7 17 -8 34 -35 40 -54 77 -44 83 12 7 13 58 3 69 -4
4 -8 15 -8 24 0 21 -26 26 -46 10z m49 -67 c0 -21 -6 -31 -24 -40 -13 -6 -24
-15 -24 -21 0 -7 -7 -7 -21 1 -23 12 -15 28 17 33 20 3 33 36 15 36 -6 0 -11
5 -11 10 0 6 11 10 23 10 19 0 24 -5 25 -29z m1 -70 c6 -10 7 -21 4 -25 -7 -7
-43 23 -43 36 0 16 29 8 39 -11z m-65 -2 c21 -10 23 -15 15 -31 -8 -15 -17
-18 -37 -14 -27 6 -27 6 -4 -7 l23 -13 -44 -50 c-24 -27 -42 -55 -40 -61 5
-15 -13 -17 -22 -3 -6 10 28 63 36 56 2 -2 10 2 17 10 7 8 9 14 3 14 -9 0 -7
20 11 78 11 37 9 36 42 21z m22 -137 c-9 -11 -14 -26 -10 -36 3 -9 1 -16 -4
-16 -22 0 -23 22 -2 58 12 20 19 34 14 30 -4 -4 -13 -3 -21 3 -10 9 -11 15 -1
26 10 13 14 10 27 -16 13 -28 13 -33 -3 -49z m94 68 c0 -5 -4 -10 -10 -10 -5
0 -10 5 -10 10 0 6 5 10 10 10 6 0 10 -4 10 -10z"/>
<path d="M1769 978 c-19 -15 -32 -48 -20 -48 14 0 8 -34 -7 -44 -18 -10 -51
-85 -52 -112 0 -12 -14 -40 -31 -63 -24 -34 -28 -45 -18 -57 17 -21 42 -18 36
5 -3 13 6 30 28 51 40 39 62 33 39 -11 -12 -24 -13 -34 -3 -45 19 -23 42 -18
36 8 -4 14 0 29 10 40 15 17 15 21 -1 54 -15 33 -15 39 -2 59 15 23 66 38 111
32 12 -1 20 4 20 13 0 10 -13 16 -42 18 -40 3 -43 5 -43 31 0 15 -3 31 -7 35
-4 4 -8 15 -8 24 0 21 -26 26 -46 10z m49 -67 c0 -21 -6 -31 -24 -40 -13 -6
-24 -15 -24 -21 0 -7 -7 -7 -21 1 -23 12 -15 28 17 33 20 3 33 36 15 36 -6 0
-11 5 -11 10 0 6 11 10 23 10 19 0 24 -5 25 -29z m22 -50 c0 -9 -52 -22 -60
-15 -7 7 23 24 43 24 9 0 17 -4 17 -9z m70 -1 c0 -5 -4 -10 -10 -10 -5 0 -10
5 -10 10 0 6 5 10 10 10 6 0 10 -4 10 -10z m-156 -21 c21 -10 23 -15 15 -31
-8 -15 -17 -18 -37 -14 -27 6 -27 6 -4 -7 l23 -13 -44 -50 c-24 -27 -42 -55
-40 -61 5 -15 -13 -17 -22 -3 -6 10 28 63 36 56 2 -2 10 2 17 10 7 8 9 14 3
14 -9 0 -7 20 11 78 11 37 9 36 42 21z m22 -137 c-9 -11 -14 -26 -10 -36 3 -9
1 -16 -4 -16 -22 0 -23 22 -2 58 12 20 19 34 14 30 -4 -4 -13 -3 -21 3 -10 9
-11 15 -1 26 10 13 14 10 27 -16 13 -28 13 -33 -3 -49z"/>
<path d="M25 411 c-3 -5 4 -24 14 -43 17 -28 19 -47 16 -125 -2 -56 0 -95 7
-99 5 -3 8 -32 7 -63 -4 -60 3 -81 27 -81 12 0 14 7 10 28 -8 36 7 87 25 87 8
0 14 5 14 12 0 6 4 15 9 20 5 5 5 -4 1 -22 -5 -16 -9 -43 -8 -58 0 -16 -4 -26
-11 -24 -6 2 -10 19 -9 38 l2 34 -9 -29 c-6 -20 -6 -34 2 -43 19 -24 37 -15
36 19 0 18 3 45 7 60 6 23 3 29 -17 39 -19 8 -24 17 -20 35 3 18 9 23 21 19
22 -7 56 18 47 33 -10 17 -22 15 -42 -5 -15 -16 -17 -16 -12 -2 4 9 2 21 -4
27 -6 6 -6 12 1 16 14 9 15 63 1 71 -5 3 -7 12 -4 20 8 20 -20 29 -45 16 -17
-9 -22 -8 -31 9 -11 21 -25 26 -35 11z m25 -11 c0 -5 -4 -10 -10 -10 -5 0 -10
5 -10 10 0 6 5 10 10 10 6 0 10 -4 10 -10z m88 -80 c0 -23 -4 -30 -18 -30 -13
0 -17 5 -13 20 3 11 0 20 -6 20 -6 0 -11 -15 -11 -34 0 -19 -5 -37 -10 -39 -6
-3 -5 -4 2 -3 14 3 38 -37 38 -61 0 -11 -7 -14 -27 -10 -21 4 -18 2 10 -10 41
-17 45 -40 6 -35 -47 5 -48 6 -43 97 5 90 15 114 50 115 17 0 21 -6 22 -30z
m-8 -71 c0 -10 -4 -19 -10 -19 -5 0 -10 4 -10 9 0 5 -3 17 -6 25 -5 12 -2 15
10 10 9 -3 16 -15 16 -25z m-25 -127 c-6 -4 -11 -31 -10 -60 0 -30 -4 -51 -10
-48 -5 2 -9 12 -7 22 1 10 3 36 4 57 1 26 6 37 17 37 10 0 12 -3 6 -8z"/>
<path d="M1369 388 c-18 -15 -32 -48 -20 -48 11 0 7 -36 -6 -52 -12 -15 -12
-127 0 -146 5 -7 7 -36 6 -65 -4 -56 4 -77 27 -77 12 0 14 7 10 27 -8 37 7 88
25 88 8 0 14 5 14 12 0 6 4 15 9 20 5 5 5 -4 1 -22 -5 -16 -9 -43 -8 -58 0
-16 -4 -26 -11 -24 -6 2 -10 19 -9 38 l2 34 -9 -29 c-6 -20 -6 -34 2 -43 19
-24 37 -15 36 19 0 18 3 45 7 60 6 23 3 29 -17 38 -35 16 -27 65 14 86 34 18
32 40 -3 37 -13 -1 -19 0 -13 3 11 5 10 29 -3 64 -4 8 -7 22 -7 30 -1 19 -27
24 -47 8z m49 -68 c0 -22 -4 -30 -16 -31 -10 0 -6 -5 11 -11 32 -12 34 -19 7
-36 -17 -10 -20 -10 -20 3 0 8 5 15 12 15 6 0 8 3 5 6 -4 4 -13 1 -21 -5 -22
-18 -62 4 -46 25 7 7 16 11 21 8 5 -3 12 3 16 12 4 10 2 19 -5 22 -21 7 -13
22 11 22 20 0 24 -5 25 -30z m-18 -116 c0 -23 -3 -26 -27 -21 -21 4 -18 2 10
-10 54 -23 48 -49 -9 -34 -28 7 -29 10 -30 64 l0 56 28 -15 c20 -10 28 -22 28
-40z m-15 -82 c-6 -4 -11 -31 -10 -60 0 -30 -4 -51 -10 -48 -5 2 -9 12 -7 22
1 10 3 36 4 57 1 26 6 37 17 37 10 0 12 -3 6 -8z"/>
<path d="M2059 388 c-18 -15 -32 -48 -21 -48 4 0 8 -9 8 -20 0 -15 -15 -26
-61 -44 -57 -23 -84 -55 -40 -48 11 2 34 5 50 5 29 2 30 1 28 -37 -2 -22 2
-45 8 -52 6 -7 9 -37 8 -66 -4 -57 3 -78 27 -78 12 0 14 7 10 27 -8 37 7 88
25 88 8 0 14 5 14 12 0 6 4 15 9 20 5 5 5 -4 1 -22 -5 -16 -9 -43 -8 -58 0
-16 -4 -26 -11 -24 -6 2 -10 19 -9 38 l2 34 -9 -29 c-6 -20 -6 -34 2 -43 19
-24 37 -15 36 19 0 18 3 45 7 60 6 23 3 29 -17 39 -19 8 -24 17 -20 35 3 18 9
23 21 19 22 -7 56 18 47 33 -10 17 -22 15 -42 -5 -15 -16 -17 -16 -12 -2 4 9
2 21 -4 27 -6 6 -6 12 1 16 12 8 15 59 4 70 -4 4 -8 15 -8 24 0 21 -26 26 -46
10z m49 -68 c0 -23 -4 -30 -18 -30 -13 0 -17 5 -13 20 3 11 0 20 -6 20 -6 0
-11 5 -11 10 0 6 11 10 23 10 20 0 24 -5 25 -30z m-27 -40 c25 -14 25 -40 -1
-40 -11 0 -20 6 -20 14 0 8 -5 18 -12 22 -6 4 -8 3 -5 -3 9 -15 -24 -26 -36
-14 -7 7 -2 14 14 20 32 13 37 13 60 1z m-131 -40 c0 -5 -4 -10 -10 -10 -5 0
-10 5 -10 10 0 6 5 10 10 10 6 0 10 -4 10 -10z m123 -6 c10 -4 17 -17 17 -31
0 -22 -3 -24 -27 -20 -21 4 -18 2 10 -10 54 -23 48 -49 -9 -34 -27 7 -29 11
-29 59 0 32 4 50 10 47 5 -3 18 -8 28 -11z m87 6 c0 -5 -4 -10 -10 -10 -5 0
-10 5 -10 10 0 6 5 10 10 10 6 0 10 -4 10 -10z m-85 -118 c-6 -4 -11 -31 -10
-60 0 -30 -4 -51 -10 -48 -5 2 -9 12 -7 22 1 10 3 36 4 57 1 26 6 37 17 37 10
0 12 -3 6 -8z"/>
<path d="M2329 388 c-18 -15 -32 -48 -21 -48 4 0 8 -9 8 -20 0 -11 -5 -20 -11
-20 -6 0 -20 -6 -31 -14 -19 -14 -19 -15 4 -36 20 -18 22 -28 17 -60 -4 -24
-2 -41 5 -45 7 -5 11 -29 9 -64 -4 -60 3 -81 27 -81 12 0 14 7 10 27 -8 37 7
88 25 88 8 0 14 5 14 12 0 6 4 15 9 20 5 5 5 -4 1 -22 -5 -16 -9 -43 -8 -58 0
-16 -4 -26 -11 -24 -6 2 -10 19 -9 38 l2 34 -9 -29 c-6 -20 -6 -34 2 -43 19
-24 37 -15 36 19 0 18 3 45 7 60 6 23 3 29 -17 39 -19 8 -24 17 -20 35 3 18 9
23 21 19 22 -7 56 18 47 33 -10 17 -22 15 -42 -5 -17 -17 -17 -17 -11 -1 3 10
2 20 -3 23 -6 4 -10 -1 -10 -9 0 -18 -8 -20 -30 -6 -15 10 -10 20 12 24 26 4
38 18 38 45 0 15 -3 31 -7 35 -4 4 -8 15 -8 24 0 21 -26 26 -46 10z m49 -68
c0 -19 -4 -30 -13 -30 -7 0 -22 -3 -32 -6 -17 -5 -17 -5 0 6 18 12 24 40 7 40
-5 0 -10 5 -10 10 0 6 11 10 23 10 20 0 24 -5 25 -30z m-81 -47 c-9 -9 -20
-13 -24 -9 -4 4 -1 11 7 16 25 16 35 11 17 -7z m46 -39 c10 -4 17 -17 17 -31
0 -22 -3 -24 -27 -20 -21 4 -18 2 10 -10 54 -23 48 -49 -9 -34 -27 7 -29 11
-29 59 0 32 4 50 10 47 5 -3 18 -8 28 -11z m87 6 c0 -5 -4 -10 -10 -10 -5 0
-10 5 -10 10 0 6 5 10 10 10 6 0 10 -4 10 -10z m-85 -118 c-6 -4 -11 -31 -10
-60 0 -30 -4 -51 -10 -48 -5 2 -9 12 -7 22 1 10 3 36 4 57 1 26 6 37 17 37 10
0 12 -3 6 -8z"/>
<path d="M2969 388 c-19 -15 -32 -48 -20 -48 18 0 5 -35 -24 -62 l-30 -28 23
-18 c18 -14 22 -24 17 -45 -5 -16 -2 -33 5 -42 7 -8 11 -36 9 -67 -4 -57 3
-78 27 -78 12 0 14 7 10 27 -8 37 7 88 25 88 8 0 14 5 14 12 0 6 4 15 9 20 5
5 5 -4 1 -22 -5 -16 -9 -43 -8 -58 0 -16 -4 -26 -11 -24 -6 2 -10 19 -9 38 l2
34 -9 -29 c-6 -20 -6 -34 2 -43 19 -24 37 -15 36 19 0 18 3 45 7 60 6 23 3 29
-17 38 -19 9 -23 17 -20 41 4 25 7 27 24 18 29 -15 40 1 36 52 -2 35 -7 44
-20 43 -11 -1 -18 5 -18 15 0 10 -3 21 -7 25 -4 4 -8 15 -8 24 0 21 -26 26
-46 10z m49 -68 c0 -23 -4 -30 -18 -30 -13 0 -17 5 -13 20 3 11 0 20 -6 20 -6
0 -11 5 -11 10 0 6 11 10 23 10 20 0 24 -5 25 -30z m42 -19 c0 -5 -4 -11 -10
-13 -5 -1 -11 -13 -13 -25 -2 -12 -7 -26 -12 -30 -4 -5 -5 2 -2 15 3 12 1 22
-6 22 -6 0 -2 9 9 19 21 22 34 26 34 12z m-69 -21 c26 -15 24 -37 -5 -42 -18
-4 -22 -1 -19 13 3 9 -1 20 -8 24 -7 5 -10 4 -6 -1 3 -5 -6 -14 -19 -21 -30
-14 -31 1 -2 21 26 19 33 19 59 6z m9 -60 c0 -5 -4 -10 -10 -10 -5 0 -10 5
-10 10 0 6 5 10 10 10 6 0 10 -4 10 -10z m0 -33 c0 -5 -12 -7 -27 -4 -21 4
-18 2 10 -10 43 -18 44 -40 1 -35 -39 4 -47 15 -39 50 6 29 8 30 31 20 13 -6
24 -15 24 -21z m-15 -65 c-6 -4 -11 -31 -10 -60 0 -30 -4 -51 -10 -48 -5 2 -9
12 -7 22 1 10 3 36 4 57 1 26 6 37 17 37 10 0 12 -3 6 -8z"/>
<path d="M438 377 c-18 -14 -31 -47 -19 -47 14 0 7 -33 -10 -51 -25 -25 -44
-116 -29 -134 7 -8 11 -36 9 -67 -4 -57 3 -78 27 -78 12 0 14 7 10 27 -8 37 7
88 25 88 8 0 14 5 14 12 0 6 4 15 9 20 5 5 5 -4 1 -22 -5 -16 -9 -43 -8 -58 0
-16 -4 -26 -11 -24 -6 2 -10 19 -9 38 l2 34 -9 -29 c-6 -20 -6 -34 2 -43 19
-24 37 -15 36 20 0 17 3 44 7 59 6 23 3 29 -18 39 -25 11 -26 13 -10 43 8 17
26 43 40 57 20 22 24 35 21 75 -3 46 -4 49 -34 51 -17 1 -38 -3 -46 -10z m72
-6 c0 -5 -7 -11 -14 -14 -10 -4 -13 -1 -9 9 6 15 23 19 23 5z m-23 -51 c-4
-27 -48 -72 -64 -66 -7 3 -13 3 -13 0 0 -2 11 -9 25 -14 22 -9 24 -12 13 -35
-9 -21 -17 -25 -37 -21 -16 3 -12 -1 12 -11 43 -18 44 -40 1 -35 -43 5 -48 15
-35 69 15 60 23 74 47 77 20 3 33 36 15 36 -6 0 -11 5 -11 10 0 6 11 10 25 10
19 0 24 -5 22 -20z m13 -38 c0 -14 -39 -46 -47 -39 -3 4 2 16 12 27 19 21 35
26 35 12z m-75 -160 c-6 -4 -11 -31 -10 -60 0 -30 -4 -51 -10 -48 -5 2 -9 12
-7 22 1 10 3 36 4 57 1 26 6 37 17 37 10 0 12 -3 6 -8z"/>
<path d="M759 378 c-19 -15 -32 -48 -20 -48 14 0 7 -33 -10 -51 -25 -25 -44
-116 -29 -134 7 -8 11 -36 9 -67 -4 -57 3 -78 27 -78 12 0 14 7 10 27 -8 37 7
88 25 88 8 0 14 5 14 12 0 6 4 15 9 20 5 5 5 -4 1 -22 -5 -16 -9 -43 -8 -58 0
-16 -4 -26 -11 -24 -6 2 -10 19 -9 38 l2 34 -9 -29 c-6 -20 -6 -34 2 -43 19
-24 37 -15 36 20 0 17 3 44 7 59 6 23 3 29 -18 39 -25 11 -25 13 -11 40 8 16
29 35 47 43 17 7 43 25 56 40 20 21 22 29 12 39 -10 9 -16 6 -33 -15 -25 -36
-38 -35 -38 0 0 16 -3 32 -7 36 -4 4 -8 15 -8 24 0 21 -26 26 -46 10z m49 -66
c0 -21 -7 -32 -30 -45 -16 -9 -34 -15 -39 -11 -5 3 -9 3 -9 -1 0 -3 11 -10 25
-15 22 -9 24 -12 13 -35 -9 -21 -17 -25 -37 -21 -16 3 -12 -1 12 -11 43 -18
44 -40 1 -35 -43 5 -48 15 -35 69 15 60 23 74 47 77 20 3 33 36 15 36 -6 0
-11 5 -11 10 0 6 11 10 23 10 19 0 24 -6 25 -28z m82 -2 c0 -5 -4 -10 -10 -10
-5 0 -10 5 -10 10 0 6 5 10 10 10 6 0 10 -4 10 -10z m-55 -49 c-15 -15 -65
-25 -65 -13 0 13 17 20 50 21 15 1 20 -3 15 -8z m-90 -139 c-6 -4 -11 -31 -10
-60 0 -30 -4 -51 -10 -48 -5 2 -9 12 -7 22 1 10 3 36 4 57 1 26 6 37 17 37 10
0 12 -3 6 -8z"/>
<path d="M1089 368 c-19 -15 -32 -48 -20 -48 15 0 7 -34 -11 -47 -9 -7 -24
-33 -34 -58 -14 -38 -15 -50 -4 -70 8 -14 11 -43 8 -74 -5 -50 4 -71 30 -71
10 0 12 8 8 28 -8 36 7 87 25 87 8 0 14 5 14 12 0 6 4 15 9 20 5 5 5 -4 1 -22
-5 -16 -9 -43 -8 -58 0 -16 -4 -26 -11 -24 -6 2 -10 19 -9 38 l2 34 -9 -29
c-6 -20 -6 -34 2 -43 19 -24 37 -15 36 20 0 17 3 44 7 59 6 22 3 29 -18 40
-24 12 -24 15 -10 33 14 19 15 19 49 -19 26 -30 37 -37 46 -28 9 9 7 17 -8 34
-35 40 -54 77 -44 83 12 7 13 58 3 69 -4 4 -8 15 -8 24 0 21 -26 26 -46 10z
m49 -67 c0 -21 -6 -31 -24 -40 -13 -6 -24 -15 -24 -21 0 -7 -7 -7 -21 1 -23
12 -15 28 17 33 20 3 33 36 15 36 -6 0 -11 5 -11 10 0 6 11 10 23 10 19 0 24
-5 25 -29z m1 -70 c6 -10 7 -21 4 -25 -7 -7 -43 23 -43 36 0 16 29 8 39 -11z
m-65 -2 c21 -10 23 -15 15 -31 -8 -15 -18 -18 -37 -14 -19 3 -15 0 11 -11 43
-18 44 -40 1 -35 -43 5 -49 16 -35 62 13 45 11 44 45 29z m116 -69 c0 -5 -4
-10 -10 -10 -5 0 -10 5 -10 10 0 6 5 10 10 10 6 0 10 -4 10 -10z m-125 -38
c-6 -4 -11 -31 -10 -60 0 -30 -4 -51 -10 -48 -5 2 -9 12 -7 22 1 10 3 36 4 57
1 26 6 37 17 37 10 0 12 -3 6 -8z"/>
<path d="M1729 368 c-19 -15 -32 -48 -20 -48 15 0 7 -34 -11 -47 -9 -7 -24
-33 -34 -58 -14 -38 -15 -50 -4 -70 8 -14 11 -43 8 -74 -5 -50 4 -71 30 -71
10 0 12 8 8 28 -8 36 7 87 25 87 8 0 14 5 14 12 0 6 4 15 9 20 5 5 5 -4 1 -22
-5 -16 -9 -43 -8 -58 0 -16 -4 -26 -11 -24 -6 2 -10 19 -9 38 l2 34 -9 -29
c-6 -20 -6 -34 2 -43 19 -24 37 -15 36 20 0 17 3 44 7 59 6 22 3 29 -19 40
l-26 13 23 29 c20 25 31 29 78 31 39 1 54 6 54 16 0 9 -14 15 -42 17 -40 3
-43 5 -43 31 0 15 -3 31 -7 35 -4 4 -8 15 -8 24 0 21 -26 26 -46 10z m49 -67
c0 -21 -6 -31 -24 -40 -13 -6 -24 -15 -24 -21 0 -7 -7 -7 -21 1 -23 12 -15 28
17 33 20 3 33 36 15 36 -6 0 -11 5 -11 10 0 6 11 10 23 10 19 0 24 -5 25 -29z
m22 -50 c0 -9 -52 -22 -60 -15 -7 7 23 24 43 24 9 0 17 -4 17 -9z m70 -1 c0
-5 -4 -10 -10 -10 -5 0 -10 5 -10 10 0 6 5 10 10 10 6 0 10 -4 10 -10z m-156
-21 c21 -10 23 -15 15 -31 -8 -15 -18 -18 -37 -14 -19 3 -15 0 11 -11 43 -18
44 -40 1 -35 -43 5 -49 16 -35 62 13 45 11 44 45 29z m-9 -107 c-6 -4 -11 -31
-10 -60 0 -30 -4 -51 -10 -48 -5 2 -9 12 -7 22 1 10 3 36 4 57 1 26 6 37 17
37 10 0 12 -3 6 -8z"/>
<path d="M2689 368 c-19 -15 -32 -48 -20 -48 15 0 7 -34 -11 -47 -9 -7 -24
-33 -34 -58 -14 -38 -15 -50 -4 -70 8 -14 11 -43 8 -74 -5 -50 4 -71 30 -71
10 0 12 8 8 28 -8 36 7 87 25 87 8 0 14 5 14 12 0 6 4 15 9 20 5 5 5 -4 1 -22
-5 -16 -9 -43 -8 -58 0 -16 -4 -26 -11 -24 -6 2 -10 19 -9 38 l2 34 -9 -29
c-6 -20 -6 -34 2 -43 19 -24 37 -15 36 20 0 17 3 44 7 59 6 22 3 29 -19 40
l-26 13 23 29 c20 25 31 29 78 31 39 1 54 6 54 16 0 9 -14 15 -42 17 -40 3
-43 5 -43 31 0 15 -3 31 -7 35 -4 4 -8 15 -8 24 0 21 -26 26 -46 10z m49 -67
c0 -21 -6 -31 -24 -40 -13 -6 -24 -15 -24 -21 0 -7 -7 -7 -21 1 -23 12 -15 28
17 33 20 3 33 36 15 36 -6 0 -11 5 -11 10 0 6 11 10 23 10 19 0 24 -5 25 -29z
m22 -50 c0 -9 -52 -22 -60 -15 -7 7 23 24 43 24 9 0 17 -4 17 -9z m70 -1 c0
-5 -4 -10 -10 -10 -5 0 -10 5 -10 10 0 6 5 10 10 10 6 0 10 -4 10 -10z m-156
-21 c21 -10 23 -15 15 -31 -8 -15 -18 -18 -37 -14 -19 3 -15 0 11 -11 43 -18
44 -40 1 -35 -43 5 -49 16 -35 62 13 45 11 44 45 29z m-9 -107 c-6 -4 -11 -31
-10 -60 0 -30 -4 -51 -10 -48 -5 2 -9 12 -7 22 1 10 3 36 4 57 1 26 6 37 17
37 10 0 12 -3 6 -8z"/>
</g>
</svg>
