<svg width="0" height="0" class="hidden">
  <symbol version="1.0" xmlns="http://www.w3.org/2000/svg" viewBox="0 0 320 256" id="goblin_centurion">
    <path d="M234.9 25.2c-1.9 1.5-3.2 4.8-2 4.8 1.3 0 .8 3.4-.7 4.3-1.9 1.3-4.4 6.6-3.6 7.9 1.7 2.7 1.3 11.2-.7 15-1.6 3.1-1.8 4.3-.8 5.4 1.8 2.2 4.2 1.8 3.6-.7-.4-1.4.3-3.5 1.9-5.8 1.3-1.9 2.4-4.1 2.4-4.8 0-.7.5-1.3 1.1-1.3.7 0 .9 1.1.6 2.9-.6 2.9.7 5.1 2.9 5.1.8 0 1.2-1.3 1.2-3.3 0-1.7.3-4.4.7-5.9.6-2.4.4-2.9-1.9-3.7-1.6-.7-2.4-1.6-2-2.5.3-.8 1.1-1.3 1.8-1 .6.2 2.5-.9 4.1-2.6 2.3-2.4 2.6-3.3 1.6-4.3-1-.9-1.6-.7-3.1 1.3-1.1 1.4-1.8 3.1-1.5 3.7.2.7 0 1.3-.6 1.3-1 0-.8-4.5.4-5.6.9-1 .9-5.9 0-6.8-.4-.4-.8-1.5-.8-2.4 0-2.1-2.6-2.6-4.6-1zm4.9 6.8c0 2.3-.4 3-1.8 3-1.3 0-1.7-.5-1.3-2 .3-1.1 0-2-.6-2s-1.1-.5-1.1-1c0-.6 1.1-1 2.3-1 2 0 2.4.5 2.5 3zm-1.8 6.2c0 2.4-2.5 2.3-5-.2-1.8-1.8-1.8-2-.3-2.9 2.1-1.1 5.3.7 5.3 3.1zm7-2.2c0 .5-.4 1-1 1-.5 0-1-.5-1-1 0-.6.5-1 1-1 .6 0 1 .4 1 1zm-12.9 3.4c-.9 1.1-.9 1.4.1 1.3 3-.1 4.8.4 4.8 1.2 0 .8-4 .8-6 .1-.3-.2-.8-.2-1.2-.1-1 .1-1-.3-.2-2.3.3-.9 1.3-1.6 2.1-1.6 1.2 0 1.3.3.4 1.4zM237 45c1.2 1.1 2.7 1.7 3.3 1.3.6-.4.7.4.2 2.3-.5 1.6-.9 4.2-.8 5.7 0 1.6-.4 2.6-1.1 2.4-.6-.2-1-1.8-.8-3.5.2-2.3-.2-3.4-1.7-4.2-1.7-.9-2.1-.8-2.1.5 0 .8-.6 1.5-1.2 1.5-1 0-1 .2-.1.8.9.6.6 1.7-1.2 4.4-1.4 2-2.2 4.4-1.9 5.2.3.9.1 1.6-.4 1.6-2.3 0-2.2-2.2 0-6.3 2-3.5 2.2-4.8 1.4-7.5-.7-2.4-.6-3.6.4-4.5.7-.7 1-.7.7-.1-.8 1.4 4 3.7 4.8 2.4.4-.6.2-1-.3-1-.6 0-1.2-.7-1.6-1.5-.7-2-.4-1.9 2.4.5z"></path>
    <path d="M237.6 47.9c-.4.5-.2 1.2.3 1.5.5.4 1.2.2 1.5-.3.4-.5.2-1.2-.3-1.5-.5-.4-1.2-.2-1.5.3zm30.3-21.7c-1.9 1.5-3.2 4.8-2 4.8 1.7 0 .6 3.5-1.8 5.6-3.6 3.1-3.9 11.3-.6 14.4 2.2 2.1 2.3 2.4.8 5.7-1.2 3.1-1.3 3.8 0 5 .9.9 2.3 1.2 4.1.7 2.2-.5 2.7-1.1 2.2-2.8-.3-1.1 0-3.6.6-5.3 1-2.9.9-3.5-.9-5.5l-2.2-2.3 2.3-2c1.3-1.2 2.7-2 3.2-1.8.6.2 1.9-.3 2.9-1.1 1.6-1.1 1.7-1.7.8-2.7-.9-.9-1.7-.8-3.7.5-1.5.9-2.6 1.4-2.6 1.1 0-.3-1 0-2.2.6-1.3.6-2 .8-1.5.4.4-.5 0-1.8-.8-3.1-1.1-1.7-1.1-2.3-.2-2.7 1.6-.6 4.7 1.6 4.7 3.2 0 .7.5.9 1 .6.6-.4.8-1 .5-1.5-.3-.5-.1-1.1.5-1.5 1.2-.7 1.4-5.8.3-6.9-.4-.4-.8-1.5-.8-2.4 0-2.1-2.6-2.6-4.6-1zm4.9 6.8c0 2.3-.4 3-1.8 3-1.3 0-1.7-.5-1.3-2 .3-1.1 0-2-.6-2s-1.1-.5-1.1-1c0-.6 1.1-1 2.3-1 2 0 2.4.5 2.5 3zm-8.1 6.7c-.9.9-1.9 1.4-2.3 1.1-1-1 .6-2.8 2.4-2.8 1.5 0 1.5.1-.1 1.7zm12.3.3c0 .5-.4 1-1 1-.5 0-1-.5-1-1 0-.6.5-1 1-1 .6 0 1 .4 1 1zm-9.2 5c.3.9-.3 1.1-2.4.6-2.6-.6-2.7-.5-.9.6 1.1.6 2.3 1.6 2.7 2.2.4.6.8.7.8.2 0-.5.7-.3 1.5.4s1.5 2 1.4 2.9c0 1-.4.7-1-.8-.9-2.3-1-2.3-2.4-.5-1.4 1.9-1.4 1.9-3.5-.2-1.7-1.7-2.1-2.8-1.5-5.2.5-2.6.9-3 2.8-2.3 1.1.4 2.3 1.4 2.5 2.1zm3.2-2c0 .5-.4 1-1 1-.5 0-1-.5-1-1 0-.6.5-1 1-1 .6 0 1 .4 1 1zm-1.6 13.3c.2 2.6 0 4.7-.4 4.7-1.6 0-2.1-1.9-1-3.9.5-1.1.6-2.2.2-2.5-.9-.5-1.2.9-1.3 5.1-.1 2.4-1.3 3-2.4 1.3-.6-1 3.2-10.6 4-9.9.2.3.6 2.6.9 5.2zm30.5-30.1c-1.9 1.5-3.2 4.8-2 4.8 1.7 0 .6 3.5-1.8 5.6-1.9 1.6-2.5 3.2-2.7 7-.1 2.7.3 5.4.8 6.1.5.7.8 3.6.7 6.5-.4 5.7.3 7.8 2.7 7.8 1.2 0 1.4-.7 1-2.8-.8-3.6.7-8.7 2.5-8.7.8 0 1.4-.5 1.4-1.2 0-.6.4-1.5.9-2s.5.4.1 2.2c-.5 1.6-.9 4.3-.8 5.8 0 1.6-.4 2.6-1.1 2.4-.6-.2-1-1.9-.9-3.8l.2-3.4-.9 2.9c-.6 2-.6 3.4.2 4.3 1.9 2.4 3.7 1.5 3.6-2 0-1.7.3-4.4.7-5.9.6-2.3.3-2.9-1.9-3.9l-2.6-1.2 2.3-2.2c1.2-1.1 2.7-2 3.2-1.8.6.2 1.9-.3 3-1.1 1.6-1.1 1.7-1.7.8-2.7-.9-.9-1.7-.8-3.7.5-1.5.9-2.6 1.4-2.6 1.1 0-.3-1 0-2.2.6-1.3.6-2 .8-1.5.4.4-.5 0-1.8-.8-3.1-1.1-1.7-1.1-2.3-.2-2.7 1.6-.6 4.7 1.6 4.7 3.2 0 .7.5.9 1 .6.6-.4.8-1 .5-1.5-.3-.5-.1-1.1.5-1.5 1.2-.7 1.4-5.8.3-6.9-.4-.4-.8-1.5-.8-2.4 0-2.1-2.6-2.6-4.6-1zm4.9 6.8c0 2.3-.4 3-1.8 3-1.3 0-1.7-.5-1.3-2 .3-1.1 0-2-.6-2s-1.1-.5-1.1-1c0-.6 1.1-1 2.3-1 2 0 2.4.5 2.5 3zm-8.1 6.7c-.9.9-1.9 1.4-2.3 1.1-1-1 .6-2.8 2.4-2.8 1.5 0 1.5.1-.1 1.7zm12.3.3c0 .5-.4 1-1 1-.5 0-1-.5-1-1 0-.6.5-1 1-1 .6 0 1 .4 1 1zm-9.2 5c.3.9-.3 1.1-2.4.7-2.3-.5-2.1-.3.9 1 4.3 1.8 4.4 4 .1 3.5-3.9-.4-4.7-1.5-3.9-5 .5-2.6.9-3 2.8-2.3 1.1.4 2.3 1.4 2.5 2.1zm3.2-2c0 .5-.4 1-1 1-.5 0-1-.5-1-1 0-.6.5-1 1-1 .6 0 1 .4 1 1zm-4.5 8.8c-.6.4-1.1 3.1-1 5.9 0 3.1-.4 5.2-1 4.9-.5-.2-.9-1.2-.7-2.2.1-1 .3-3.6.4-5.7.1-2.6.6-3.7 1.7-3.7 1 0 1.2.3.6.8zM75.9 27.2c-1.9 1.5-3.2 4.8-2 4.8 1.4 0 .7 3.3-1 5.1-.9.9-2.2 4-2.9 6.8-1.2 4.9-1.1 5.4 1.1 7.7l2.3 2.4-2.3 3.1c-2.7 3.6-1.7 5.5 3.5 6.5 4 .7 5.2.1 3.6-1.9-1.5-1.8-.4-8.7 1.3-8.1 2.2.9 2.7-1.4 1-4.5-1.9-3.8-1.9-6.8 0-10.5 1.6-3 2-6.8.8-8-.4-.4-.8-1.5-.8-2.4 0-2.1-2.6-2.6-4.6-1zm4.9 6.8c0 1.9-.4 3-1.3 3-.7 0-1.3.6-1.2 1.2.1 4.3-.4 7.8-1.3 7.8-1.5 0-1.2-5.8.3-6.3.6-.2 0-.4-1.5-.3-1.6.1-2.3.5-1.8 1.1.4.5 1 2.3 1.2 3.8.5 2.6.4 2.8-2.1 2.3s-2.5-.5-.4.6c2.8 1.3 3.6 3.3 1.9 4.7-1 .8-1.8.6-3.1-.9-1.5-1.7-1.6-2.5-.6-6.7 1.5-6 2.3-7.4 4.7-7.7 2-.3 3.3-3.6 1.5-3.6-.6 0-1.1-.5-1.1-1 0-.6 1.1-1 2.3-1 2 0 2.4.5 2.5 3zm-3.4 18.3c-1.2 3.8-1.3 8.1-.3 9.4.9 1 .7 1.3-1 1.3-1.1 0-2.1-.1-2.1-.3 0-.1.4-1.7 1-3.6.9-3.2.9-3.3-1-1.6-1 .9-1.6 2.3-1.3 3.1.6 1.6-1.2 1.9-2.2.4-.7-1.2 3.5-7.1 4.6-6.4.5.3.6-.2.3-1-.3-.9-.1-1.6.6-1.6s.9-.8.5-2.3c-.5-1.7-.4-1.9.4-.7.6.8.8 2.3.5 3.3zM81 52c0 .5-.4 1-1 1-.5 0-1-.5-1-1 0-.6.5-1 1-1 .6 0 1 .4 1 1zm26.9-24.8c-1.9 1.5-3.2 4.8-2 4.8 1.3 0 .8 3.4-.6 4.3-.7.4-2 3.3-2.9 6.4-1.3 4.5-1.4 6-.4 7.9 1 1.9 1 3.2-.3 7-1.8 5.5-1.5 6.4 1.9 6.4 2.5 0 3.1-.9 1.5-2.5-.6-.6-.4-2 .5-3.5l1.5-2.5-.5 2.4c-.6 2.8.9 5.1 3.1 5.1 1.1 0 1.3-.7.8-3-.5-2.4-.2-3.4 2-5.4 2.5-2.4 2.6-2.6 1.1-5.5-1.8-3.4-2.1-10.6-.6-11.6 1.2-.7 1.4-5.8.3-6.9-.4-.4-.8-1.5-.8-2.4 0-2.1-2.6-2.6-4.6-1zm4.9 6.8c0 2.3-.4 3-1.8 3-1.3 0-1.7-.5-1.3-2 .3-1.1 0-2-.6-2s-1.1-.5-1.1-1c0-.6 1.1-1 2.3-1 2 0 2.4.5 2.5 3zm-1.8 5.7c0 2.1-2.1 2.5-3.5.7-.7-1.1-1.7-1.6-2.1-1.1-.4.4-.2.7.4.7.7 0 1.2 1.3 1.2 3 0 4.2-1.7 3.7-2.2-.6-.5-4.6 1.4-6.9 4.2-5.1 1.1.6 2 1.7 2 2.4zm-7.2 4.6c-.2 1.3.1 2.9.9 3.5.7.7 1.3 1.7 1.3 2.2 0 1.3-2.7 1.3-3.5 0-.7-1.1.4-8 1.2-8 .3 0 .3 1 .1 2.3zm7 .6c.3.8-.1 1.2-.9.9-.7-.2-1.5-1-1.7-1.7-.3-.8.1-1.2.9-.9.7.2 1.5 1 1.7 1.7zm-1.2 3.3c.3.4-.1.5-1 .4-.8-.1-1.8-.5-2.2-.8-.3-.4.1-.5 1-.4.8.1 1.8.5 2.2.8zm.5 7.1c-.6 1.8-.8 4.2-.5 5.2.5 1.3.3 1.6-.7 1.3-.8-.3-1.3-1.5-1.1-2.9.1-1.3 0-3-.4-3.9-.4-1.1-1-.6-2.4 2-1.3 2.5-1.5 3.9-.8 4.7.8 1 .5 1.3-1.1 1.3-2.4 0-2.4-.1-1.2-3.2 1.9-4.8 2.4-6.3 2.2-7.1-.1-.5.3-.6.9-.2.6.3 1.7-.1 2.6-1 2.5-2.5 3.9-.4 2.5 3.8zM114 52c0 .5-.4 1-1 1-.5 0-1-.5-1-1 0-.6.5-1 1-1 .6 0 1 .4 1 1z"></path>
    <path d="M108.3 52.5c-.8.9-.9 1.6-.3 2 .6.3 1.3-.1 1.6-1 .9-2.1.2-2.6-1.3-1zm63.6-25.3c-1.9 1.5-3.2 4.8-2 4.8 1.4 0 .7 3.3-1 5.1-.9.9-2.2 4-2.9 6.8-1.2 4.9-1.1 5.4 1.1 7.7l2.3 2.4-2.3 3.1c-2.7 3.6-1.7 5.5 3.5 6.5 4 .7 5.2.1 3.5-2-.7-.8-.9-2.5-.5-4 .8-3.2-.4-9.9-1.6-9.1-.5.3-1.1.2-1.4-.3-.3-.5.2-.9 1.1-.9.8 0 2.2 1.5 2.9 3.4.8 1.8 1.8 3.3 2.4 3.3 1.8 0 2-2 .5-4.9-1.7-3.4-2-10.7-.5-11.6 1.2-.7 1.4-5.8.3-6.9-.4-.4-.8-1.5-.8-2.4 0-2.1-2.6-2.6-4.6-1zm4.9 6.8c0 2.3-.4 3-1.8 3-1.3 0-1.7-.5-1.3-2 .3-1.1 0-2-.6-2s-1.1-.5-1.1-1c0-.6 1.1-1 2.3-1 2 0 2.4.5 2.5 3zm-1.8 5.7c0 2.1-2.1 2.5-3.5.7-.7-1.1-1.7-1.6-2.1-1.1-.4.4-.2.7.4.7.7 0 1.2 1.3 1.2 3 0 4.2-1.7 3.7-2.2-.6-.5-4.6 1.4-6.9 4.2-5.1 1.1.6 2 1.7 2 2.4zm-7.2 4.6c-.2 1.3.1 2.9.9 3.5.7.7 1.3 2.2 1.3 3.3 0 1.1.7 2.2 1.5 2.5 1 .4 1.3 1.5 1 3.6-.3 1.7 0 3.6.6 4.4.9 1.1.7 1.4-1 1.4-1.8 0-2-.4-1.4-3.3.3-1.7.8-3.4 1-3.6.2-.3-1.1-1.9-2.8-3.7-2.6-2.7-3-3.6-2.4-6.8.4-2 .9-3.6 1.2-3.6.3 0 .3 1 .1 2.3zm7 .6c.3.8-.1 1.2-.9.9-.7-.2-1.5-1-1.7-1.7-.3-.8.1-1.2.9-.9.7.2 1.5 1 1.7 1.7zM173 52c0 .5-.4 1-1 1-.5 0-1-.5-1-1 0-.6.5-1 1-1 .6 0 1 .4 1 1zm5 0c0 .5-.4 1-1 1-.5 0-1-.5-1-1 0-.6.5-1 1-1 .6 0 1 .4 1 1zm-8.4 6.1c-.6 3.8-1.3 4.6-2.7 3.2-.8-.8-.6-1.8.7-3.7 2.4-3.3 2.6-3.2 2 .5zm34.3-30.9c-1.9 1.5-3.2 4.8-2 4.8 1.3 0 .8 3.4-.6 4.3-.7.4-2 3.3-2.9 6.4-1.3 4.5-1.4 6-.4 7.9 1 1.9 1 3.2-.3 7-1.8 5.5-1.5 6.4 1.9 6.4 2.5 0 3.1-.9 1.5-2.5-.6-.6-.4-2 .5-3.5l1.5-2.5-.5 2.4c-.6 2.8.9 5.1 3.1 5.1 1.1 0 1.3-.7.8-2.8-.4-2 0-3.6 1.5-5.5 2-2.5 2-2.8.5-5.6-1.9-3.8-1.9-6.8 0-10.5 1.6-3 2-6.8.8-8-.4-.4-.8-1.5-.8-2.4 0-2.1-2.6-2.6-4.6-1zm4.9 6.8c0 1.9-.4 3-1.3 3-.7 0-1.3.6-1.2 1.2.1 4.3-.4 7.8-1.3 7.8-1.5 0-1.2-5.8.3-6.3.6-.2 0-.4-1.5-.3-1.6.1-2.3.5-1.8 1.1.4.5 1 2.3 1.2 3.8.5 2.6.4 2.8-2.1 2.3s-2.5-.5-.3.6c2.3 1.2 3.1 4.8 1 4.8-.6 0-.3.7.8 1.5 1.7 1.3 2.1 1.2 3.7-.7 1-1.1 2-1.8 2.4-1.4.4.3-.2 1.2-1.2 2-1.3.9-1.9 2.6-1.9 5 0 2.1-.4 3.5-1 3.3-.6-.3-1-1.5-.8-2.8.1-1.3 0-3-.4-3.9-.4-1.1-1-.6-2.4 2-1.3 2.5-1.5 3.9-.8 4.7.8 1 .5 1.3-1.2 1.3s-2.1-.4-1.5-1.8c.4-.9 1-2.7 1.2-4 .3-1.2.9-2.5 1.4-2.8.5-.3.2-1.8-.7-3.3-1.5-2.6-1.5-3.2 0-8.4.9-3.2 2.1-5.8 2.6-5.8.6-.1 1.6-.2 2.2-.3 1.6-.1 2.4-3.6.9-3.6-.6 0-1.1-.5-1.1-1 0-.6 1.1-1 2.3-1 2 0 2.4.5 2.5 3zm-3.6 18.2c-.9.9-1.2.7-1.2-1.2s.3-2.1 1.2-1.2c.9.9.9 1.5 0 2.4zm-194.3-24C8.7 29.9 7.7 33 9.3 33c.8 0 .8.3-.2.9-.7.5-1.1 1.3-.7 1.9.3.5-.1 1.5-.8 2.1-.8.7-2 3.4-2.6 6.1-.9 3.9-.9 5.4.2 7.7s1.1 3.4.1 6.6C3.7 62.8 4.2 64 7.6 64c2.6 0 3.1-.9 1.2-2.8-.9-1-.8-1.6.5-2.9 1.8-1.8 1.8-1.8 2.1 3.2.1 1.4.9 2.1 2.9 2.3 2.7.3 3.7-1.1 1.6-2.3-.6-.4-.8-2.2-.4-4.5.5-2.7.1-4.8-1.1-7.2-1-1.8-1.7-3.7-1.5-4.2.1-.5-.5-.4-1.3.3-1.3 1.1-1.7 1-2.2-.3-.9-2.3.1-3 2.5-1.7 1.5.9 2.2.8 2.8-.4.7-1.1 1.1-.7 2.1 1.8 1 2.9 1 3-.3 1.3-.8-1.1-1.7-1.7-2-1.4-.7.7 3.4 7.8 4.5 7.8 1.9 0 1.8-1.9-.6-6.6-1.9-3.8-2.3-5.7-1.8-9.1.3-2.3.2-4.8-.2-5.5-.5-.7-.9-2-.9-2.8 0-1.9-2.6-2.4-4.6-.8zM16 33c0 .5-.7 1-1.5 1-.9 0-1.2.6-.8 1.6.5 1.3.7 1.3 1.4.2.7-1 .9-.9.9.4 0 1.1-.8 1.8-2 1.8-1.1 0-2-.6-2-1.4 0-.8-.3-2.1-.6-3-.5-1.2 0-1.6 2-1.6 1.4 0 2.6.4 2.6 1zm-2.7 5.6c2.2.8 1.8 3.7-.4 4.2-1 .2-1.9-.6-2.2-1.8-.3-1.1-1.1-2-1.9-2-1 0-1 .2.1.9 1.2.8 1.2 1.2.2 2.5-1.9 2.3-3.3 1.9-2.5-.7.9-3.1 2.5-4.9 3.8-4.2.6.3 1.9.8 2.9 1.1zm-4.5 8.9c-.3.3-.9-.2-1.2-1.2-.6-1.4-.5-1.5.5-.6.7.7 1 1.5.7 1.8zm-1.1 5.2c-1 1-1.6 0-2.2-3.8l-.6-3.4 1.7 3.2c1 1.8 1.4 3.6 1.1 4zm5.8-2.7c1.1 2 1.4 4.2.9 6.5-.4 2.2-.2 4.1.6 5 1 1.3.9 1.5-1 1.5-1.5 0-2-.5-1.7-1.4.3-.8.2-2.9-.3-4.6-.7-2.5-.6-2.9.3-2.1.9.7 1.3.5 1.3-.8 0-1.1-.6-1.7-1.3-1.4-.9.3-1.1 0-.7-1 .3-.8 0-1.8-.5-2.2-.6-.3-.9-1.1-.6-1.6.9-1.4 1.3-1.1 3 2.1zM11 51c0 .5-.4 1-1 1-.5 0-1-.5-1-1 0-.6.5-1 1-1 .6 0 1 .4 1 1zm9 0c0 .5-.4 1-1 1-.5 0-1-.5-1-1 0-.6.5-1 1-1 .6 0 1 .4 1 1zm-10 3.3c0 .7-.7 2.3-1.6 3.5-1.2 1.8-1.3 2.6-.4 3.7 1 1.2.9 1.5-.9 1.5-2.4 0-2.4-.9.1-7.3C8.3 52.9 10 52 10 54.3zm34.9-26.1c-1.9 1.5-3.2 4.8-2 4.8 1.5 0 .7 3.4-1 4.7-2.6 2-5 9.1-4.3 12.8.4 2.3 0 4.5-1.6 7.4-2.3 4.7-2 6.1 1.6 6.1 2.4 0 3.2-1.4 1.4-2.5-.6-.3 0-2 1.3-4 3.3-5.2 3.9-4.7 4.1 3.5.1 2 .7 2.6 2.9 2.8 2.6.3 3.7-1.1 1.7-2.3-.5-.3-1-2.3-1-4.3s-.9-5.1-2-6.9c-2.2-3.6-.6-6.2 1.6-2.7 3.6 5.4 4.2 5.9 5.5 4.7 1-1 .9-1.5-.1-2.7-.7-.9-1.7-1.3-2.3-.9-.5.3-.7.1-.4-.4.4-.6.2-2.5-.5-4.3-.8-2.5-.8-3.8.1-5.1 1.2-2.1 1.5-6.2.4-7.3-.4-.4-.8-1.5-.8-2.4 0-2.1-2.6-2.6-4.6-1zm4.9 6.8c0 2-.4 3-1.4 3-.8 0-1.3.4-1 .9.3.5-.1 1.1-.9 1.5-1.8.6-4.5-.2-4.5-1.5 0-.9.3-1 3.2-1.3 1.6-.1 2.4-3.6.9-3.6-.6 0-1.1-.5-1.1-1 0-.6 1.1-1 2.3-1 2 0 2.4.5 2.5 3zM45 43c1.3 2.4-1.1 4.4-4.2 3.5-2.2-.6-2.2-.5-.3.7 2.2 1.3 2.3 4.8.2 4.8-.9 0-.9.2 0 .8.9.6.6 1.7-1.2 4.4-1.8 2.6-2.1 3.8-1.2 4.7.8.8.5 1.1-1.1 1.1-1.2 0-2.2-.2-2.2-.5 0-1.4 3.1-6.5 3.9-6.5 1 0 .9-.5-.3-5.6-1-4.2 1.6-10.6 3.9-9.8.8.4 2 1.4 2.5 2.4zm3.9 1c.5 1.6.8 3 .6 3-1 0-3.5-3.3-3.5-4.6 0-2.5 1.8-1.5 2.9 1.6zm-3.6 6.4c.6 1.5-.1 2.6-1.5 2.6-.4 0-.8-.9-.8-2 0-2.3 1.5-2.7 2.3-.6zm7.7.6c0 .5-.4 1-1 1-.5 0-1-.5-1-1 0-.6.5-1 1-1 .6 0 1 .4 1 1zm-6.2 5.5c0 2 .6 4.2 1.2 5 1 1.2.9 1.5-.6 1.5-1.6 0-1.9-.8-2-5 0-2.8.3-5 .7-5 .4 0 .7 1.6.7 3.5zm94.1-28.3c-1.9 1.5-3.2 4.8-2 4.8 1.5 0 .7 3.4-1 4.7-2.6 2-5 9.1-4.3 12.8.4 2.3 0 4.5-1.6 7.4-2.3 4.7-2 6.1 1.6 6.1 2.4 0 3.2-1.4 1.4-2.5-.6-.3 0-2 1.3-4 3.3-5.2 3.9-4.7 4.1 3.5.1 2 .7 2.6 2.9 2.8 2.6.3 3.7-1.1 1.7-2.3-.5-.3-1-2.3-1-4.3s-.9-5.1-1.9-6.8c-1.5-2.5-1.7-3.5-.8-4.5.9-1 .8-1-.6 0-2 1.6-3.2.9-2.4-1.3 1-2.4 3.4-.8 6.2 4 1.4 2.4 3 4.4 3.5 4.4 1.9 0 2-2.1.1-4.7-2.4-3.4-3.6-8.9-2.2-9.8 1.2-.7 1.5-5.8.4-6.9-.4-.4-.8-1.5-.8-2.4 0-2.1-2.6-2.6-4.6-1zm4.9 6.8c0 2.3-.4 3-1.8 3-1.3 0-1.7-.5-1.3-2 .3-1.1 0-2-.6-2s-1.1-.5-1.1-1c0-.6 1.1-1 2.3-1 2 0 2.4.5 2.5 3zm-1.4 6.5c.9 3.1.7 4.7-.4 4-.5-.3-.7-1.2-.3-2 .3-1.1.1-1.3-1-.9-.9.3-2.4-.3-3.6-1.5-1.8-1.8-1.9-2.1-.4-3 2.1-1.1 5 .5 5.7 3.4zM138 43c-.9 1.7-3 2.8-3 1.6 0-1.6 1.5-3.6 2.6-3.6 1.2 0 1.2.4.4 2zm-3.3 6.2c-.3.8-.6.5-.6-.6-.1-1.1.2-1.7.5-1.3.3.3.4 1.2.1 1.9zm6.3.7c.7 1.4.7 2.2-.1 2.6-1.3.8-1.5.6-2.3-2.3-.9-2.7.9-3 2.4-.3zm-3 1.1c0 .5-.6 1-1.2 1-1 0-1 .2-.1.8.9.6.6 1.7-1.2 4.4-1.8 2.6-2.1 3.8-1.2 4.7.8.8.5 1.1-1.1 1.1-1.2 0-2.2-.2-2.2-.5 0-1.3 3.1-6.5 3.9-6.5.5 0 .8-.8.8-1.8 0-3.3.3-4.2 1.3-4.2.6 0 1 .4 1 1zm11 0c0 .5-.4 1-1 1-.5 0-1-.5-1-1 0-.6.5-1 1-1 .6 0 1 .4 1 1zm-6.2 5.5c0 2 .6 4.2 1.2 5 1 1.2.9 1.5-.6 1.5-1.6 0-1.9-.8-2-5 0-2.8.3-5 .7-5 .4 0 .7 1.6.7 3.5zM11.9 91.2C10 92.7 8.7 96 9.9 96c1.5 0 .7 3.4-1.1 4.7-2 1.6-4 10.2-3.2 14.1.4 1.9-.1 4.3-1.5 7.1-2.4 4.7-2.1 6.1 1.5 6.1 2.4 0 3.2-1.4 1.4-2.5-.6-.3 0-2 1.3-4 3.3-5.2 3.9-4.7 4.1 3.5.1 2 .7 2.6 2.9 2.8 2.7.3 3.5-.6 1.8-2.3-.8-.9-1.6-5-2.2-11.5-.1-.8-.6-2-1.1-2.7-1.5-1.9 0-3.5 2.3-2.3 1.3.8 2.5.7 4 0 2.5-1.4 1.9-3.6-1-3.3-2.5.3-3.9-2.3-2.2-4 1.2-1.2 1.5-6 .4-7.1-.4-.4-.8-1.5-.8-2.4 0-2.1-2.6-2.6-4.6-1zm4.9 6.8c0 2.3-.4 3-1.8 3-1.3 0-1.7-.5-1.3-2 .3-1.1 0-2-.6-2s-1.1-.5-1.1-1c0-.6 1.1-1 2.3-1 2 0 2.4.5 2.5 3zm-1.3 6.8c.3 1.4.4 2.7 0 3-.3.3-.5-.2-.5-1.1 0-1-.5-1.4-1.4-1.1-.8.3-2.4-.4-3.5-1.5-1.8-1.8-1.9-2.1-.4-3 2.2-1.2 5 .6 5.8 3.7zm-5.5 0c0 .5-.7 1.7-1.5 2.8-1.4 1.9-1.4 1.9-1.5-.2 0-1.1.3-2.4.7-2.7.9-1 2.3-.9 2.3.1zm2.4 4.3c-2 2.2-3.4 1.7-2.7-1 .3-1.3 1.1-1.7 2.4-1.4 1.9.5 1.9.7.3 2.4zM21 107c0 .5-.4 1-1 1-.5 0-1-.5-1-1 0-.6.5-1 1-1 .6 0 1 .4 1 1zm-11 7c0 1.1-.6 2-1.2 2-1 0-1 .2-.1.8.9.6.6 1.7-1.2 4.4-1.8 2.6-2.1 3.8-1.2 4.7.8.8.5 1.1-1.1 1.1-1.2 0-2.2-.2-2.2-.5 0-1.4 3.1-6.5 4-6.5.5 0 .7-.8.5-1.8-1.9-9-2-8.5.4-7.3 1.1.7 2.1 2.1 2.1 3.1zm4-1c0 .5-.6 1-1.2 1-1 0-.9.3.1.9 1 .6 1 1 .1 1.6-1.6 1-2.3 0-1.5-2.4.6-2.1 2.5-2.9 2.5-1.1zm.8 7.5c0 2 .6 4.2 1.2 5 1 1.2.9 1.5-.6 1.5-1.6 0-1.9-.8-2-5 0-2.8.3-5 .7-5 .4 0 .7 1.6.7 3.5zm29.2-29c-1.1 1.3-1 1.4.6.8 1.7-.6 1.7-.5.5 1-.7.9-2 1.7-2.8 1.7-1 0-1.2.6-.8 2 .4 1.1.2 2-.4 2-3.3 0-6.3 12.1-3.9 16 .8 1.3.7 3-.5 6.6-1.8 5.5-1.5 6.4 1.9 6.4 2.4 0 3.2-1.4 1.4-2.5-.5-.3-.3-2 .7-4 2.6-5.5 3.5-4.7 3.7 3.5.1 2 .7 2.6 2.9 2.8 2.6.3 3.7-1.1 1.7-2.3-.5-.3-1-2.2-1-4.1 0-1.9-.7-4.8-1.5-6.5-1.9-3.6-1.2-5 2.3-4.7 3.3.4 3.8-2.5.5-3-3.2-.5-3.9-3.9-1.4-6.6 1.2-1.2 2.1-2.9 2.1-3.7 0-.8.5-2 1.2-2.7.8-.8.8-1.5-.2-2.7-1.6-1.9-5.4-1.9-7 0zm4.8 5.1c.4 2.5-2.2 4.9-4.4 4-1.3-.5-1.4-.9-.5-2 .7-.8 1.1-1.8 1-2.2-.3-1.9.2-2.5 1.9-2.2.9.2 1.8 1.3 2 2.4zm-5.1 4.6c.6.7 1.3 2.6 1.7 4.3.5 2.2.4 2.6-.3 1.5-.8-1.2-1.4-1.3-2.9-.3-1.5.9-1.9.8-1.9-.3 0-.7.4-1.1.9-.8.4.3.8-.2.8-1.1 0-.8-.7-1.8-1.5-2.1-1.7-.7-1-2.4.9-2.4.8 0 1.8.6 2.3 1.2zm-3.9 3.8c-1.1 1.8-2.8 2.7-2.8 1.6 0-1.6 1.4-3.6 2.6-3.6 1.2 0 1.2.4.2 2zm3.8 2.9c-.4.5 0 1.1.6 1.4.7.2.9.8.5 1.3-.9 1-2.8-1.6-2.1-2.8.3-.4.7-.8 1-.8.3 0 .3.4 0 .9zM51 109c0 .5-.4 1-1 1-.5 0-1-.5-1-1 0-.6.5-1 1-1 .6 0 1 .4 1 1zm-10 1.1c1.2.8.9.9-1 .5-2.5-.6-2.5-.6-.2.5 2.3 1.3 3.1 4.8 1 5-1 0-1 .2-.1.6.9.3.8 1.4-.7 4.2-1.4 2.9-1.6 4.1-.7 5 .8.8.5 1.1-1.2 1.1-1.8 0-2.2-.4-1.6-1.8.4-.9 1-2.7 1.2-4 .3-1.2.9-2.5 1.4-2.8.5-.3.2-1.8-.7-3.4-.9-1.5-1.4-3.5-1.1-4.4.7-1.9 1.6-2 3.7-.5zm4.4 6c-1.1 1.8-2.4.8-2.4-1.9.1-2.6.1-2.6 1.5-.8.8 1 1.2 2.3.9 2.7zm1.4 4.4c0 2 .6 4.2 1.2 5 1 1.2.9 1.5-.6 1.5-1.6 0-1.9-.8-2-5 0-2.8.3-5 .7-5 .4 0 .7 1.6.7 3.5zm63.2-29c-1.1 1.3-1 1.4.6.8 1.7-.6 1.7-.5.5 1-.7.9-2 1.7-2.8 1.7-1 0-1.2.6-.8 2 .4 1.4.2 2-.8 2-2.7 0-5 3.9-5.3 9.1-.2 4.8-.1 5.2 3.1 7 3 1.8 3.4 2.5 3.2 5.9-.1 3.8 1.5 7 3.7 7 .7 0 1.1-2.6 1.1-7.6 0-6.9-.2-7.7-2.3-8.8l-2.4-1.3 2.5-1.6c1.8-1.2 2.7-1.3 3.6-.4.8.8 1.4.8 2.4-.2s.8-1.5-.7-2.6c-1-.8-2.4-1.6-3-1.8-.7-.3-.2-1.4 1.2-2.9 1.2-1.3 2.2-3.1 2.2-3.9 0-.8.5-2 1.2-2.7.8-.8.8-1.5-.2-2.7-1.6-1.9-5.4-1.9-7 0zm4.8 5.1c.4 2.5-2.2 4.9-4.4 4-1.3-.5-1.4-.9-.5-2 .7-.8 1.1-1.8 1-2.2-.3-1.9.2-2.5 1.9-2.2.9.2 1.8 1.3 2 2.4zm-5 4.6c1.7 1.7 1.5 2.6-1 3.9-1.3.6-2 .8-1.5.4.4-.5 0-1.9-.8-3.2-1.4-2.1-1.4-2.3.3-2.3 1 0 2.3.5 3 1.2zm-5.4 2.2c-2.1 1.5-3 1.4-1.9-.3.3-.6 1.4-1.1 2.3-1.1 1.3 0 1.3.2-.4 1.4zm3.4 5.6c.3.9-.3 1.1-2.4.7-2.3-.5-2.1-.3.9 1 4.3 1.8 4.4 4 .1 3.5-3.9-.4-4.7-1.5-3.9-5 .5-2.6.9-3 2.8-2.3 1.1.4 2.3 1.4 2.5 2.1zm3.2-2c0 .5-.4 1-1 1-.5 0-1-.5-1-1 0-.6.5-1 1-1 .6 0 1 .4 1 1zm5 0c0 .5-.4 1-1 1-.5 0-1-.5-1-1 0-.6.5-1 1-1 .6 0 1 .4 1 1zm-5 11c-.6 1.1-.8 3-.5 4.2.5 1.4.3 1.9-.6 1.6-.8-.3-1.4-1.9-1.4-4 0-2.6.4-3.4 1.4-3 .9.3 1.2.1.7-.6-.4-.7-.4-1.8.1-2.5 1.3-2 1.6 1.9.3 4.3zm1 8c0 .5-.4 1-.9 1-.6 0-1.3-.5-1.6-1-.3-.6.1-1 .9-1 .9 0 1.6.4 1.6 1zM73 92.5c-1.1 1.3-1 1.4.6.8 1.7-.6 1.7-.5.5 1-.7.9-2 1.7-2.8 1.7-1 0-1.3.6-.9 1.5.3 1-.7 2.7-2.7 4.5-3 2.9-3.1 3.1-1.4 4.4 1.5 1.1 1.7 2.2 1.2 4.6-.5 2.3-.2 3.6 1 5 1.5 1.7 1.5 2.1-.5 5.9-2.3 4.7-2 6.1 1.6 6.1 2.5 0 3-.9 1.5-2.5-.6-.6 0-2.3 1.5-4.4l2.3-3.4 1 2.7c.6 1.4 1 3.6.8 4.9-.2 1.7.4 2.3 2.6 2.5 2.6.3 3.7-1.1 1.8-2.2-.4-.3-1.1-2.6-1.4-5.1-.3-2.9-1.3-5.5-2.7-7-1.4-1.5-2-3-1.6-4.1.6-1.5.8-1.5 3.2.1 2 1.3 2.9 1.4 3.8.5.8-.9.6-1.5-.8-2.4-1-.6-2.8-1.8-4-2.8-2-1.5-2-1.7-.3-3.5.9-1.1 1.7-2.6 1.7-3.4 0-.8.5-2 1.2-2.7.8-.8.8-1.5-.2-2.7-1.6-1.9-5.4-1.9-7 0zm4.8 5.1c.4 2.5-2.2 4.9-4.4 4-1.3-.5-1.4-.9-.5-2 .7-.8 1.1-1.8 1-2.2-.3-1.9.2-2.5 1.9-2.2.9.2 1.8 1.3 2 2.4zm-4.5 4.8c2.3 1.8 2.2 3.2-.4 3.9-1.2.3-1.8.3-1.5 0 .3-.4-.1-1.7-.9-3-1.8-2.6-.2-3.2 2.8-.9zm-4.9 2c-2.1 1.5-3 1.4-1.9-.3.3-.6 1.4-1.1 2.3-1.1 1.3 0 1.3.2-.4 1.4zM75 108c0 .5-.4 1-1 1-.5 0-1-.5-1-1 0-.6.5-1 1-1 .6 0 1 .4 1 1zm-.5 3.7c3.1 3.4 3.7 5.3 1.5 5.3-.5 0-1.2-1.1-1.6-2.5-.3-1.4-1-2.5-1.4-2.5-.5 0-1.7-.3-2.7-.6-1.5-.5-1.5-.3.2.7 3 1.8 3.6 3.3 1.8 4.2-2.5 1.5-4.6-1.5-3.8-5.2.4-1.7 1.1-3.1 1.6-3.1.6 0 2.5 1.7 4.4 3.7zM82 109c0 .5-.4 1-1 1-.5 0-1-.5-1-1 0-.6.5-1 1-1 .6 0 1 .4 1 1zm-8.6 9.2c-.4.7-1.5 2.5-2.5 3.9-1.4 2-1.5 2.9-.7 3.7.9.9.7 1.2-1 1.2-2.6 0-2.7-.2-.6-4.3s3.4-5.7 4.6-5.7c.5 0 .6.6.2 1.2zm5.4 2.8c0 1.7.6 3.8 1.3 4.6.9 1.1.8 1.4-.8 1.4-1.7 0-2-.6-1.8-4 .1-2.2-.2-4-.7-4-.5 0-.6-.5-.3-1 1.1-1.7 2.2-.2 2.3 3zm62.4-12.8c-1.7 1.7-1.5 5.3.3 6.8 1.3 1.1 1.4 1 .8-.6-.6-1.7-.5-1.7 1-.5.9.7 1.7 2 1.7 2.8 0 1 .6 1.2 2 .8 1.4-.4 2-.2 2 .8 0 4.4 11.4 7.4 15.3 3.9 2.1-1.8 3.1-1 3.2 2.6 0 2.2.5 2.8 2.8 3 2.6.3 3.5-.7 2-2.2-.4-.4-1.3-2.5-1.9-4.7-1.1-3.5-1-4 .3-3.5 1.8.7 4.3-1 4.3-3 0-.8-1.2-1.2-3.2-1.2-1.8 0-4.5-.3-6-.7-2.3-.6-2.9-.3-4 2l-1.2 2.6-1.7-2.3c-1.3-1.7-1.5-2.6-.7-3.6.8-.9.8-1.6-.1-2.5-1-.9-1.5-.8-2.6.7-.8 1-1.6 2.4-1.8 3-.3.7-1.4.2-2.9-1.2-1.3-1.2-3.2-2.2-4.1-2.2-.9 0-1.9-.5-2.2-1-.8-1.3-1.8-1.3-3.3.2zM158 110c0 .5-.4 1-1 1-.5 0-1-.5-1-1 0-.6.5-1 1-1 .6 0 1 .4 1 1zm-8 1.5c1.7 2.1.5 5.1-1.5 3.5-.8-.6-1.9-.9-2.4-.6-1.3.8-2.4-1.1-1.7-2.9.7-1.9 4-1.9 5.6 0zm21.3 2.7c1.6.1 2.6.6 2.4 1.2-.2.6-1.7 1-3.2.8-2.2-.3-2.6 0-2.1 1.3.3.9.9 2.9 1.2 4.3.4 1.5 1.1 3.3 1.7 3.9.7 1 .4 1.3-1.1 1.3-1.4 0-2-.7-2.1-2.3-.2-4.6-.5-6.5-1.2-6.1-.4.2-.9-.3-1.3-1.1-.3-.9 0-1.5 1-1.5.8 0 1.3-.4.9-1-.3-.5-1.2-.7-1.9-.4-.8.3-1.7 0-2.1-.7-.6-.9-.1-1 2.1-.4 1.6.4 4.2.7 5.7.7zm-16.2 2c.6 1.3.8 2 .4 1.5-.5-.4-1.9 0-3.2.8-2.1 1.4-2.3 1.4-2.3-.3 0-1.8 1.8-4.2 3.2-4.2.4 0 1.3 1 1.9 2.2zm2.9-1.2c0 .5-.4 1-1 1-.5 0-1-.5-1-1 0-.6.5-1 1-1 .6 0 1 .4 1 1zm6 .4c0 .3-.4.8-1 1.1-.5.3-1 .1-1-.4 0-.6.5-1.1 1-1.1.6 0 1 .2 1 .4zm-4.4 4.3c-.5 2.6-.5 2.6.6.6 1.3-2.7 3.9-3.8 4.9-2.1.5.8.1 2-1.1 3.2-1.5 1.5-2.5 1.7-4.8 1-2.6-.8-2.9-1.2-2.1-3.2 1.2-3.2 3.2-2.8 2.5.5zm-5.1 3.1c-.8.8-2.5-1-2.5-2.6 0-1.3.2-1.3 1.4.4.8 1 1.3 2.1 1.1 2.2zm49-3.8c-.3.5-1.2.7-2 .4-2-.8-2.9 1.9-1.6 4.4 1 1.9 5.1 3.7 5.1 2.3 0-1.1 3.6-.6 5.2.7 1.7 1.4 12.8 1.3 14.5-.1.8-.6 3.3-.5 7 .1 6.7 1.1 7.3 1 7.3-2.4 0-2.6-.9-3.1-2.8-1.2-.9.9-2 .8-4.9-.4-4.3-1.8-18-4.1-19.3-3.3-.5.3-1.1.1-1.5-.5-.8-1.3-6.2-1.3-7 0zm6.5 2c0 1.3-.5 1.7-2 1.3-1.1-.3-2 0-2 .6s-.4 1.1-1 1.1c-.5 0-1-1.1-1-2.3 0-2 .5-2.4 3-2.5 2.3 0 3 .4 3 1.8zm5 .4c0 .8-.7 1.7-1.6 2-.9.4-1.4 1.3-1 2.1.6 1.8-.5 2-2.1.4-.9-.9-.8-1.8.4-3.5 1.7-2.6 4.3-3.2 4.3-1zm6 1.1c0 1-1 1.5-3 1.5-2.2 0-2.8-.4-2.4-1.5.4-.8 1.7-1.5 3-1.5 1.5 0 2.4.6 2.4 1.5zm6.1.7c0 1 .2 1 .6.1.3-1 1.2-.9 3.6.3 2.4 1.3 3.5 1.4 4.9.5 1.5-.9 1.8-.8 1.8.9 0 1.7-.5 1.9-3.2 1.4-1.8-.3-4-.8-4.8-1.1-.8-.4-2-.5-2.7-.4-.6.1-1.4-.3-1.8-.9-.3-.5-1.2-1-1.8-1-.7 0-.6.4.3 1 .8.5 1.1 1.2.7 1.7-.8.7-2.7-1.4-2.7-3 0-1.3 5-.8 5.1.5zm-10 1.8c.5 0 .9.5.9 1.1 0 1.5-4.3.7-4.8-1-.3-1 0-1.2 1.2-.8 1 .4 2.2.7 2.7.7zM2.5 151.9c-.3.5.3 2.4 1.4 4.3 2.6 4.6 2.4 25.5-.2 30.6-2.1 3.8-1.6 5.2 1.9 5.2 2.4 0 3.2-1.4 1.4-2.5-.6-.3 0-2 1.3-4 3.3-5.2 3.9-4.7 4.1 3.5.1 2 .7 2.6 2.9 2.8 2.6.3 3.7-1.1 1.7-2.3-.5-.3-1-2.3-1-4.3s-.8-5.1-1.8-6.7c-2.2-3.7-1.8-7.8.7-7 2.1.7 5.6-1.8 4.7-3.3-1-1.7-2.2-1.5-4.2.5-1.5 1.6-1.7 1.6-1.2.2.4-.9.2-2.1-.4-2.7-.6-.6-.6-1.2.1-1.6 1.4-.9 1.5-6.3.1-7.1-.5-.3-.7-1.2-.4-2 .8-2-2-2.9-4.5-1.6-1.7.9-2.2.8-3.1-.9-1.1-2.1-2.5-2.6-3.5-1.1zM5 153c0 .5-.4 1-1 1-.5 0-1-.5-1-1 0-.6.5-1 1-1 .6 0 1 .4 1 1zm8.8 8c0 2.3-.4 3-1.8 3-1.3 0-1.7-.5-1.3-2 .3-1.1 0-2-.6-2S9 161.5 9 163.4s-.5 3.7-1 3.9c-.6.3-.5.4.2.3 1.4-.3 3.8 3.7 3.8 6.1 0 1.1-.7 1.4-2.7.9-2.6-.6-2.6-.5-.8.6 2.2 1.3 2.3 4.8.2 4.8-.9 0-.9.2 0 .8.9.6.6 1.7-1.2 4.4-1.8 2.6-2.1 3.8-1.2 4.7.8.8.5 1.1-1.1 1.1-1.2 0-2.2-.2-2.2-.5 0-1.4 3.1-6.5 4-6.5.5 0 .6-1.2.2-2.8-.3-1.5-.5-6.6-.4-11.4.1-9.3 1.1-11.7 4.8-11.8 1.7 0 2.1.6 2.2 3zm-.8 7.1c0 1-.4 1.9-1 1.9-.5 0-1-.4-1-.9s-.3-1.7-.6-2.5c-.5-1.2-.2-1.5 1-1 .9.3 1.6 1.5 1.6 2.5zm.3 10.3c.6 1.5-.1 2.6-1.5 2.6-.4 0-.8-.9-.8-2 0-2.3 1.5-2.7 2.3-.6zm1.5 6.1c0 2 .6 4.2 1.2 5 1 1.2.9 1.5-.6 1.5-1.6 0-1.9-.8-2-5 0-2.8.3-5 .7-5 .4 0 .7 1.6.7 3.5zm122.1-30.3c-1.8 1.5-3.2 4.8-2 4.8 1.1 0 .7 3.6-.7 5.2-.7.9-.9 4.4-.7 9.7.3 6.9 0 9.1-1.6 12.3-2.2 4.4-1.8 5.8 1.7 5.8 2.4 0 3.2-1.4 1.4-2.5-.6-.3 0-2 1.3-4 3.3-5.2 3.9-4.7 4.1 3.5.1 2 .7 2.6 2.9 2.8 2.6.3 3.7-1.1 1.7-2.3-.5-.3-1-2.3-1-4.3s-.8-5.1-1.8-6.7c-2.5-4.3-1.7-8.2 1.9-10.1 3.5-1.7 3.3-4-.2-3.7-1.3.1-1.9 0-1.3-.3 1.1-.5 1-2.9-.3-6.4-.4-.8-.7-2.2-.7-3-.1-1.9-2.7-2.4-4.7-.8zm4.9 6.8c0 2.2-.4 3-1.6 3.1-1 0-.6.5 1.1 1.1 3.2 1.2 3.4 1.9.7 3.6-1.7 1-2 1-2-.3 0-.8.5-1.5 1.2-1.5.6 0 .8-.3.5-.6-.4-.4-1.3-.1-2.1.5-2.2 1.8-6.2-.4-4.6-2.5.7-.7 1.6-1.1 2.1-.8.5.3 1.2-.3 1.6-1.2.4-1 .2-1.9-.5-2.2-2.1-.7-1.3-2.2 1.1-2.2 2 0 2.4.5 2.5 3zm-1.8 11.6c0 2.3-.3 2.5-2.7 2-2.6-.6-2.6-.5-.8.6 2.2 1.3 2.3 4.8.2 4.8-.9 0-.9.2 0 .8.9.6.6 1.7-1.2 4.4-1.8 2.6-2.1 3.8-1.2 4.7.8.8.5 1.1-1.1 1.1-1.2 0-2.2-.2-2.2-.5 0-1.4 3.1-6.5 4-6.5.5 0 .6-1 .4-2.3-.3-1.2-.7-5-.9-8.4l-.2-6.2 2.8 1.5c2.1 1 2.9 2.2 2.9 4zm1.3 5.8c.6 1.5-.1 2.6-1.5 2.6-.4 0-.8-.9-.8-2 0-2.3 1.5-2.7 2.3-.6zm1.5 6.1c0 2 .6 4.2 1.2 5 1 1.2.9 1.5-.6 1.5-1.6 0-1.9-.8-2-5 0-2.8.3-5 .7-5 .4 0 .7 1.6.7 3.5zm65.1-30.3c-1.8 1.5-3.2 4.8-2.1 4.8.4 0 .8.9.8 2 0 1.5-1.5 2.6-6.1 4.4-5.7 2.3-8.4 5.5-4 4.8 1.1-.2 3.3-.5 5-.5l3-.2.1 6.5c.1 4.6-.4 7.6-1.8 10.3-2.1 4.3-1.7 5.7 1.8 5.7 2.4 0 3.2-1.4 1.4-2.5-.6-.3 0-2 1.3-4 3.3-5.2 3.9-4.7 4.1 3.5.1 2 .7 2.6 2.9 2.8 2.6.3 3.7-1.1 1.7-2.3-.5-.3-1-2.3-1-4.3s-.8-5.1-1.8-6.7c-2.2-3.7-1.8-7.8.7-7 2.1.7 5.6-1.8 4.7-3.3-1-1.7-2.2-1.5-4.2.5-1.5 1.6-1.7 1.6-1.2.2.4-.9.2-2.1-.4-2.7-.6-.6-.6-1.2.1-1.6 1.2-.8 1.5-5.9.4-7-.4-.4-.8-1.5-.8-2.4 0-2.1-2.6-2.6-4.6-1zm4.9 6.8c0 2.3-.4 3-1.8 3-1.3 0-1.7-.5-1.3-2 .3-1.1 0-2-.6-2s-1.1-.5-1.1-1c0-.6 1.1-1 2.3-1 2 0 2.4.5 2.5 3zm-2.7 4c2.5 1.4 2.5 4-.1 4-1.1 0-2-.6-2-1.4 0-.8-.5-1.8-1.2-2.2-.6-.4-.8-.3-.5.3.9 1.5-2.4 2.6-3.6 1.4-.7-.7-.2-1.4 1.4-2 3.2-1.3 3.7-1.3 6-.1zm-13.1 4c0 .5-.4 1-1 1-.5 0-1-.5-1-1 0-.6.5-1 1-1 .6 0 1 .4 1 1zm12.3.6c1 .4 1.7 1.7 1.7 3.1 0 2.2-.3 2.4-2.7 1.9-2.6-.6-2.6-.5-.8.6 2.2 1.3 2.3 4.8.2 4.8-.9 0-.9.2 0 .8.9.6.6 1.7-1.2 4.4-1.8 2.6-2.1 3.8-1.2 4.7.8.8.5 1.1-1.1 1.1-1.2 0-2.2-.2-2.2-.5 0-1.4 3.1-6.5 4-6.5.5 0 .6-1 .4-2.3-1.1-4.5-1.1-13.8 0-13.2.6.3 1.9.8 2.9 1.1zm8.7-.6c0 .5-.4 1-1 1-.5 0-1-.5-1-1 0-.6.5-1 1-1 .6 0 1 .4 1 1zm-5.7 9.4c.6 1.5-.1 2.6-1.5 2.6-.4 0-.8-.9-.8-2 0-2.3 1.5-2.7 2.3-.6zm1.5 6.1c0 2 .6 4.2 1.2 5 1 1.2.9 1.5-.6 1.5-1.6 0-1.9-.8-2-5 0-2.8.3-5 .7-5 .4 0 .7 1.6.7 3.5zm19.1-30.3c-1.8 1.5-3.2 4.8-2.1 4.8.4 0 .8.9.8 2s-.5 2-1.1 2c-.6 0-2 .7-3.1 1.5-1.9 1.5-1.9 1.5.1 3 2.8 2.2 3 13.5.4 18.8-2.2 4.3-1.8 5.7 1.7 5.7 2.4 0 3.2-1.4 1.4-2.5-.6-.3 0-2 1.3-4 3.3-5.2 3.9-4.7 4.1 3.5.1 2 .7 2.6 2.9 2.8 2.6.3 3.7-1.1 1.7-2.3-.5-.3-1-2.3-1-4.3s-.8-5.1-1.8-6.7c-2.2-3.7-1.8-7.8.7-7 2.1.7 5.6-1.8 4.7-3.3-1-1.7-2.2-1.5-4.2.5-1.7 1.7-1.7 1.7-1.1.1.3-1 .2-2-.3-2.3-.6-.4-1 .1-1 .9 0 1.8-.8 2-3 .6-1.5-1-1-2 1.2-2.4 2.6-.4 3.8-1.8 3.8-4.5 0-1.5-.3-3.1-.7-3.5-.4-.4-.8-1.5-.8-2.4 0-2.1-2.6-2.6-4.6-1zm4.9 6.8c0 1.9-.4 3-1.3 3-.7 0-2.2.3-3.2.6-1.7.5-1.7.5 0-.6 1.8-1.2 2.4-4 .7-4-.5 0-1-.5-1-1 0-.6 1.1-1 2.3-1 2 0 2.4.5 2.5 3zm-8.1 4.7c-.9.9-2 1.3-2.4.9-.4-.4-.1-1.1.7-1.6 2.5-1.6 3.5-1.1 1.7.7zm4.6 3.9c1 .4 1.7 1.7 1.7 3.1 0 2.2-.3 2.4-2.7 1.9-2.6-.6-2.6-.5-.8.6 2.2 1.3 2.3 4.8.2 4.8-.9 0-.9.2 0 .8.9.6.6 1.7-1.2 4.4-1.8 2.6-2.1 3.8-1.2 4.7.8.8.5 1.1-1.1 1.1-1.2 0-2.2-.2-2.2-.5 0-1.4 3.1-6.5 4-6.5.5 0 .6-1 .4-2.3-1.1-4.5-1.1-13.8 0-13.2.6.3 1.9.8 2.9 1.1zm8.7-.6c0 .5-.4 1-1 1-.5 0-1-.5-1-1 0-.6.5-1 1-1 .6 0 1 .4 1 1zm-5.7 9.4c.6 1.5-.1 2.6-1.5 2.6-.4 0-.8-.9-.8-2 0-2.3 1.5-2.7 2.3-.6zm1.5 6.1c0 2 .6 4.2 1.2 5 1 1.2.9 1.5-.6 1.5-1.6 0-1.9-.8-2-5 0-2.8.3-5 .7-5 .4 0 .7 1.6.7 3.5zm56.1-29.3c-1.9 1.5-3.2 4.8-2 4.8 1.8 0 .5 3.5-2.2 5.9-2.3 2.1-3.6 2.5-7.3 2.3-4.1-.4-4.4-.6-4.4-3.2 0-1.6-.4-3.1-1-3.5-.5-.3-.7-1.2-.4-2 .8-2-1.9-2.9-4.4-1.6-2 1-3.7 5.1-2.2 5.1 1.3 0 .6 3.4-.8 4.4-1.8 1-5.1 8.5-5.2 11.2 0 1.2-1.4 4-3.1 6.3-2.4 3.4-2.8 4.5-1.8 5.7 1.7 2.1 4.2 1.8 3.6-.5-.3-1.3.6-3 2.8-5.1 4-3.9 6.2-3.3 3.9 1.1-1.2 2.4-1.3 3.4-.3 4.5 1.9 2.3 4.2 1.8 3.6-.8-.4-1.4 0-2.9 1-4 1.5-1.7 1.5-2.1-.1-5.4-1.5-3.2-1.5-3.9-.2-5.9 1.6-2.4 7.3-4 10.6-3 1 .3 2.1.1 2.5-.5.4-.7 1.2-.7 2.6.1 1.6.8 1.9 1.7 1.4 4-.5 2.1-.2 3.6 1 4.9 1.5 1.7 1.5 2.1-.5 5.9-2.3 4.7-2 6.1 1.6 6.1 2.5 0 3-.9 1.5-2.5-.6-.6 0-2.3 1.5-4.4l2.3-3.4 1 2.7c.6 1.4 1 3.6.8 4.9-.2 1.7.4 2.3 2.6 2.5 2.6.3 3.7-1.1 1.8-2.2-.4-.3-1.1-2.6-1.4-5.1-.3-2.8-1.3-5.5-2.6-6.9-1.1-1.2-2.1-3.2-2.1-4.4 0-2 .3-2.1 2.1-1.1 3 1.5 4.1 0 3.7-5.2-.2-3.5-.7-4.4-2-4.3-1.1.1-1.8-.5-1.8-1.5s-.3-2.1-.7-2.5c-.4-.4-.8-1.5-.8-2.4 0-2.1-2.6-2.6-4.6-1zm4.9 6.8c0 2.3-.4 3-1.8 3-1.3 0-1.7-.5-1.3-2 .3-1.1 0-2-.6-2s-1.1-.5-1.1-1c0-.6 1.1-1 2.3-1 2 0 2.4.5 2.5 3zm-22 2.9c0 2.1-.6 3.1-2.4 4-1.3.6-2.4 1.5-2.4 2.1 0 .7-.7.7-2.1-.1-2.3-1.2-1.5-2.8 1.7-3.3 2-.3 3.3-3.6 1.5-3.6-.6 0-1.1-.5-1.1-1 0-.6 1.1-1 2.3-1 1.9 0 2.4.5 2.5 2.9zm26.2-1c0 .5-.4 1.1-1 1.3-.5.1-1.1 1.3-1.3 2.5-.2 1.2-.7 2.6-1.2 3-.4.5-.5-.2-.2-1.5.3-1.2.1-2.2-.6-2.2-.6 0-.2-.9.9-1.9 2.1-2.2 3.4-2.6 3.4-1.2zm-6.9 2.1c2.6 1.5 2.4 3.7-.5 4.2-1.8.4-2.2.1-1.9-1.3.3-.9-.1-2-.8-2.4-.7-.5-1-.4-.6.1.3.5-.6 1.4-1.9 2.1-3 1.4-3.1-.1-.2-2.1 2.6-1.9 3.3-1.9 5.9-.6zm-17.1 3.9c0 .9-5.2 2.2-6 1.5-.7-.7 2.3-2.4 4.3-2.4.9 0 1.7.4 1.7.9zm7 .1c0 .5-.4 1-1 1-.5 0-1-.5-1-1 0-.6.5-1 1-1 .6 0 1 .4 1 1zm-15.6 2.1c2.1 1 2.3 1.5 1.5 3.1-.8 1.5-1.7 1.8-3.7 1.4-2.7-.6-2.7-.6-.4.7l2.3 1.3-4.4 5c-2.4 2.7-4.2 5.5-4 6.1.5 1.5-1.3 1.7-2.2.3-.6-1 2.8-6.3 3.6-5.6.2.2 1-.2 1.7-1s.9-1.4.3-1.4c-.9 0-.7-2 1.1-7.8 1.1-3.7.9-3.6 4.2-2.1zm26.6-.1c0 .5-.4 1-1 1-.5 0-1-.5-1-1 0-.6.5-1 1-1 .6 0 1 .4 1 1zm1.6 4.9c2.1 2.5 2.3 4.1.4 4.1-.5 0-1.2-1.1-1.6-2.5-.3-1.4-1-2.5-1.4-2.5-.5 0-1.7-.3-2.7-.6-1.5-.5-1.5-.3.2.7 3 1.8 3.6 3.3 1.8 4.2-2.5 1.5-4.6-1.5-3.8-5.2.6-2.8.9-3 2.7-2 1.2.6 3.1 2.3 4.4 3.8zm-26 8.9c-.9 1.1-1.4 2.6-1 3.6.3.9.1 1.6-.4 1.6-2.2 0-2.3-2.2-.2-5.8 1.2-2 1.9-3.4 1.4-3-.4.4-1.3.3-2.1-.3-1-.9-1.1-1.5-.1-2.6 1-1.3 1.4-1 2.7 1.6 1.3 2.8 1.3 3.3-.3 4.9zm23.8-3.6c-.4.7-1.5 2.5-2.5 3.9-1.4 2-1.5 2.9-.7 3.7.9.9.7 1.2-1 1.2-2.6 0-2.7-.2-.6-4.3s3.4-5.7 4.6-5.7c.5 0 .6.6.2 1.2zm5.4 2.8c0 1.7.6 3.8 1.3 4.6.9 1.1.8 1.4-.8 1.4-1.7 0-2-.6-1.8-4 .1-2.2-.2-4-.7-4-.5 0-.6-.5-.3-1 1.1-1.7 2.2-.2 2.3 3zm-257-28.7c-1.8 1.4-3.1 4.7-1.9 4.7 1.3 0 .8 3.4-.6 4.3-1.9 1.2-4.5 11.1-3.7 14.1.5 2-.1 3.5-2.1 6.2-2.1 2.8-2.4 3.8-1.5 4.9 1.8 2.2 4.3 1.9 3.7-.4-.3-1.2.4-2.8 1.9-4.2 1.3-1.2 2.4-2.9 2.4-3.8 0-1.1.3-1.2 1.1-.4.7.7.8 2.2 0 4.8-1.2 4.5-.8 5.5 2.5 5.5 2.5 0 3.1-.9 1.4-2.6-.7-.7-.7-2 .1-4.1.8-2.5.7-3.8-.6-6.3-1.9-3.7-1.3-6 2.6-10.5 2.6-2.9 3-4.1 2.7-8.2-.3-4.5-.5-4.8-3.4-5-1.7-.1-3.8.3-4.6 1zm7.2.6c0 .5-.7 1.1-1.4 1.4-1 .4-1.3.1-.9-.9.6-1.5 2.3-1.9 2.3-.5zm-2.3 5.1c-.4 2.7-4.8 7.2-6.4 6.6-.7-.3-1.3-.3-1.3 0 0 .2 1.1.9 2.5 1.4 2.2.9 2.4 1.2 1.3 3.5-.9 2.1-1.7 2.5-3.7 2.1-2.5-.6-2.5-.5-.6.6 2 1.3 2.3 4.8.5 4.8-.5 0-.7.6-.4 1.3.2.7-.6 2.3-2 3.6-1.4 1.4-2.2 2.9-1.9 3.8.4 1 .1 1.4-.7 1.1-2.3-.7-2.1-2.2.8-5.4 2.3-2.6 2.7-3.5 1.9-5.7-.9-2.9 1.6-13.6 3.3-13.8.6-.1 1.6-.2 2.2-.3 1.6-.1 2.4-3.6.9-3.6-.6 0-1.1-.5-1.1-1 0-.6 1.1-1 2.5-1 1.9 0 2.4.5 2.2 2zm1.3 3.8c0 1.4-3.9 4.6-4.7 3.9-.3-.4.2-1.6 1.2-2.7 1.9-2.1 3.5-2.6 3.5-1.2zm-3.9 19.4c-.8 2.2-.8 3.5 0 4.4.9 1.1.7 1.4-1 1.4-1.8 0-2-.4-1.5-2.8.4-1.5 1-3.1 1.5-3.6.5-.6.2-1.7-.7-2.7-1-1.1-1.4-2.5-.9-3.6.6-1.6.8-1.4 2.1 1 1.2 2.2 1.3 3.5.5 5.9zm31.8-28c-1.9 1.5-3.2 4.8-2 4.8 1.4 0 .7 3.3-1 5.1-.9.9-2.4 4.7-3.2 8.3-.9 3.8-2.7 8.2-4.2 10.2-2.2 2.8-2.4 3.8-1.5 4.9 1.8 2.2 4.3 1.9 3.7-.4-.3-1.3.6-3 2.8-5.1 4-3.9 6.2-3.3 3.9 1.1-1.2 2.4-1.3 3.4-.3 4.5 1.9 2.3 4.2 1.8 3.6-.8-.4-1.4 0-2.9 1-4 1.5-1.7 1.5-2.1-.1-5.7-2.2-4.7-1.1-7.4 3.7-9.5 1.8-.7 4.3-2.5 5.6-4 2-2.1 2.2-2.9 1.2-3.9-1-.9-1.6-.6-3.3 1.5-2.5 3.6-3.8 3.5-3.8 0 0-1.6-.3-3.2-.7-3.6-.4-.4-.8-1.5-.8-2.4 0-2.1-2.6-2.6-4.6-1zm4.9 6.6c0 2.1-.7 3.2-3 4.5-1.6.9-3.4 1.5-3.9 1.1-.5-.3-.9-.3-.9.1 0 .3 1.1 1 2.5 1.5 2.2.9 2.4 1.2 1.3 3.5-.9 2.1-1.7 2.5-3.7 2.1l-2.6-.6 2.3 1.3 2.3 1.3-4.4 5c-2.4 2.7-4.2 5.5-4 6.1.5 1.5-1.3 1.7-2.2.3-.3-.6.3-2.2 1.4-3.6 1.2-1.5 2.1-2.4 2.1-2 0 .4.6.1 1.4-.6.8-.7 1-1.5.6-1.8-.8-.5 2.1-13.4 3.2-14.6.3-.3 1.4-.7 2.5-.8 1.9-.3 3.2-3.6 1.4-3.6-.6 0-1.1-.5-1.1-1 0-.6 1.1-1 2.3-1 1.9 0 2.4.6 2.5 2.8zm8.2.2c0 .5-.4 1-1 1-.5 0-1-.5-1-1 0-.6.5-1 1-1 .6 0 1 .4 1 1zm-5.5 4.9c-1.5 1.5-6.5 2.5-6.5 1.3 0-1.3 1.7-2 5-2.1 1.5-.1 2 .3 1.5.8zm-5.9 16.9c-.9 1.1-1.4 2.6-1 3.6.3.9.1 1.6-.4 1.6-2.2 0-2.3-2.2-.2-5.8 1.2-2 1.9-3.4 1.4-3-.4.4-1.3.3-2.1-.3-1-.9-1.1-1.5-.1-2.6 1-1.3 1.4-1 2.7 1.6 1.3 2.8 1.3 3.3-.3 4.9zm31.3-27.6c-1.9 1.5-3.2 4.8-2 4.8 1.4 0 .8 3.4-.7 4.4-1.8 1-5.1 8.5-5.2 11.2 0 1.2-1.4 4-3.1 6.3-2.4 3.4-2.8 4.5-1.8 5.7 1.7 2.1 4.2 1.8 3.6-.5-.3-1.3.6-3 2.8-5.1 4-3.9 6.2-3.3 3.9 1.1-1.2 2.4-1.3 3.4-.3 4.5 1.9 2.3 4.2 1.8 3.6-.8-.4-1.4 0-2.9 1-4 1.5-1.7 1.5-2.1 0-5.3-1.6-3.3-1.4-6.5.3-6.5.5 0 2.2 1.7 3.9 3.7 2.4 2.9 3.3 3.5 4.3 2.5.9-.9.7-1.7-.8-3.4-3.5-4-5.4-7.7-4.4-8.3 1.2-.7 1.3-5.8.3-6.9-.4-.4-.8-1.5-.8-2.4 0-2.1-2.6-2.6-4.6-1zm4.9 6.7c0 2.1-.6 3.1-2.4 4-1.3.6-2.4 1.5-2.4 2.1 0 .7-.7.7-2.1-.1-2.3-1.2-1.5-2.8 1.7-3.3 2-.3 3.3-3.6 1.5-3.6-.6 0-1.1-.5-1.1-1 0-.6 1.1-1 2.3-1 1.9 0 2.4.5 2.5 2.9zm.1 7c.6 1 .7 2.1.4 2.5-.7.7-4.3-2.3-4.3-3.6 0-1.6 2.9-.8 3.9 1.1zm-6.5.2c2.1 1 2.3 1.5 1.5 3.1-.8 1.5-1.7 1.8-3.7 1.4-2.7-.6-2.7-.6-.4.7l2.3 1.3-4.4 5c-2.4 2.7-4.2 5.5-4 6.1.5 1.5-1.3 1.7-2.2.3-.6-1 2.8-6.3 3.6-5.6.2.2 1-.2 1.7-1s.9-1.4.3-1.4c-.9 0-.7-2 1.1-7.8 1.1-3.7.9-3.6 4.2-2.1zm2.2 13.7c-.9 1.1-1.4 2.6-1 3.6.3.9.1 1.6-.4 1.6-2.2 0-2.3-2.2-.2-5.8 1.2-2 1.9-3.4 1.4-3-.4.4-1.3.3-2.1-.3-1-.9-1.1-1.5-.1-2.6 1-1.3 1.4-1 2.7 1.6 1.3 2.8 1.3 3.3-.3 4.9zm9.4-6.8c0 .5-.4 1-1 1-.5 0-1-.5-1-1 0-.6.5-1 1-1 .6 0 1 .4 1 1zm53.9-20.8c-1.9 1.5-3.2 4.8-2 4.8 1.4 0 .8 3.4-.7 4.4-1.8 1-5.1 8.5-5.2 11.2 0 1.2-1.4 4-3.1 6.3-2.4 3.4-2.8 4.5-1.8 5.7 1.7 2.1 4.2 1.8 3.6-.5-.3-1.3.6-3 2.8-5.1 4-3.9 6.2-3.3 3.9 1.1-1.2 2.4-1.3 3.4-.3 4.5 1.9 2.3 4.2 1.8 3.6-.8-.4-1.4 0-2.9 1-4 1.5-1.7 1.5-2.1-.1-5.4-1.5-3.3-1.5-3.9-.2-5.9 1.5-2.3 6.6-3.8 11.1-3.2 1.2.1 2-.4 2-1.3 0-1-1.3-1.6-4.2-1.8-4-.3-4.3-.5-4.3-3.1 0-1.5-.3-3.1-.7-3.5-.4-.4-.8-1.5-.8-2.4 0-2.1-2.6-2.6-4.6-1zm4.9 6.7c0 2.1-.6 3.1-2.4 4-1.3.6-2.4 1.5-2.4 2.1 0 .7-.7.7-2.1-.1-2.3-1.2-1.5-2.8 1.7-3.3 2-.3 3.3-3.6 1.5-3.6-.6 0-1.1-.5-1.1-1 0-.6 1.1-1 2.3-1 1.9 0 2.4.5 2.5 2.9zm2.2 5c0 .9-5.2 2.2-6 1.5-.7-.7 2.3-2.4 4.3-2.4.9 0 1.7.4 1.7.9zm7 .1c0 .5-.4 1-1 1-.5 0-1-.5-1-1 0-.6.5-1 1-1 .6 0 1 .4 1 1zm-15.6 2.1c2.1 1 2.3 1.5 1.5 3.1-.8 1.5-1.7 1.8-3.7 1.4-2.7-.6-2.7-.6-.4.7l2.3 1.3-4.4 5c-2.4 2.7-4.2 5.5-4 6.1.5 1.5-1.3 1.7-2.2.3-.6-1 2.8-6.3 3.6-5.6.2.2 1-.2 1.7-1s.9-1.4.3-1.4c-.9 0-.7-2 1.1-7.8 1.1-3.7.9-3.6 4.2-2.1zm2.2 13.7c-.9 1.1-1.4 2.6-1 3.6.3.9.1 1.6-.4 1.6-2.2 0-2.3-2.2-.2-5.8 1.2-2 1.9-3.4 1.4-3-.4.4-1.3.3-2.1-.3-1-.9-1.1-1.5-.1-2.6 1-1.3 1.4-1 2.7 1.6 1.3 2.8 1.3 3.3-.3 4.9zM2.5 214.9c-.3.5.4 2.4 1.4 4.3 1.7 2.8 1.9 4.7 1.6 12.5-.2 5.6 0 9.5.7 9.9.5.3.8 3.2.7 6.3-.4 6 .3 8.1 2.7 8.1 1.2 0 1.4-.7 1-2.8-.8-3.6.7-8.7 2.5-8.7.8 0 1.4-.5 1.4-1.2 0-.6.4-1.5.9-2s.5.4.1 2.2c-.5 1.6-.9 4.3-.8 5.8 0 1.6-.4 2.6-1.1 2.4-.6-.2-1-1.9-.9-3.8l.2-3.4-.9 2.9c-.6 2-.6 3.4.2 4.3 1.9 2.4 3.7 1.5 3.6-1.9 0-1.8.3-4.5.7-6 .6-2.3.3-2.9-1.7-3.9-1.9-.8-2.4-1.7-2-3.5.3-1.8.9-2.3 2.1-1.9 2.2.7 5.6-1.8 4.7-3.3-1-1.7-2.2-1.5-4.2.5-1.5 1.6-1.7 1.6-1.2.2.4-.9.2-2.1-.4-2.7-.6-.6-.6-1.2.1-1.6 1.4-.9 1.5-6.3.1-7.1-.5-.3-.7-1.2-.4-2 .8-2-2-2.9-4.5-1.6-1.7.9-2.2.8-3.1-.9-1.1-2.1-2.5-2.6-3.5-1.1zM5 216c0 .5-.4 1-1 1-.5 0-1-.5-1-1 0-.6.5-1 1-1 .6 0 1 .4 1 1zm8.8 8c0 2.3-.4 3-1.8 3-1.3 0-1.7-.5-1.3-2 .3-1.1 0-2-.6-2S9 224.5 9 226.4s-.5 3.7-1 3.9c-.6.3-.5.4.2.3 1.4-.3 3.8 3.7 3.8 6.1 0 1.1-.7 1.4-2.7 1-2.1-.4-1.8-.2 1 1 4.1 1.7 4.5 4 .6 3.5-4.7-.5-4.8-.6-4.3-9.7.5-9 1.5-11.4 5-11.5 1.7 0 2.1.6 2.2 3zm-.8 7.1c0 1-.4 1.9-1 1.9-.5 0-1-.4-1-.9s-.3-1.7-.6-2.5c-.5-1.2-.2-1.5 1-1 .9.3 1.6 1.5 1.6 2.5zm-2.5 12.7c-.6.4-1.1 3.1-1 6 0 3-.4 5.1-1 4.8-.5-.2-.9-1.2-.7-2.2.1-1 .3-3.6.4-5.7.1-2.6.6-3.7 1.7-3.7 1 0 1.2.3.6.8zm126.4-26.6c-1.8 1.5-3.2 4.8-2 4.8 1.1 0 .7 3.6-.6 5.2-1.2 1.5-1.2 12.7 0 14.6.5.7.7 3.6.6 6.5-.4 5.6.4 7.7 2.7 7.7 1.2 0 1.4-.7 1-2.7-.8-3.7.7-8.8 2.5-8.8.8 0 1.4-.5 1.4-1.2 0-.6.4-1.5.9-2s.5.4.1 2.2c-.5 1.6-.9 4.3-.8 5.8 0 1.6-.4 2.6-1.1 2.4-.6-.2-1-1.9-.9-3.8l.2-3.4-.9 2.9c-.6 2-.6 3.4.2 4.3 1.9 2.4 3.7 1.5 3.6-1.9 0-1.8.3-4.5.7-6 .6-2.3.3-2.9-1.7-3.8-3.5-1.6-2.7-6.5 1.4-8.6 3.4-1.8 3.2-4-.3-3.7-1.3.1-1.9 0-1.3-.3 1.1-.5 1-2.9-.3-6.4-.4-.8-.7-2.2-.7-3-.1-1.9-2.7-2.4-4.7-.8zm4.9 6.8c0 2.2-.4 3-1.6 3.1-1 0-.6.5 1.1 1.1 3.2 1.2 3.4 1.9.7 3.6-1.7 1-2 1-2-.3 0-.8.5-1.5 1.2-1.5.6 0 .8-.3.5-.6-.4-.4-1.3-.1-2.1.5-2.2 1.8-6.2-.4-4.6-2.5.7-.7 1.6-1.1 2.1-.8.5.3 1.2-.3 1.6-1.2.4-1 .2-1.9-.5-2.2-2.1-.7-1.3-2.2 1.1-2.2 2 0 2.4.5 2.5 3zm-1.8 11.6c0 2.3-.3 2.6-2.7 2.1-2.1-.4-1.8-.2 1 1 5.4 2.3 4.8 4.9-.9 3.4-2.8-.7-2.9-1-3-6.4v-5.6l2.8 1.5c2 1 2.8 2.2 2.8 4zm-1.5 8.2c-.6.4-1.1 3.1-1 6 0 3-.4 5.1-1 4.8-.5-.2-.9-1.2-.7-2.2.1-1 .3-3.6.4-5.7.1-2.6.6-3.7 1.7-3.7 1 0 1.2.3.6.8zm67.4-26.6c-1.8 1.5-3.2 4.8-2.1 4.8.4 0 .8.9.8 2 0 1.5-1.5 2.6-6.1 4.4-5.7 2.3-8.4 5.5-4 4.8 1.1-.2 3.4-.5 5-.5 2.9-.2 3-.1 2.8 3.7-.2 2.2.2 4.5.8 5.2.6.7.9 3.7.8 6.6-.4 5.7.3 7.8 2.7 7.8 1.2 0 1.4-.7 1-2.7-.8-3.7.7-8.8 2.5-8.8.8 0 1.4-.5 1.4-1.2 0-.6.4-1.5.9-2s.5.4.1 2.2c-.5 1.6-.9 4.3-.8 5.8 0 1.6-.4 2.6-1.1 2.4-.6-.2-1-1.9-.9-3.8l.2-3.4-.9 2.9c-.6 2-.6 3.4.2 4.3 1.9 2.4 3.7 1.5 3.6-1.9 0-1.8.3-4.5.7-6 .6-2.3.3-2.9-1.7-3.9-1.9-.8-2.4-1.7-2-3.5.3-1.8.9-2.3 2.1-1.9 2.2.7 5.6-1.8 4.7-3.3-1-1.7-2.2-1.5-4.2.5-1.5 1.6-1.7 1.6-1.2.2.4-.9.2-2.1-.4-2.7-.6-.6-.6-1.2.1-1.6 1.2-.8 1.5-5.9.4-7-.4-.4-.8-1.5-.8-2.4 0-2.1-2.6-2.6-4.6-1zm4.9 6.8c0 2.3-.4 3-1.8 3-1.3 0-1.7-.5-1.3-2 .3-1.1 0-2-.6-2s-1.1-.5-1.1-1c0-.6 1.1-1 2.3-1 2 0 2.4.5 2.5 3zm-2.7 4c2.5 1.4 2.5 4-.1 4-1.1 0-2-.6-2-1.4 0-.8-.5-1.8-1.2-2.2-.6-.4-.8-.3-.5.3.9 1.5-2.4 2.6-3.6 1.4-.7-.7-.2-1.4 1.4-2 3.2-1.3 3.7-1.3 6-.1zm-13.1 4c0 .5-.4 1-1 1-.5 0-1-.5-1-1 0-.6.5-1 1-1 .6 0 1 .4 1 1zm12.3.6c1 .4 1.7 1.7 1.7 3.1 0 2.2-.3 2.4-2.7 2-2.1-.4-1.8-.2 1 1 5.4 2.3 4.8 4.9-.9 3.4-2.7-.7-2.9-1.1-2.9-5.9 0-3.2.4-5 1-4.7.5.3 1.8.8 2.8 1.1zm8.7-.6c0 .5-.4 1-1 1-.5 0-1-.5-1-1 0-.6.5-1 1-1 .6 0 1 .4 1 1zm-8.5 11.8c-.6.4-1.1 3.1-1 6 0 3-.4 5.1-1 4.8-.5-.2-.9-1.2-.7-2.2.1-1 .3-3.6.4-5.7.1-2.6.6-3.7 1.7-3.7 1 0 1.2.3.6.8zm25.4-26.6c-1.8 1.5-3.2 4.8-2.1 4.8.4 0 .8.9.8 2s-.5 2-1.1 2c-.6 0-2 .6-3.1 1.4-1.9 1.4-1.9 1.5.4 3.6 2 1.8 2.2 2.8 1.7 6-.4 2.4-.2 4.1.5 4.5.7.5 1.1 2.9.9 6.4-.4 6 .3 8.1 2.7 8.1 1.2 0 1.4-.7 1-2.7-.8-3.7.7-8.8 2.5-8.8.8 0 1.4-.5 1.4-1.2 0-.6.4-1.5.9-2s.5.4.1 2.2c-.5 1.6-.9 4.3-.8 5.8 0 1.6-.4 2.6-1.1 2.4-.6-.2-1-1.9-.9-3.8l.2-3.4-.9 2.9c-.6 2-.6 3.4.2 4.3 1.9 2.4 3.7 1.5 3.6-1.9 0-1.8.3-4.5.7-6 .6-2.3.3-2.9-1.7-3.9-1.9-.8-2.4-1.7-2-3.5.3-1.8.9-2.3 2.1-1.9 2.2.7 5.6-1.8 4.7-3.3-1-1.7-2.2-1.5-4.2.5-1.7 1.7-1.7 1.7-1.1.1.3-1 .2-2-.3-2.3-.6-.4-1 .1-1 .9 0 1.8-.8 2-3 .6-1.5-1-1-2 1.2-2.4 2.6-.4 3.8-1.8 3.8-4.5 0-1.5-.3-3.1-.7-3.5-.4-.4-.8-1.5-.8-2.4 0-2.1-2.6-2.6-4.6-1zm4.9 6.8c0 1.9-.4 3-1.3 3-.7 0-2.2.3-3.2.6-1.7.5-1.7.5 0-.6 1.8-1.2 2.4-4 .7-4-.5 0-1-.5-1-1 0-.6 1.1-1 2.3-1 2 0 2.4.5 2.5 3zm-8.1 4.7c-.9.9-2 1.3-2.4.9-.4-.4-.1-1.1.7-1.6 2.5-1.6 3.5-1.1 1.7.7zm4.6 3.9c1 .4 1.7 1.7 1.7 3.1 0 2.2-.3 2.4-2.7 2-2.1-.4-1.8-.2 1 1 5.4 2.3 4.8 4.9-.9 3.4-2.7-.7-2.9-1.1-2.9-5.9 0-3.2.4-5 1-4.7.5.3 1.8.8 2.8 1.1zm8.7-.6c0 .5-.4 1-1 1-.5 0-1-.5-1-1 0-.6.5-1 1-1 .6 0 1 .4 1 1zm-8.5 11.8c-.6.4-1.1 3.1-1 6 0 3-.4 5.1-1 4.8-.5-.2-.9-1.2-.7-2.2.1-1 .3-3.6.4-5.7.1-2.6.6-3.7 1.7-3.7 1 0 1.2.3.6.8zm62.4-26.6c-1.9 1.5-3.2 4.8-2 4.8 1.8 0 .5 3.5-2.4 6.2l-3 2.8 2.3 1.8c1.8 1.4 2.2 2.4 1.7 4.5-.5 1.6-.2 3.3.5 4.2.7.8 1.1 3.6.9 6.7-.4 5.7.3 7.8 2.7 7.8 1.2 0 1.4-.7 1-2.7-.8-3.7.7-8.8 2.5-8.8.8 0 1.4-.5 1.4-1.2 0-.6.4-1.5.9-2s.5.4.1 2.2c-.5 1.6-.9 4.3-.8 5.8 0 1.6-.4 2.6-1.1 2.4-.6-.2-1-1.9-.9-3.8l.2-3.4-.9 2.9c-.6 2-.6 3.4.2 4.3 1.9 2.4 3.7 1.5 3.6-1.9 0-1.8.3-4.5.7-6 .6-2.3.3-2.9-1.7-3.8-1.9-.9-2.3-1.7-2-4.1.4-2.5.7-2.7 2.4-1.8 2.9 1.5 4-.1 3.6-5.2-.2-3.5-.7-4.4-2-4.3-1.1.1-1.8-.5-1.8-1.5s-.3-2.1-.7-2.5c-.4-.4-.8-1.5-.8-2.4 0-2.1-2.6-2.6-4.6-1zm4.9 6.8c0 2.3-.4 3-1.8 3-1.3 0-1.7-.5-1.3-2 .3-1.1 0-2-.6-2s-1.1-.5-1.1-1c0-.6 1.1-1 2.3-1 2 0 2.4.5 2.5 3zm4.2 1.9c0 .5-.4 1.1-1 1.3-.5.1-1.1 1.3-1.3 2.5-.2 1.2-.7 2.6-1.2 3-.4.5-.5-.2-.2-1.5.3-1.2.1-2.2-.6-2.2-.6 0-.2-.9.9-1.9 2.1-2.2 3.4-2.6 3.4-1.2zm-6.9 2.1c2.6 1.5 2.4 3.7-.5 4.2-1.8.4-2.2.1-1.9-1.3.3-.9-.1-2-.8-2.4-.7-.5-1-.4-.6.1.3.5-.6 1.4-1.9 2.1-3 1.4-3.1-.1-.2-2.1 2.6-1.9 3.3-1.9 5.9-.6zm.9 6c0 .5-.4 1-1 1-.5 0-1-.5-1-1 0-.6.5-1 1-1 .6 0 1 .4 1 1zm0 3.3c0 .5-1.2.7-2.7.4-2.1-.4-1.8-.2 1 1 4.3 1.8 4.4 4 .1 3.5-3.9-.4-4.7-1.5-3.9-5 .6-2.9.8-3 3.1-2 1.3.6 2.4 1.5 2.4 2.1zm-1.5 6.5c-.6.4-1.1 3.1-1 6 0 3-.4 5.1-1 4.8-.5-.2-.9-1.2-.7-2.2.1-1 .3-3.6.4-5.7.1-2.6.6-3.7 1.7-3.7 1 0 1.2.3.6.8zM43.8 218.3c-1.8 1.4-3.1 4.7-1.9 4.7 1.4 0 .7 3.3-1 5.1-2.5 2.5-4.4 11.6-2.9 13.4.7.8 1.1 3.6.9 6.7-.4 5.7.3 7.8 2.7 7.8 1.2 0 1.4-.7 1-2.7-.8-3.7.7-8.8 2.5-8.8.8 0 1.4-.5 1.4-1.2 0-.6.4-1.5.9-2s.5.4.1 2.2c-.5 1.6-.9 4.3-.8 5.8 0 1.6-.4 2.6-1.1 2.4-.6-.2-1-1.9-.9-3.8l.2-3.4-.9 2.9c-.6 2-.6 3.4.2 4.3 1.9 2.4 3.7 1.5 3.6-2 0-1.7.3-4.4.7-5.9.6-2.3.3-2.9-1.8-3.9-2.5-1.1-2.6-1.3-1-4.3.8-1.7 2.6-4.3 4-5.7 2-2.2 2.4-3.5 2.1-7.5-.3-4.6-.4-4.9-3.4-5.1-1.7-.1-3.8.3-4.6 1zm7.2.6c0 .5-.7 1.1-1.4 1.4-1 .4-1.3.1-.9-.9.6-1.5 2.3-1.9 2.3-.5zm-2.3 5.1c-.4 2.7-4.8 7.2-6.4 6.6-.7-.3-1.3-.3-1.3 0 0 .2 1.1.9 2.5 1.4 2.2.9 2.4 1.2 1.3 3.5-.9 2.1-1.7 2.5-3.7 2.1-1.6-.3-1.2.1 1.2 1.1 4.3 1.8 4.4 4 .1 3.5-4.3-.5-4.8-1.5-3.5-6.9 1.5-6 2.3-7.4 4.7-7.7 2-.3 3.3-3.6 1.5-3.6-.6 0-1.1-.5-1.1-1 0-.6 1.1-1 2.5-1 1.9 0 2.4.5 2.2 2zm1.3 3.8c0 1.4-3.9 4.6-4.7 3.9-.3-.4.2-1.6 1.2-2.7 1.9-2.1 3.5-2.6 3.5-1.2zm-7.5 16c-.6.4-1.1 3.1-1 6 0 3-.4 5.1-1 4.8-.5-.2-.9-1.2-.7-2.2.1-1 .3-3.6.4-5.7.1-2.6.6-3.7 1.7-3.7 1 0 1.2.3.6.8zm33.4-25.6c-1.9 1.5-3.2 4.8-2 4.8 1.4 0 .7 3.3-1 5.1-2.5 2.5-4.4 11.6-2.9 13.4.7.8 1.1 3.6.9 6.7-.4 5.7.3 7.8 2.7 7.8 1.2 0 1.4-.7 1-2.7-.8-3.7.7-8.8 2.5-8.8.8 0 1.4-.5 1.4-1.2 0-.6.4-1.5.9-2s.5.4.1 2.2c-.5 1.6-.9 4.3-.8 5.8 0 1.6-.4 2.6-1.1 2.4-.6-.2-1-1.9-.9-3.8l.2-3.4-.9 2.9c-.6 2-.6 3.4.2 4.3 1.9 2.4 3.7 1.5 3.6-2 0-1.7.3-4.4.7-5.9.6-2.3.3-2.9-1.8-3.9-2.5-1.1-2.5-1.3-1.1-4 .8-1.6 2.9-3.5 4.7-4.3 1.7-.7 4.3-2.5 5.6-4 2-2.1 2.2-2.9 1.2-3.9-1-.9-1.6-.6-3.3 1.5-2.5 3.6-3.8 3.5-3.8 0 0-1.6-.3-3.2-.7-3.6-.4-.4-.8-1.5-.8-2.4 0-2.1-2.6-2.6-4.6-1zm4.9 6.6c0 2.1-.7 3.2-3 4.5-1.6.9-3.4 1.5-3.9 1.1-.5-.3-.9-.3-.9.1 0 .3 1.1 1 2.5 1.5 2.2.9 2.4 1.2 1.3 3.5-.9 2.1-1.7 2.5-3.7 2.1-1.6-.3-1.2.1 1.2 1.1 4.3 1.8 4.4 4 .1 3.5-4.3-.5-4.8-1.5-3.5-6.9 1.5-6 2.3-7.4 4.7-7.7 2-.3 3.3-3.6 1.5-3.6-.6 0-1.1-.5-1.1-1 0-.6 1.1-1 2.3-1 1.9 0 2.4.6 2.5 2.8zm8.2.2c0 .5-.4 1-1 1-.5 0-1-.5-1-1 0-.6.5-1 1-1 .6 0 1 .4 1 1zm-5.5 4.9c-1.5 1.5-6.5 2.5-6.5 1.3 0-1.3 1.7-2 5-2.1 1.5-.1 2 .3 1.5.8zm-9 13.9c-.6.4-1.1 3.1-1 6 0 3-.4 5.1-1 4.8-.5-.2-.9-1.2-.7-2.2.1-1 .3-3.6.4-5.7.1-2.6.6-3.7 1.7-3.7 1 0 1.2.3.6.8zm34.4-24.6c-1.9 1.5-3.2 4.8-2 4.8 1.5 0 .7 3.4-1.1 4.7-.9.7-2.4 3.3-3.4 5.8-1.4 3.8-1.5 5-.4 7 .8 1.4 1.1 4.3.8 7.4-.5 5 .4 7.1 3 7.1 1 0 1.2-.8.8-2.8-.8-3.6.7-8.7 2.5-8.7.8 0 1.4-.5 1.4-1.2 0-.6.4-1.5.9-2s.5.4.1 2.2c-.5 1.6-.9 4.3-.8 5.8 0 1.6-.4 2.6-1.1 2.4-.6-.2-1-1.9-.9-3.8l.2-3.4-.9 2.9c-.6 2-.6 3.4.2 4.3 1.9 2.4 3.7 1.5 3.6-2 0-1.7.3-4.4.7-5.9.6-2.2.3-2.9-1.8-4-2.4-1.2-2.4-1.5-1-3.3 1.4-1.9 1.5-1.9 4.9 1.9 2.6 3 3.7 3.7 4.6 2.8.9-.9.7-1.7-.8-3.4-3.5-4-5.4-7.7-4.4-8.3 1.2-.7 1.3-5.8.3-6.9-.4-.4-.8-1.5-.8-2.4 0-2.1-2.6-2.6-4.6-1zm4.9 6.7c0 2.1-.6 3.1-2.4 4-1.3.6-2.4 1.5-2.4 2.1 0 .7-.7.7-2.1-.1-2.3-1.2-1.5-2.8 1.7-3.3 2-.3 3.3-3.6 1.5-3.6-.6 0-1.1-.5-1.1-1 0-.6 1.1-1 2.3-1 1.9 0 2.4.5 2.5 2.9zm.1 7c.6 1 .7 2.1.4 2.5-.7.7-4.3-2.3-4.3-3.6 0-1.6 2.9-.8 3.9 1.1zm-6.5.2c2.1 1 2.3 1.5 1.5 3.1-.8 1.5-1.8 1.8-3.7 1.4-1.9-.3-1.5 0 1.1 1.1 4.3 1.8 4.4 4 .1 3.5-4.3-.5-4.9-1.6-3.5-6.2 1.3-4.5 1.1-4.4 4.5-2.9zM119 240c0 .5-.4 1-1 1-.5 0-1-.5-1-1 0-.6.5-1 1-1 .6 0 1 .4 1 1zm-12.5 3.8c-.6.4-1.1 3.1-1 6 0 3-.4 5.1-1 4.8-.5-.2-.9-1.2-.7-2.2.1-1 .3-3.6.4-5.7.1-2.6.6-3.7 1.7-3.7 1 0 1.2.3.6.8zm66.4-24.6c-1.9 1.5-3.2 4.8-2 4.8 1.5 0 .7 3.4-1.1 4.7-.9.7-2.4 3.3-3.4 5.8-1.4 3.8-1.5 5-.4 7 .8 1.4 1.1 4.3.8 7.4-.5 5 .4 7.1 3 7.1 1 0 1.2-.8.8-2.8-.8-3.6.7-8.7 2.5-8.7.8 0 1.4-.5 1.4-1.2 0-.6.4-1.5.9-2s.5.4.1 2.2c-.5 1.6-.9 4.3-.8 5.8 0 1.6-.4 2.6-1.1 2.4-.6-.2-1-1.9-.9-3.8l.2-3.4-.9 2.9c-.6 2-.6 3.4.2 4.3 1.9 2.4 3.7 1.5 3.6-2 0-1.7.3-4.4.7-5.9.6-2.2.3-2.9-1.9-4l-2.6-1.3 2.3-2.9c2-2.5 3.1-2.9 7.8-3.1 3.9-.1 5.4-.6 5.4-1.6 0-.9-1.4-1.5-4.2-1.7-4-.3-4.3-.5-4.3-3.1 0-1.5-.3-3.1-.7-3.5-.4-.4-.8-1.5-.8-2.4 0-2.1-2.6-2.6-4.6-1zm4.9 6.7c0 2.1-.6 3.1-2.4 4-1.3.6-2.4 1.5-2.4 2.1 0 .7-.7.7-2.1-.1-2.3-1.2-1.5-2.8 1.7-3.3 2-.3 3.3-3.6 1.5-3.6-.6 0-1.1-.5-1.1-1 0-.6 1.1-1 2.3-1 1.9 0 2.4.5 2.5 2.9zm2.2 5c0 .9-5.2 2.2-6 1.5-.7-.7 2.3-2.4 4.3-2.4.9 0 1.7.4 1.7.9zm7 .1c0 .5-.4 1-1 1-.5 0-1-.5-1-1 0-.6.5-1 1-1 .6 0 1 .4 1 1zm-15.6 2.1c2.1 1 2.3 1.5 1.5 3.1-.8 1.5-1.8 1.8-3.7 1.4-1.9-.3-1.5 0 1.1 1.1 4.3 1.8 4.4 4 .1 3.5-4.3-.5-4.9-1.6-3.5-6.2 1.3-4.5 1.1-4.4 4.5-2.9zm-.9 10.7c-.6.4-1.1 3.1-1 6 0 3-.4 5.1-1 4.8-.5-.2-.9-1.2-.7-2.2.1-1 .3-3.6.4-5.7.1-2.6.6-3.7 1.7-3.7 1 0 1.2.3.6.8zm98.4-24.6c-1.9 1.5-3.2 4.8-2 4.8 1.5 0 .7 3.4-1.1 4.7-.9.7-2.4 3.3-3.4 5.8-1.4 3.8-1.5 5-.4 7 .8 1.4 1.1 4.3.8 7.4-.5 5 .4 7.1 3 7.1 1 0 1.2-.8.8-2.8-.8-3.6.7-8.7 2.5-8.7.8 0 1.4-.5 1.4-1.2 0-.6.4-1.5.9-2s.5.4.1 2.2c-.5 1.6-.9 4.3-.8 5.8 0 1.6-.4 2.6-1.1 2.4-.6-.2-1-1.9-.9-3.8l.2-3.4-.9 2.9c-.6 2-.6 3.4.2 4.3 1.9 2.4 3.7 1.5 3.6-2 0-1.7.3-4.4.7-5.9.6-2.2.3-2.9-1.9-4l-2.6-1.3 2.3-2.9c2-2.5 3.1-2.9 7.8-3.1 3.9-.1 5.4-.6 5.4-1.6 0-.9-1.4-1.5-4.2-1.7-4-.3-4.3-.5-4.3-3.1 0-1.5-.3-3.1-.7-3.5-.4-.4-.8-1.5-.8-2.4 0-2.1-2.6-2.6-4.6-1zm4.9 6.7c0 2.1-.6 3.1-2.4 4-1.3.6-2.4 1.5-2.4 2.1 0 .7-.7.7-2.1-.1-2.3-1.2-1.5-2.8 1.7-3.3 2-.3 3.3-3.6 1.5-3.6-.6 0-1.1-.5-1.1-1 0-.6 1.1-1 2.3-1 1.9 0 2.4.5 2.5 2.9zm2.2 5c0 .9-5.2 2.2-6 1.5-.7-.7 2.3-2.4 4.3-2.4.9 0 1.7.4 1.7.9zm7 .1c0 .5-.4 1-1 1-.5 0-1-.5-1-1 0-.6.5-1 1-1 .6 0 1 .4 1 1zm-15.6 2.1c2.1 1 2.3 1.5 1.5 3.1-.8 1.5-1.8 1.8-3.7 1.4-1.9-.3-1.5 0 1.1 1.1 4.3 1.8 4.4 4 .1 3.5-4.3-.5-4.9-1.6-3.5-6.2 1.3-4.5 1.1-4.4 4.5-2.9zm-.9 10.7c-.6.4-1.1 3.1-1 6 0 3-.4 5.1-1 4.8-.5-.2-.9-1.2-.7-2.2.1-1 .3-3.6.4-5.7.1-2.6.6-3.7 1.7-3.7 1 0 1.2.3.6.8z"></path>
  </symbol>
</svg>
