<?xml version="1.0" standalone="no"?>
<!DOCTYPE svg PUBLIC "-//W3C//DTD SVG 20010904//EN"
 "http://www.w3.org/TR/2001/REC-SVG-20010904/DTD/svg10.dtd">
<svg version="1.0" xmlns="http://www.w3.org/2000/svg"
 width="320.000000pt" height="256.000000pt" viewBox="0 0 320.000000 256.000000"
 preserveAspectRatio="xMidYMid meet">

<g transform="translate(0.000000,256.000000) scale(0.100000,-0.100000)"
fill="#000000" stroke="none">
<path d="M2340 2260 c-9 -18 -8 -26 7 -43 10 -12 22 -25 27 -28 13 -10 -1 -56
-19 -63 -11 -4 -14 -2 -9 6 5 7 2 9 -8 5 -26 -10 -30 5 -7 29 22 24 20 59 -3
52 -20 -7 -50 -66 -42 -80 17 -27 13 -111 -7 -150 -16 -31 -18 -43 -8 -54 18
-22 42 -18 36 7 -4 14 3 35 19 58 13 19 24 41 24 47 0 17 28 25 36 12 13 -20
13 -69 0 -65 -6 2 -10 19 -9 38 l2 34 -9 -29 c-10 -33 1 -56 27 -56 11 0 14 7
9 23 -3 12 0 37 6 54 13 37 5 53 -29 56 -17 1 -19 4 -10 18 6 9 16 15 22 13 6
-3 24 9 40 26 23 24 26 33 16 43 -10 9 -16 7 -29 -11 -10 -13 -21 -20 -25 -16
-4 4 -2 13 4 20 6 7 9 25 7 41 -4 37 -50 46 -68 13z m60 0 c0 -5 -5 -10 -11
-10 -6 0 -8 -7 -4 -17 5 -14 1 -13 -14 4 -27 29 -26 33 4 33 14 0 25 -4 25
-10z m-65 -158 c-3 -3 -11 0 -18 7 -9 10 -8 11 6 5 10 -3 15 -9 12 -12z m-35
-127 c-6 -7 -8 -20 -4 -29 6 -17 -11 -23 -21 -7 -8 13 16 62 27 55 5 -3 4 -11
-2 -19z"/>
<path d="M2670 2251 c-9 -17 -7 -26 7 -46 10 -13 21 -25 26 -25 14 0 7 -19
-12 -30 -17 -9 -19 -7 -15 19 6 38 -13 49 -39 23 -14 -15 -21 -36 -23 -70 -2
-41 2 -54 21 -72 22 -21 23 -24 8 -57 -12 -31 -13 -38 0 -50 9 -9 23 -12 41
-7 22 5 27 11 22 28 -3 11 0 36 6 53 11 29 9 35 -11 57 -13 13 -34 27 -47 30
-13 4 -24 13 -24 21 0 17 29 10 47 -12 10 -13 14 -12 30 4 11 11 24 18 29 16
5 -2 19 3 29 11 27 20 7 43 -23 27 -21 -11 -23 -4 -8 31 4 9 6 27 4 40 -4 32
-52 38 -68 9z m60 -1 c0 -5 -5 -10 -11 -10 -6 0 -8 -7 -4 -17 5 -14 1 -13 -14
4 -27 29 -26 33 4 33 14 0 25 -4 25 -10z m-34 -270 c1 -30 -9 -39 -21 -20 -5
8 10 50 18 50 1 0 2 -14 3 -30z m-29 -10 c0 -29 -10 -39 -21 -22 -7 11 4 52
13 52 4 0 8 -13 8 -30z"/>
<path d="M2990 2251 c-9 -17 -7 -26 7 -46 10 -13 21 -25 26 -25 14 0 7 -19
-12 -30 -17 -9 -19 -7 -15 19 6 38 -13 49 -39 23 -23 -23 -33 -107 -15 -129 5
-7 8 -38 6 -69 -2 -45 1 -59 14 -68 24 -15 31 -3 19 35 l-11 34 5 -33 c3 -24
1 -32 -8 -29 -6 2 -12 9 -11 15 1 7 2 21 3 33 1 14 6 19 16 15 10 -3 15 1 15
14 0 23 16 35 26 19 12 -21 13 -70 0 -66 -6 2 -10 19 -9 38 l2 34 -9 -29 c-6
-20 -6 -34 2 -43 19 -24 37 -15 36 20 0 17 3 45 7 60 7 26 4 29 -44 49 -28 12
-51 28 -51 35 0 15 30 6 47 -14 10 -13 14 -12 30 4 11 11 24 18 29 16 5 -2 19
3 29 11 27 20 7 43 -23 27 -21 -11 -23 -4 -8 31 4 9 6 27 4 40 -4 32 -52 38
-68 9z m60 -1 c0 -5 -5 -10 -11 -10 -6 0 -8 -7 -4 -17 5 -14 1 -13 -14 4 -27
29 -26 33 4 33 14 0 25 -4 25 -10z"/>
<path d="M750 2240 c-6 -12 -9 -24 -7 -27 3 -2 -3 -13 -13 -23 -9 -9 -23 -41
-30 -69 -12 -49 -11 -54 11 -77 l23 -24 -23 -31 c-27 -36 -17 -55 35 -65 40
-7 52 -1 36 19 -15 18 -4 87 13 81 7 -3 16 -1 19 5 8 12 -14 62 -24 56 -11 -7
8 86 21 101 6 7 9 25 7 41 -4 37 -50 46 -68 13z m60 0 c0 -5 -5 -10 -11 -10
-6 0 -8 -7 -4 -17 5 -14 1 -13 -14 4 -27 29 -26 33 4 33 14 0 25 -4 25 -10z
m-23 -70 c4 -12 3 -13 -5 -1 -17 24 -34 1 -30 -40 4 -39 -4 -47 -31 -30 -17
11 -6 67 17 81 22 13 44 9 49 -10z m-7 -125 c0 -5 -5 -3 -10 5 -5 8 -10 20
-10 25 0 6 5 3 10 -5 5 -8 10 -19 10 -25z m-17 -72 c-3 -7 0 -20 7 -28 10 -12
9 -15 -9 -15 -18 0 -20 4 -14 33 6 29 5 31 -10 19 -9 -8 -13 -20 -10 -28 3 -8
0 -14 -5 -14 -21 0 -23 20 -5 44 14 18 21 21 34 13 10 -6 15 -17 12 -24z"/>
<path d="M1070 2240 c-9 -18 -8 -26 7 -43 10 -12 22 -25 26 -28 4 -3 2 -19 -5
-35 l-12 -29 -5 45 c-5 41 -7 43 -18 25 -7 -11 -13 -15 -13 -9 0 5 6 16 13 23
10 11 9 13 -3 9 -8 -2 -23 -30 -34 -62 -16 -48 -17 -61 -6 -81 11 -20 10 -32
-3 -71 -18 -55 -15 -64 19 -64 25 0 31 9 15 25 -6 6 -4 20 5 35 l15 25 -5 -24
c-6 -28 9 -51 31 -51 11 0 13 7 8 30 -5 24 -2 34 19 53 24 23 36 44 18 33 -4
-2 -9 3 -10 12 -1 9 -5 37 -8 61 -4 26 -2 52 6 66 6 12 10 33 8 46 -4 33 -52
39 -68 9z m60 0 c0 -5 -5 -10 -11 -10 -6 0 -8 -7 -4 -17 5 -14 1 -13 -14 4
-27 29 -26 33 4 33 14 0 25 -4 25 -10z m-81 -143 c1 -5 -3 -5 -9 -2 -5 3 -10
16 -9 28 0 21 1 21 9 2 5 -11 9 -24 9 -28z m31 -12 c5 3 11 1 14 -4 4 -5 -2
-8 -11 -7 -9 2 -18 8 -19 15 -1 6 0 7 3 1 2 -5 9 -8 13 -5z m15 -115 c2 -19
-1 -30 -9 -27 -6 2 -11 20 -11 40 0 43 17 33 20 -13z m-54 2 c-7 -13 -6 -23 1
-30 9 -9 7 -12 -10 -12 -12 0 -22 2 -22 5 0 13 24 55 32 55 5 0 4 -8 -1 -18z"/>
<path d="M1710 2240 c-9 -18 -8 -26 7 -43 10 -12 22 -25 26 -28 4 -3 2 -19 -5
-35 l-12 -29 -5 45 c-5 41 -7 43 -18 25 -7 -11 -13 -15 -13 -9 0 5 5 15 12 22
9 9 9 12 -1 12 -13 0 -35 -45 -46 -98 -6 -27 -3 -38 16 -58 l23 -24 -23 -31
c-20 -27 -21 -33 -9 -45 18 -18 88 -31 88 -16 0 6 -4 13 -9 17 -6 3 -7 28 -4
57 4 35 3 49 -4 45 -7 -5 -9 0 -6 13 4 14 1 20 -7 18 -7 -2 -14 3 -15 10 -2 7
-1 8 2 2 2 -5 9 -8 14 -4 5 3 16 -11 25 -31 14 -35 33 -42 42 -15 3 7 0 10 -5
7 -5 -3 -10 2 -11 11 -1 9 -5 37 -8 61 -4 26 -2 52 6 66 6 12 10 33 8 46 -4
33 -52 39 -68 9z m60 0 c0 -5 -5 -10 -11 -10 -6 0 -8 -7 -4 -17 5 -14 1 -13
-14 4 -27 29 -26 33 4 33 14 0 25 -4 25 -10z m-81 -143 c1 -5 -3 -5 -9 -2 -5
3 -10 16 -9 28 0 21 1 21 9 2 5 -11 9 -24 9 -28z m6 -114 c-5 -10 -7 -24 -6
-30 1 -7 -3 -13 -8 -13 -20 0 -22 20 -4 44 20 27 30 26 18 -1z m29 -8 c-4 -8
-1 -22 6 -30 10 -13 9 -15 -10 -15 -16 0 -20 4 -16 16 3 9 6 22 6 30 0 8 4 14
10 14 5 0 7 -7 4 -15z"/>
<path d="M2030 2240 c-6 -11 -8 -24 -6 -29 3 -5 -1 -11 -9 -14 -8 -4 -22 -32
-31 -63 -13 -46 -14 -61 -4 -80 10 -19 10 -32 -3 -70 -18 -55 -15 -64 19 -64
25 0 31 9 15 25 -6 6 -4 20 5 35 l15 25 -5 -24 c-6 -28 9 -51 31 -51 11 0 13
7 8 28 -4 20 0 36 15 54 19 25 18 64 -1 52 -5 -3 -6 3 -2 12 4 11 2 15 -4 11
-13 -8 2 81 18 99 6 7 9 25 7 41 -4 37 -50 46 -68 13z m60 0 c0 -5 -5 -10 -11
-10 -6 0 -8 -7 -4 -17 5 -14 1 -13 -14 4 -27 29 -26 33 4 33 14 0 25 -4 25
-10z m-23 -70 c4 -12 3 -13 -5 -1 -17 24 -34 1 -30 -40 4 -39 -4 -47 -31 -30
-17 11 -6 67 17 81 22 13 44 9 49 -10z m-12 -200 c2 -19 -1 -30 -9 -27 -6 2
-11 20 -11 40 0 43 17 33 20 -13z m-54 2 c-7 -13 -6 -23 1 -30 9 -9 7 -12 -10
-12 -12 0 -22 2 -22 5 0 13 24 55 32 55 5 0 4 -8 -1 -18z"/>
<path d="M97 2230 c-10 -12 -15 -25 -12 -29 2 -5 -2 -14 -9 -20 -8 -7 -20 -34
-26 -61 -9 -39 -9 -54 2 -77 11 -23 11 -34 1 -66 -16 -45 -11 -57 23 -57 26 0
31 9 13 27 -8 8 -7 17 5 34 17 25 17 26 20 -36 1 -14 9 -21 29 -23 27 -3 37
11 16 23 -6 5 -8 22 -4 46 5 30 2 47 -14 74 -11 19 -16 37 -12 39 4 3 18 -13
30 -34 12 -22 26 -40 31 -40 20 0 19 21 -2 57 -17 28 -23 54 -23 98 0 57 -1
60 -25 63 -16 2 -32 -5 -43 -18z m63 -5 c0 -9 -6 -12 -17 -8 -13 5 -15 2 -10
-13 7 -19 7 -19 -8 0 -21 28 -19 36 10 36 15 0 25 -6 25 -15z m-21 -65 c6 0
11 -4 11 -9 0 -15 -41 -61 -50 -56 -5 3 -10 0 -12 -7 -3 -7 -7 -5 -11 6 -4 9
-3 15 1 12 11 -7 35 61 27 76 -4 7 0 5 8 -4 8 -10 19 -18 26 -18z m-56 -5 c-3
-9 -8 -14 -10 -11 -3 3 -2 9 2 15 9 16 15 13 8 -4z m91 -61 c3 -8 2 -12 -4 -9
-6 3 -10 10 -10 16 0 14 7 11 14 -7z m-94 -119 c-10 -12 -10 -18 0 -30 10 -13
9 -15 -10 -15 -16 0 -20 4 -16 16 3 9 6 22 6 30 0 8 7 14 16 14 14 0 14 -3 4
-15z m60 -3 c0 -10 5 -23 12 -30 9 -9 7 -12 -8 -12 -16 0 -21 7 -21 30 0 17 4
30 9 30 4 0 8 -8 8 -18z"/>
<path d="M440 2230 c-6 -11 -8 -24 -6 -29 3 -5 -1 -12 -10 -15 -25 -10 -56
-91 -49 -130 5 -24 1 -45 -15 -75 -23 -47 -20 -61 16 -61 24 0 32 14 14 25 -6
3 0 20 13 40 33 52 39 47 41 -35 1 -20 7 -26 29 -28 26 -3 37 11 17 23 -5 3
-10 23 -10 43 0 20 -9 51 -20 69 -13 22 -16 34 -8 39 10 7 19 -2 52 -51 11
-16 17 -17 27 -8 10 10 10 15 -1 27 -7 9 -16 13 -21 10 -5 -3 -6 3 -2 12 3 10
2 15 -3 12 -11 -7 -11 60 0 84 4 9 6 27 4 40 -4 32 -52 38 -68 8z m60 0 c0 -5
-5 -10 -11 -10 -6 0 -8 -7 -4 -17 5 -14 1 -13 -14 4 -27 29 -26 33 4 33 14 0
25 -4 25 -10z m-22 -71 c3 -12 2 -12 -7 1 -9 12 -11 12 -17 -3 -3 -9 -4 -23
-1 -31 8 -20 -18 -39 -43 -31 -23 7 -24 14 -9 49 16 34 69 45 77 15z m-88
-178 c0 -6 -5 -13 -10 -16 -8 -5 -7 -11 1 -21 9 -11 7 -14 -10 -14 -24 0 -25
1 -9 35 11 25 28 34 28 16z m80 -9 c0 -10 5 -23 12 -30 9 -9 7 -12 -9 -12 -16
0 -20 6 -19 30 1 32 16 43 16 12z"/>
<path d="M1400 2230 c-9 -18 -8 -26 7 -43 10 -12 22 -25 28 -29 11 -8 -23 -59
-43 -66 -18 -6 -15 29 4 49 18 20 12 53 -9 47 -6 -2 -22 -24 -35 -48 -17 -34
-21 -54 -17 -82 5 -26 1 -47 -15 -77 -23 -47 -20 -61 16 -61 24 0 32 14 14 25
-6 3 0 20 13 40 33 52 39 47 41 -35 1 -20 7 -26 29 -28 26 -3 37 11 17 23 -5
3 -10 23 -10 43 0 20 -9 51 -19 68 -14 23 -16 35 -8 43 8 8 17 0 34 -29 13
-22 28 -40 33 -40 18 0 21 22 6 39 -25 28 -40 89 -26 106 6 8 10 26 8 42 -4
37 -50 46 -68 13z m60 0 c0 -5 -5 -10 -11 -10 -6 0 -8 -7 -4 -17 5 -14 1 -13
-14 4 -27 29 -26 33 4 33 14 0 25 -4 25 -10z m-70 -64 c0 -2 -8 -10 -17 -17
-16 -13 -17 -12 -4 4 13 16 21 21 21 13z m-23 -78 c-3 -8 -6 -5 -6 6 -1 11 2
17 5 13 3 -3 4 -12 1 -19z m-17 -107 c0 -6 -5 -13 -10 -16 -8 -5 -7 -11 1 -21
9 -11 7 -14 -10 -14 -24 0 -25 1 -9 35 11 25 28 34 28 16z m80 -9 c0 -10 5
-23 12 -30 9 -9 7 -12 -9 -12 -16 0 -20 6 -19 30 1 32 16 43 16 12z"/>
<path d="M433 1616 c-15 -7 -21 -17 -17 -28 3 -10 1 -18 -5 -18 -33 0 -63
-121 -39 -160 8 -13 7 -30 -5 -66 -18 -55 -15 -64 19 -64 24 0 32 14 14 25 -5
3 -3 20 7 40 26 55 35 47 37 -35 1 -20 7 -26 29 -28 26 -3 37 11 17 23 -5 3
-10 22 -10 41 0 19 -7 48 -15 65 -19 36 -12 50 23 47 33 -4 38 25 5 30 -32 5
-39 39 -14 66 24 25 27 46 9 64 -14 14 -25 14 -55 -2z m55 -26 c3 -21 2 -22
-12 -11 -15 12 -20 8 -17 -12 1 -5 -3 -6 -9 -2 -8 5 -8 21 -1 53 1 2 9 2 19 0
9 -2 19 -14 20 -28z m-38 -78 c0 -4 -7 -17 -16 -28 -8 -10 -12 -13 -8 -5 5 11
3 13 -9 8 -22 -8 -30 8 -12 23 8 7 15 19 15 27 0 13 -3 13 -17 2 -16 -13 -17
-12 -4 4 13 17 15 17 32 -2 11 -11 19 -24 19 -29z m-40 -52 c8 -5 11 -10 5
-10 -5 0 -17 5 -25 10 -8 5 -10 10 -5 10 6 0 17 -5 25 -10z m-19 -128 c-7 -13
-6 -23 1 -30 9 -9 7 -12 -10 -12 -12 0 -22 2 -22 5 0 13 24 55 32 55 5 0 4 -8
-1 -18z m79 0 c0 -10 5 -23 12 -30 9 -9 7 -12 -9 -12 -16 0 -20 6 -19 30 1 32
16 43 16 12z"/>
<path d="M1093 1616 c-15 -7 -21 -17 -17 -28 3 -12 0 -18 -9 -18 -27 0 -50
-39 -53 -91 -2 -48 -1 -52 31 -70 30 -18 34 -25 32 -59 -1 -38 15 -70 37 -70
7 0 11 27 11 77 l0 77 -48 20 c-26 11 -47 25 -47 32 0 16 40 5 47 -13 5 -12 9
-11 28 1 17 11 25 12 34 3 8 -8 14 -8 24 2 10 10 8 15 -7 26 -10 8 -24 16 -30
18 -7 3 -2 14 12 29 25 27 28 48 10 66 -14 14 -25 14 -55 -2z m55 -26 c3 -21
2 -22 -12 -11 -15 12 -20 8 -17 -12 1 -5 -3 -6 -9 -2 -8 5 -8 21 -1 53 1 2 9
2 19 0 9 -2 19 -14 20 -28z m-55 -50 c15 -18 15 -20 -1 -29 -14 -8 -17 -4 -17
20 0 16 0 29 0 29 0 0 8 -9 18 -20z m12 -190 c2 -20 -1 -30 -9 -27 -6 2 -11 9
-10 15 1 7 2 22 3 34 2 30 13 15 16 -22z m15 -50 c0 -5 -4 -10 -9 -10 -6 0
-13 5 -16 10 -3 6 1 10 9 10 9 0 16 -4 16 -10z"/>
<path d="M110 1601 c-9 -17 -7 -26 7 -46 10 -13 22 -25 26 -25 11 0 -2 -41
-21 -62 -24 -28 -33 -10 -15 33 18 45 7 73 -21 50 -19 -16 -37 -102 -30 -139
4 -19 -1 -43 -15 -71 -24 -47 -21 -61 15 -61 24 0 32 14 14 25 -6 3 0 20 13
40 33 52 39 47 41 -35 1 -20 7 -26 29 -28 27 -3 35 6 18 23 -8 9 -16 50 -22
115 -1 8 -6 20 -11 27 -15 19 0 35 23 23 31 -17 79 17 49 35 -5 3 -18 1 -29
-5 -14 -7 -22 -7 -27 2 -4 7 -3 8 4 4 8 -5 10 -2 6 9 -4 8 -1 22 6 30 6 7 10
26 8 42 -4 36 -50 46 -68 14z m60 -1 c0 -5 -5 -10 -11 -10 -6 0 -8 -7 -4 -17
5 -14 1 -13 -14 4 -27 29 -26 33 4 33 14 0 25 -4 25 -10z m-77 -75 c-3 -9 -8
-14 -10 -11 -3 3 -2 9 2 15 9 16 15 13 8 -4z m-23 -184 c0 -6 -5 -13 -10 -16
-8 -5 -7 -11 1 -21 9 -11 7 -14 -10 -14 -24 0 -25 1 -9 35 11 25 28 34 28 16z
m80 -9 c0 -10 5 -23 12 -30 9 -9 7 -12 -9 -12 -16 0 -20 6 -19 30 1 32 16 43
16 12z"/>
<path d="M722 1606 c-12 -6 -20 -17 -17 -24 2 -7 -10 -26 -28 -42 -30 -29 -31
-31 -14 -44 15 -11 17 -22 12 -46 -5 -23 -2 -36 10 -50 15 -17 15 -21 -5 -59
-23 -47 -20 -61 16 -61 25 0 30 9 15 25 -6 6 0 23 15 44 l23 34 10 -27 c6 -14
10 -36 8 -49 -2 -17 4 -23 26 -25 26 -3 37 11 18 22 -4 3 -11 26 -14 51 -3 29
-13 55 -27 70 -14 15 -20 30 -16 41 6 15 8 15 32 -1 20 -13 29 -14 38 -5 8 9
6 15 -8 24 -10 6 -28 18 -40 28 -20 15 -20 17 -3 35 20 23 22 44 5 61 -14 14
-25 14 -56 -2z m56 -26 c3 -21 2 -22 -12 -11 -15 12 -20 8 -17 -12 1 -5 -3 -6
-9 -2 -8 5 -8 21 -1 53 1 2 9 2 19 0 9 -2 19 -14 20 -28z m-28 -73 c0 -3 -8
-7 -17 -9 -14 -4 -18 1 -18 23 0 27 1 27 18 9 9 -11 17 -21 17 -23z m-29 -37
c26 -14 24 -32 -3 -28 -13 2 -24 11 -26 21 -4 20 2 21 29 7z m-11 -129 c0 -6
-5 -13 -10 -16 -8 -5 -7 -11 1 -21 9 -11 7 -14 -10 -14 -24 0 -25 1 -9 35 11
25 28 34 28 16z m80 -9 c0 -10 5 -23 12 -30 9 -9 7 -12 -9 -12 -16 0 -20 6
-19 30 1 32 16 43 16 12z"/>
<path d="M1548 1455 c-14 -30 -20 -31 -43 -5 -21 24 -48 26 -65 5 -18 -21 8
-77 32 -69 12 3 18 0 18 -9 0 -44 114 -74 153 -39 21 18 31 10 32 -26 0 -22 5
-28 28 -30 26 -3 35 7 20 22 -4 4 -13 25 -19 47 -11 35 -10 40 3 35 18 -7 43
10 43 30 0 8 -12 12 -32 12 -18 0 -46 3 -61 7 -26 7 -29 4 -49 -44 -12 -28
-27 -51 -34 -51 -16 0 -5 40 13 47 12 5 11 9 -1 28 -10 16 -12 25 -4 33 11 11
3 32 -13 32 -5 0 -15 -11 -21 -25z m-68 -10 c-12 -14 -7 -19 13 -16 5 1 6 -3
2 -9 -6 -10 -40 -9 -51 3 -12 12 6 37 27 37 18 0 19 -2 9 -15z m69 -42 c8 -15
5 -18 -19 -18 -26 0 -27 1 -12 17 21 21 20 21 31 1z m191 6 c0 -13 -15 -18
-38 -12 -31 8 -27 18 8 19 17 1 30 -2 30 -7z m-40 -77 c0 -10 5 -23 12 -30 9
-9 7 -12 -8 -12 -16 0 -21 7 -21 30 0 17 4 30 9 30 4 0 8 -8 8 -18z"/>
<path d="M2037 1373 c-4 -3 -7 -17 -7 -29 0 -23 33 -50 49 -40 5 3 14 -1 21
-9 14 -17 126 -19 147 -2 8 6 34 5 70 -1 67 -11 73 -10 73 24 0 26 -9 31 -28
12 -9 -9 -18 -9 -38 1 -34 15 -192 43 -204 36 -5 -3 -11 -1 -15 5 -7 11 -58
14 -68 3z m23 -14 c0 -6 7 -8 18 -4 13 5 12 1 -5 -14 -29 -27 -33 -26 -33 4 0
14 5 25 10 25 6 0 10 -5 10 -11z m136 -9 c8 0 14 -7 14 -15 0 -10 -10 -15 -29
-15 -16 0 -38 -3 -48 -6 -15 -5 -16 -4 -3 6 13 10 11 11 -7 7 -19 -4 -20 -3
-10 15 9 14 19 18 41 14 16 -3 35 -6 42 -6z m182 -55 c-6 -6 -58 7 -58 15 0 5
8 6 19 3 10 -3 23 1 27 9 7 10 9 9 12 -5 2 -10 2 -20 0 -22z"/>
<path d="M25 1041 c-3 -5 3 -24 14 -43 26 -46 24 -255 -2 -306 -21 -38 -16
-52 19 -52 24 0 32 14 14 25 -6 3 0 20 13 40 33 52 39 47 41 -35 1 -20 7 -26
29 -28 26 -3 37 11 17 23 -5 3 -10 23 -10 43 0 20 -8 51 -18 67 -22 37 -18 78
7 70 24 -7 60 20 45 35 -9 9 -17 9 -34 0 -13 -7 -20 -8 -16 -2 3 6 2 14 -4 17
-8 5 -8 11 0 20 6 8 10 26 8 42 -3 24 -8 28 -33 28 -24 0 -34 7 -48 33 -18 32
-31 40 -42 23z m115 -71 c0 -5 -5 -10 -11 -10 -6 0 -8 -8 -5 -17 5 -16 4 -16
-8 1 -8 10 -19 15 -25 11 -7 -3 -8 0 -5 9 7 17 54 22 54 6z m-14 -104 c-3 -16
-6 -35 -6 -42 0 -15 -36 -20 -43 -6 -2 4 -7 19 -11 33 -5 21 -2 26 12 25 11
-1 17 6 16 20 0 19 2 20 18 10 14 -8 18 -18 14 -40z m-56 -165 c0 -6 -5 -13
-10 -16 -8 -5 -7 -11 1 -21 9 -11 7 -14 -10 -14 -24 0 -25 1 -9 35 11 25 28
34 28 16z m80 -9 c0 -10 5 -23 12 -30 9 -9 7 -12 -9 -12 -16 0 -20 6 -19 30 1
32 16 43 16 12z"/>
<path d="M505 1001 c-3 -6 -3 -15 0 -21 3 -6 -5 -10 -19 -10 -25 0 -52 -32
-42 -49 3 -5 -1 -11 -9 -14 -19 -8 -48 -108 -39 -141 5 -20 -1 -35 -21 -62
-21 -28 -24 -38 -15 -49 18 -22 43 -19 37 4 -3 12 4 28 19 42 13 12 24 29 24
38 0 11 3 12 11 4 7 -7 8 -22 0 -48 -12 -45 -8 -55 25 -55 25 0 31 9 14 26 -7
7 -7 20 1 41 8 25 7 38 -6 63 -19 37 -13 60 26 105 26 29 30 41 27 81 -3 45
-19 67 -33 45z m5 -50 c0 -5 -6 -11 -12 -14 -10 -3 -10 -7 -1 -19 13 -15 8
-28 -11 -28 -7 0 -6 4 2 8 9 6 7 13 -8 30 -26 28 -25 32 5 32 14 0 25 -4 25
-9z m-45 -70 c-3 -11 -1 -22 4 -26 7 -4 6 -14 -1 -30 -12 -26 -24 -30 -47 -16
-17 11 -6 67 17 81 26 15 34 12 27 -9z m-72 -192 c-6 -6 -9 -18 -6 -25 6 -16
-13 -19 -22 -3 -7 11 25 53 33 44 3 -3 1 -10 -5 -16z m83 5 c-4 -9 -1 -23 5
-30 9 -11 7 -14 -11 -14 -16 0 -20 4 -16 16 3 9 6 22 6 30 0 8 5 14 11 14 6 0
8 -7 5 -16z"/>
<path d="M1360 970 c-6 -11 -9 -24 -6 -29 3 -5 -1 -14 -9 -21 -11 -9 -13 -31
-10 -97 3 -71 1 -93 -16 -125 -22 -44 -18 -58 17 -58 24 0 32 14 14 25 -6 3 0
20 13 40 33 52 39 47 41 -35 1 -20 7 -26 29 -28 26 -3 37 11 17 23 -5 3 -10
23 -10 43 0 20 -8 51 -18 67 -24 43 -17 82 19 100 34 18 37 30 10 45 -11 5
-21 22 -23 37 -4 37 -51 45 -68 13z m60 0 c0 -5 -5 -10 -11 -10 -6 0 -8 -7 -4
-17 5 -14 1 -13 -14 4 -27 29 -26 33 4 33 14 0 25 -4 25 -10z m-22 -62 c-2 -7
-7 -16 -13 -20 -6 -5 -5 -12 3 -20 16 -16 16 -58 0 -58 -25 0 -37 16 -44 57
-7 44 -9 41 49 52 4 0 6 -5 5 -11z m-48 -207 c0 -6 -5 -13 -10 -16 -8 -5 -7
-11 1 -21 9 -11 7 -14 -10 -14 -24 0 -25 1 -9 35 11 25 28 34 28 16z m80 -9
c0 -10 5 -23 12 -30 9 -9 7 -12 -9 -12 -16 0 -20 6 -19 30 1 32 16 43 16 12z"/>
<path d="M2070 970 c-6 -11 -8 -24 -6 -29 3 -5 -22 -20 -57 -34 -58 -23 -87
-56 -42 -49 11 2 33 5 50 5 l30 2 1 -65 c1 -46 -4 -76 -18 -103 -21 -43 -17
-57 18 -57 24 0 32 14 14 25 -6 3 0 20 13 40 33 52 39 47 41 -35 1 -20 7 -26
29 -28 26 -3 37 11 17 23 -5 3 -10 23 -10 43 0 20 -8 51 -18 67 -22 37 -18 78
7 70 24 -7 60 20 45 35 -9 9 -17 9 -34 0 -13 -7 -20 -8 -16 -2 3 6 2 14 -4 17
-8 5 -8 11 0 20 6 8 10 26 8 42 -4 37 -50 46 -68 13z m60 0 c0 -5 -5 -10 -11
-10 -6 0 -8 -7 -4 -17 5 -14 1 -13 -14 4 -27 29 -26 33 4 33 14 0 25 -4 25
-10z m-55 -60 c3 -5 15 -10 27 -10 18 0 20 -4 14 -31 -3 -17 -6 -38 -6 -46 0
-9 -8 -13 -22 -11 -23 3 -44 53 -27 64 16 9 10 37 -7 30 -8 -3 -12 -2 -9 4 8
13 22 13 30 0z m-15 -209 c0 -6 -5 -13 -10 -16 -8 -5 -7 -11 1 -21 9 -11 7
-14 -10 -14 -24 0 -25 1 -9 35 11 25 28 34 28 16z m80 -9 c0 -10 5 -23 12 -30
9 -9 7 -12 -9 -12 -16 0 -20 6 -19 30 1 32 16 43 16 12z"/>
<path d="M2320 970 c-6 -11 -8 -25 -5 -30 3 -6 0 -10 -7 -10 -8 0 -23 -7 -34
-15 -19 -15 -19 -15 1 -30 28 -22 30 -135 4 -188 -22 -43 -18 -57 17 -57 24 0
32 14 14 25 -6 3 0 20 13 40 33 52 39 47 41 -35 1 -20 7 -26 29 -28 26 -3 37
11 17 23 -5 3 -10 23 -10 43 0 20 -8 51 -18 67 -22 37 -18 78 7 70 24 -7 60
20 45 35 -9 9 -17 9 -34 0 -13 -7 -20 -8 -16 -2 3 6 2 13 -3 17 -5 3 -13 -15
-16 -40 -6 -35 -11 -45 -26 -45 -20 0 -26 9 -31 45 -2 15 3 20 19 20 29 0 65
48 61 82 -4 37 -51 45 -68 13z m60 0 c0 -5 -5 -10 -11 -10 -6 0 -8 -7 -4 -17
5 -14 1 -13 -14 4 -27 29 -26 33 4 33 14 0 25 -4 25 -10z m-53 -56 c-3 -3 -12
-4 -19 -1 -8 3 -5 6 6 6 11 1 17 -2 13 -5z m-17 -213 c0 -6 -5 -13 -10 -16 -8
-5 -7 -11 1 -21 9 -11 7 -14 -10 -14 -24 0 -25 1 -9 35 11 25 28 34 28 16z
m80 -9 c0 -10 5 -23 12 -30 9 -9 7 -12 -9 -12 -16 0 -20 6 -19 30 1 32 16 43
16 12z"/>
<path d="M2940 961 c-18 -34 35 -93 55 -61 3 6 10 10 16 10 13 0 11 -27 -3
-36 -7 -4 -8 -3 -4 4 4 7 2 12 -3 12 -6 0 -11 -9 -11 -20 0 -23 37 -47 52 -32
14 14 5 95 -11 100 -9 3 -11 0 -6 -9 5 -10 5 -11 -3 -4 -5 6 -12 19 -14 30 -5
29 -53 33 -68 6z m60 -1 c0 -5 -5 -10 -11 -10 -6 0 -8 -7 -4 -17 5 -14 1 -13
-14 4 -27 29 -26 33 4 33 14 0 25 -4 25 -10z"/>
<path d="M790 940 c-6 -12 -9 -24 -7 -27 3 -2 -3 -13 -13 -23 -10 -10 -25 -48
-33 -84 -9 -38 -27 -82 -42 -102 -22 -28 -24 -38 -15 -49 18 -22 43 -19 37 4
-3 13 6 30 29 52 33 32 34 32 54 14 14 -13 17 -22 10 -30 -6 -7 -7 -20 -4 -30
5 -13 3 -16 -7 -13 -15 5 -16 19 -4 53 3 11 -1 7 -10 -8 -13 -22 -14 -31 -4
-43 19 -23 42 -18 36 8 -4 14 0 29 10 40 15 17 15 21 -1 57 -22 47 -11 74 37
95 18 7 43 25 56 40 20 21 22 29 12 39 -10 9 -16 6 -33 -15 -26 -36 -36 -35
-40 5 -2 26 -8 33 -30 35 -19 2 -30 -3 -38 -18z m60 0 c0 -5 -5 -10 -11 -10
-6 0 -8 -7 -4 -17 5 -14 1 -13 -14 4 -27 29 -26 33 4 33 14 0 25 -4 25 -10z
m-20 -60 c13 -8 12 -10 -3 -10 -12 0 -17 -6 -16 -17 4 -26 -10 -63 -24 -63
-59 1 -37 93 23 99 3 0 12 -4 20 -9z m-117 -191 c-6 -6 -9 -18 -6 -25 6 -16
-13 -19 -22 -3 -7 11 25 53 33 44 3 -3 1 -10 -5 -16z"/>
<path d="M1120 930 c-6 -11 -8 -24 -6 -29 3 -5 -1 -12 -9 -15 -18 -7 -54 -81
-55 -112 0 -12 -14 -40 -31 -63 -24 -34 -28 -45 -18 -57 17 -21 42 -18 36 5
-3 13 6 30 29 52 33 32 34 32 54 14 14 -13 17 -22 10 -30 -6 -7 -7 -20 -4 -30
5 -13 3 -16 -7 -13 -15 5 -16 19 -4 53 3 11 -1 7 -10 -8 -13 -22 -14 -31 -4
-43 19 -23 42 -18 36 8 -4 14 0 29 10 40 15 17 15 21 0 53 -16 33 -14 65 3 65
5 0 22 -17 39 -37 23 -28 34 -34 42 -26 9 9 6 19 -12 41 -13 16 -30 38 -37 48
-7 11 -10 12 -6 4 6 -12 4 -13 -7 -2 -20 19 -42 15 -36 -7 9 -38 -20 -62 -52
-42 -25 16 4 68 42 75 18 4 33 2 37 -4 11 -18 32 16 28 47 -4 37 -50 46 -68
13z m60 0 c0 -5 -5 -10 -11 -10 -6 0 -8 -7 -4 -17 5 -14 1 -13 -14 4 -27 29
-26 33 4 33 14 0 25 -4 25 -10z m-147 -241 c-6 -6 -9 -18 -6 -25 6 -16 -13
-19 -22 -3 -7 11 25 53 33 44 3 -3 1 -10 -5 -16z"/>
<path d="M1760 930 c-6 -11 -8 -24 -6 -29 3 -5 -1 -12 -9 -15 -18 -7 -54 -81
-55 -112 0 -12 -14 -40 -31 -63 -24 -34 -28 -45 -18 -57 17 -21 42 -18 36 5
-3 13 6 30 29 52 33 32 34 32 54 14 14 -13 17 -22 10 -30 -6 -7 -7 -20 -4 -30
5 -13 3 -16 -7 -13 -15 5 -16 19 -4 53 3 11 -1 7 -10 -8 -13 -22 -14 -31 -4
-43 19 -23 42 -18 36 8 -4 14 0 29 10 40 15 17 15 21 -1 54 -15 33 -15 39 -2
59 15 23 66 38 111 32 12 -1 20 4 20 13 0 10 -13 16 -42 18 -39 3 -42 5 -45
35 -2 26 -8 33 -30 35 -19 2 -30 -3 -38 -18z m60 0 c0 -5 -5 -10 -11 -10 -6 0
-8 -7 -4 -17 5 -14 1 -13 -14 4 -27 29 -26 33 4 33 14 0 25 -4 25 -10z m-20
-59 c0 -5 -7 -12 -16 -15 -9 -3 -14 -12 -11 -19 6 -16 -11 -47 -26 -47 -7 0
-18 4 -26 9 -21 13 4 68 32 74 39 8 47 7 47 -2z m-127 -182 c-6 -6 -9 -18 -6
-25 6 -16 -13 -19 -22 -3 -7 11 25 53 33 44 3 -3 1 -10 -5 -16z"/>
<path d="M2720 930 c-6 -11 -8 -24 -6 -29 3 -5 -1 -12 -9 -15 -18 -7 -54 -81
-55 -112 0 -12 -14 -40 -31 -63 -24 -34 -28 -45 -18 -57 17 -21 42 -18 36 5
-3 13 6 30 29 52 33 32 34 32 54 14 14 -13 17 -22 10 -30 -6 -7 -7 -20 -4 -30
5 -13 3 -16 -7 -13 -15 5 -16 19 -4 53 3 11 -1 7 -10 -8 -13 -22 -14 -31 -4
-43 19 -23 42 -18 36 8 -4 14 0 29 10 40 15 17 15 21 -1 54 -15 32 -15 39 -2
59 16 24 73 40 106 30 10 -3 21 -1 25 5 4 7 12 7 26 -1 16 -8 19 -17 14 -40
-5 -21 -2 -36 10 -49 15 -17 15 -21 -5 -59 -23 -47 -20 -61 16 -61 25 0 30 9
15 26 -6 5 0 22 15 43 l23 34 10 -27 c6 -14 10 -36 8 -49 -2 -17 4 -23 26 -25
26 -3 37 11 18 22 -4 3 -11 26 -14 51 -2 27 -13 56 -25 68 -11 12 -22 33 -24
47 -2 18 -9 25 -23 24 -17 0 -20 5 -17 27 6 42 -16 45 -55 8 -20 -19 -33 -28
-29 -21 5 9 -4 12 -33 12 -38 0 -40 2 -43 33 -2 26 -8 33 -30 35 -19 2 -30 -3
-38 -18z m60 0 c0 -5 -5 -10 -11 -10 -6 0 -8 -7 -4 -17 5 -14 1 -13 -14 4 -27
29 -26 33 4 33 14 0 25 -4 25 -10z m-20 -59 c0 -5 -7 -12 -16 -15 -9 -3 -14
-12 -11 -19 6 -16 -11 -47 -26 -47 -7 0 -18 4 -26 9 -21 13 4 68 32 74 39 8
47 7 47 -2z m220 -63 c0 -17 -45 -3 -48 15 -3 15 0 16 22 6 14 -7 26 -16 26
-21z m-347 -119 c-6 -6 -9 -18 -6 -25 6 -16 -13 -19 -22 -3 -7 11 25 53 33 44
3 -3 1 -10 -5 -16z m317 12 c0 -6 -5 -13 -10 -16 -8 -5 -7 -11 1 -21 9 -11 7
-14 -10 -14 -24 0 -25 1 -9 35 11 25 28 34 28 16z m80 -9 c0 -10 5 -23 12 -30
9 -9 7 -12 -9 -12 -16 0 -20 6 -19 30 1 32 16 43 16 12z"/>
<path d="M25 411 c-3 -5 4 -24 14 -43 17 -28 19 -47 16 -125 -2 -56 0 -95 7
-99 5 -3 8 -33 6 -67 -2 -48 0 -62 14 -71 24 -15 31 -3 19 35 l-11 34 5 -33
c3 -24 1 -32 -8 -29 -6 2 -12 9 -11 15 1 7 2 21 3 33 1 14 6 19 16 15 10 -3
15 1 15 14 0 23 16 35 26 19 12 -21 13 -70 0 -66 -6 2 -10 19 -9 38 l2 34 -9
-29 c-6 -20 -6 -34 2 -43 19 -24 37 -15 36 19 0 18 3 45 7 60 6 23 3 29 -17
39 -19 8 -24 17 -20 35 3 18 9 23 21 19 24 -7 59 20 45 35 -9 9 -17 9 -34 0
-13 -7 -20 -8 -16 -2 3 6 2 14 -4 17 -8 5 -8 11 0 20 6 8 10 26 8 42 -3 24 -8
28 -33 28 -24 0 -34 7 -48 33 -18 32 -31 40 -42 23z m115 -71 c0 -5 -5 -10
-11 -10 -6 0 -8 -8 -5 -17 5 -16 4 -16 -8 1 -8 10 -19 15 -25 11 -7 -3 -8 0
-5 9 7 17 54 22 54 6z m-14 -104 c-3 -16 -6 -35 -6 -42 0 -15 -36 -20 -43 -6
-2 4 -7 19 -11 33 -5 21 -2 26 12 25 11 -1 17 6 16 20 0 19 2 20 18 10 14 -8
18 -18 14 -40z"/>
<path d="M485 381 c-3 -6 -3 -15 0 -21 3 -6 -5 -10 -19 -10 -25 0 -52 -32 -42
-49 3 -5 -1 -11 -9 -14 -8 -4 -22 -32 -31 -63 -13 -46 -14 -62 -4 -77 7 -11
10 -43 8 -75 -2 -43 1 -57 14 -66 24 -15 31 -3 19 35 l-11 34 5 -33 c3 -24 1
-32 -8 -29 -6 2 -12 9 -11 15 1 7 2 21 3 33 1 14 6 19 16 15 10 -3 15 1 15 14
0 23 16 35 26 19 12 -21 13 -70 0 -66 -6 2 -10 19 -9 38 l2 34 -9 -29 c-6 -20
-6 -34 2 -43 19 -24 37 -15 36 19 0 18 3 45 7 60 6 23 3 29 -18 39 -25 11 -26
13 -10 43 8 17 26 43 40 57 20 22 24 35 21 74 -3 46 -19 68 -33 46z m5 -50 c0
-5 -6 -11 -12 -14 -10 -3 -10 -7 -1 -19 13 -15 8 -28 -11 -28 -7 0 -6 4 2 8 9
6 7 13 -8 30 -26 28 -25 32 5 32 14 0 25 -4 25 -9z m-45 -70 c-3 -11 -1 -22 4
-26 7 -4 6 -14 -1 -30 -12 -26 -24 -30 -47 -16 -17 11 -6 67 17 81 26 15 34
12 27 -9z"/>
<path d="M1360 340 c-6 -11 -9 -24 -6 -29 3 -5 0 -14 -8 -20 -15 -13 -17 -126
-3 -149 5 -7 7 -38 5 -69 -2 -44 1 -58 14 -67 24 -15 31 -3 19 35 l-11 34 5
-33 c3 -24 1 -32 -8 -29 -6 2 -12 9 -11 15 1 7 2 21 3 33 1 14 6 19 16 15 10
-3 15 1 15 14 0 23 16 35 26 19 12 -21 13 -70 0 -66 -6 2 -10 19 -9 38 l2 34
-9 -29 c-6 -20 -6 -34 2 -43 19 -24 37 -15 36 20 0 17 3 44 7 59 6 23 3 29
-17 38 -34 16 -27 65 13 86 34 17 36 29 10 44 -11 5 -21 22 -23 37 -4 37 -51
45 -68 13z m60 0 c0 -5 -5 -10 -11 -10 -6 0 -8 -7 -4 -17 5 -14 1 -13 -14 4
-27 29 -26 33 4 33 14 0 25 -4 25 -10z m-22 -62 c-2 -7 -7 -16 -13 -20 -6 -5
-5 -12 3 -20 16 -16 16 -58 0 -58 -25 0 -37 16 -44 57 -7 44 -9 41 49 52 4 0
6 -5 5 -11z"/>
<path d="M2050 340 c-6 -11 -8 -24 -6 -29 3 -5 -22 -20 -57 -34 -58 -23 -87
-56 -42 -49 11 2 34 5 50 5 29 2 30 1 28 -37 -2 -22 2 -45 8 -52 6 -7 9 -39 7
-70 -2 -45 1 -59 14 -68 24 -15 31 -3 19 35 l-11 34 5 -33 c3 -24 1 -32 -8
-29 -6 2 -12 9 -11 15 1 7 2 21 3 33 1 14 6 19 16 15 10 -3 15 1 15 14 0 23
16 35 26 19 12 -21 13 -70 0 -66 -6 2 -10 19 -9 38 l2 34 -9 -29 c-6 -20 -6
-34 2 -43 19 -24 37 -15 36 20 0 17 3 44 7 59 6 23 3 29 -17 39 -19 8 -24 17
-20 35 3 18 9 23 21 19 24 -7 59 20 45 35 -9 9 -17 9 -34 0 -13 -7 -20 -8 -16
-2 3 6 2 14 -4 17 -8 5 -8 11 0 20 6 8 10 26 8 42 -4 37 -50 46 -68 13z m60 0
c0 -5 -5 -10 -11 -10 -6 0 -8 -7 -4 -17 5 -14 1 -13 -14 4 -27 29 -26 33 4 33
14 0 25 -4 25 -10z m-55 -60 c3 -5 15 -10 27 -10 18 0 20 -4 14 -31 -3 -17 -6
-38 -6 -46 0 -9 -8 -13 -22 -11 -23 3 -44 53 -27 64 16 9 10 37 -7 30 -8 -3
-12 -2 -9 4 8 13 22 13 30 0z"/>
<path d="M2320 340 c-6 -11 -8 -25 -5 -30 3 -6 0 -10 -7 -10 -8 0 -23 -6 -34
-14 -19 -14 -19 -15 4 -36 20 -18 22 -28 17 -60 -4 -24 -2 -41 5 -45 7 -5 10
-29 8 -68 -2 -48 0 -62 14 -71 24 -15 31 -3 19 35 l-11 34 5 -33 c3 -24 1 -32
-8 -29 -6 2 -12 9 -11 15 1 7 2 21 3 33 1 14 6 19 16 15 10 -3 15 1 15 14 0
23 16 35 26 19 12 -21 13 -70 0 -66 -6 2 -10 19 -9 38 l2 34 -9 -29 c-6 -20
-6 -34 2 -43 19 -24 37 -15 36 20 0 17 3 44 7 59 6 23 3 29 -17 39 -19 8 -24
17 -20 35 3 18 9 23 21 19 24 -7 59 20 45 35 -9 9 -17 9 -34 0 -13 -7 -20 -8
-16 -2 3 6 2 13 -3 17 -5 3 -13 -15 -16 -40 -6 -35 -11 -45 -26 -45 -20 0 -26
9 -31 45 -2 15 3 20 19 20 29 0 65 48 61 82 -4 37 -51 45 -68 13z m60 0 c0 -5
-5 -10 -11 -10 -6 0 -8 -7 -4 -17 5 -14 1 -13 -14 4 -27 29 -26 33 4 33 14 0
25 -4 25 -10z m-53 -56 c-3 -3 -12 -4 -19 -1 -8 3 -5 6 6 6 11 1 17 -2 13 -5z"/>
<path d="M2960 341 c-18 -34 35 -93 55 -61 3 6 10 10 16 10 13 0 11 -27 -3
-36 -7 -4 -8 -3 -4 4 4 7 2 12 -3 12 -6 0 -11 -9 -11 -20 0 -23 37 -47 52 -32
14 14 5 95 -11 100 -9 3 -11 0 -6 -9 5 -10 5 -11 -3 -4 -5 6 -12 19 -14 30 -5
29 -53 33 -68 6z m60 -1 c0 -5 -5 -10 -11 -10 -6 0 -8 -7 -4 -17 5 -14 1 -13
-14 4 -27 29 -26 33 4 33 14 0 25 -4 25 -10z"/>
<path d="M750 330 c-6 -11 -8 -24 -6 -29 3 -5 -1 -11 -9 -14 -8 -4 -22 -32
-31 -63 -13 -46 -14 -62 -4 -77 7 -11 10 -43 8 -75 -2 -43 1 -57 14 -66 24
-15 31 -3 19 35 l-11 34 5 -33 c3 -24 1 -32 -8 -29 -6 2 -12 9 -11 15 1 7 2
21 3 33 1 14 6 19 16 15 10 -3 15 1 15 14 0 23 16 35 26 19 12 -21 13 -70 0
-66 -6 2 -10 19 -9 38 l2 34 -9 -29 c-6 -20 -6 -34 2 -43 19 -24 37 -15 36 20
0 17 3 44 7 59 6 23 3 29 -18 39 -25 11 -25 13 -11 40 8 16 29 35 47 43 17 7
43 25 56 40 20 21 22 29 12 39 -10 9 -16 6 -33 -15 -26 -36 -36 -35 -40 5 -2
26 -8 33 -30 35 -19 2 -30 -3 -38 -18z m60 0 c0 -5 -5 -10 -11 -10 -6 0 -8 -7
-4 -17 5 -14 1 -13 -14 4 -27 29 -26 33 4 33 14 0 25 -4 25 -10z m-20 -60 c13
-8 12 -10 -3 -10 -12 0 -17 -6 -16 -17 4 -26 -10 -63 -24 -63 -59 1 -37 93 23
99 3 0 12 -4 20 -9z"/>
<path d="M1080 320 c-6 -12 -9 -24 -6 -27 3 -4 -3 -12 -13 -20 -11 -7 -27 -34
-37 -59 -14 -38 -15 -50 -5 -66 8 -12 11 -43 9 -76 -2 -43 1 -57 14 -66 24
-15 31 -3 19 35 l-11 34 5 -33 c3 -24 1 -32 -8 -29 -6 2 -12 9 -11 15 1 7 2
21 3 33 1 14 6 19 16 15 10 -3 15 1 15 14 0 23 16 35 26 19 12 -21 13 -70 0
-66 -6 2 -10 19 -9 38 l2 34 -9 -29 c-6 -20 -6 -34 2 -43 19 -24 37 -15 36 20
0 17 3 44 7 59 6 22 3 29 -18 40 -24 12 -24 15 -10 33 14 19 15 19 49 -19 25
-29 37 -37 46 -28 8 8 5 18 -13 40 -13 16 -30 38 -37 48 -7 11 -10 12 -6 4 6
-12 4 -13 -7 -2 -20 19 -42 15 -36 -7 9 -38 -20 -62 -52 -42 -25 16 4 68 42
75 18 4 33 2 37 -4 11 -18 32 16 28 47 -4 37 -50 46 -68 13z m60 0 c0 -5 -5
-10 -11 -10 -6 0 -8 -7 -4 -17 5 -14 1 -13 -14 4 -27 29 -26 33 4 33 14 0 25
-4 25 -10z"/>
<path d="M1720 320 c-6 -12 -9 -24 -6 -27 3 -4 -3 -12 -13 -20 -11 -7 -27 -34
-37 -59 -14 -38 -15 -50 -5 -66 8 -12 11 -43 9 -76 -2 -43 1 -57 14 -66 24
-15 31 -3 19 35 l-11 34 5 -33 c3 -24 1 -32 -8 -29 -6 2 -12 9 -11 15 1 7 2
21 3 33 1 14 6 19 16 15 10 -3 15 1 15 14 0 23 16 35 26 19 12 -21 13 -70 0
-66 -6 2 -10 19 -9 38 l2 34 -9 -29 c-6 -20 -6 -34 2 -43 19 -24 37 -15 36 20
0 17 3 44 7 59 6 22 3 29 -19 40 l-26 13 23 29 c20 25 31 29 78 31 39 1 54 6
54 16 0 9 -14 15 -42 17 -39 3 -42 5 -45 35 -2 26 -8 33 -30 35 -19 2 -30 -3
-38 -18z m60 0 c0 -5 -5 -10 -11 -10 -6 0 -8 -7 -4 -17 5 -14 1 -13 -14 4 -27
29 -26 33 4 33 14 0 25 -4 25 -10z m-20 -59 c0 -5 -7 -12 -16 -15 -9 -3 -14
-12 -11 -19 6 -16 -11 -47 -26 -47 -7 0 -18 4 -26 9 -21 13 4 68 32 74 39 8
47 7 47 -2z"/>
<path d="M2680 320 c-6 -12 -9 -24 -6 -27 3 -4 -3 -12 -13 -20 -11 -7 -27 -34
-37 -59 -14 -38 -15 -50 -5 -66 8 -12 11 -43 9 -76 -2 -43 1 -57 14 -66 24
-15 31 -3 19 35 l-11 34 5 -33 c3 -24 1 -32 -8 -29 -6 2 -12 9 -11 15 1 7 2
21 3 33 1 14 6 19 16 15 10 -3 15 1 15 14 0 23 16 35 26 19 12 -21 13 -70 0
-66 -6 2 -10 19 -9 38 l2 34 -9 -29 c-6 -20 -6 -34 2 -43 19 -24 37 -15 36 20
0 17 3 44 7 59 6 22 3 29 -19 40 l-26 13 23 29 c20 25 31 29 78 31 39 1 54 6
54 16 0 9 -14 15 -42 17 -39 3 -42 5 -45 35 -2 26 -8 33 -30 35 -19 2 -30 -3
-38 -18z m60 0 c0 -5 -5 -10 -11 -10 -6 0 -8 -7 -4 -17 5 -14 1 -13 -14 4 -27
29 -26 33 4 33 14 0 25 -4 25 -10z m-20 -59 c0 -5 -7 -12 -16 -15 -9 -3 -14
-12 -11 -19 6 -16 -11 -47 -26 -47 -7 0 -18 4 -26 9 -21 13 4 68 32 74 39 8
47 7 47 -2z"/>
<path d="M2920 275 l-25 -26 23 -18 c18 -13 22 -23 17 -44 -5 -16 -2 -33 5
-42 7 -9 11 -37 8 -71 -2 -45 1 -59 14 -68 24 -15 31 -3 19 35 l-11 34 5 -33
c3 -24 1 -32 -8 -29 -6 2 -12 9 -11 15 1 7 2 21 3 33 1 14 6 19 16 15 10 -3
15 1 15 14 0 23 16 35 26 19 12 -21 13 -70 0 -66 -6 2 -10 19 -9 38 l2 34 -9
-29 c-6 -20 -6 -34 2 -43 19 -24 37 -15 36 20 0 17 3 45 7 60 7 26 4 29 -44
49 -28 12 -51 28 -51 35 0 11 4 11 23 2 12 -7 26 -17 30 -23 4 -6 6 2 5 19 -2
23 -8 30 -23 29 -16 0 -20 6 -20 30 0 39 -16 42 -45 11z"/>
</g>
</svg>
